<?xml version="1.0" encoding="UTF-8" standalone="no"?>
<!-- Created with Inkscape (http://www.inkscape.org/) -->

<svg
   xmlns:dc="http://purl.org/dc/elements/1.1/"
   xmlns:cc="http://creativecommons.org/ns#"
   xmlns:rdf="http://www.w3.org/1999/02/22-rdf-syntax-ns#"
   xmlns:svg="http://www.w3.org/2000/svg"
   xmlns="http://www.w3.org/2000/svg"
   xmlns:sodipodi="http://sodipodi.sourceforge.net/DTD/sodipodi-0.dtd"
   xmlns:inkscape="http://www.inkscape.org/namespaces/inkscape"
   width="20"
   height="20"
   id="svg2"
   version="1.1"
   inkscape:version="0.48.2 r9819"
   sodipodi:docname="新建文档 1">
  <defs
     id="defs4" />
  <sodipodi:namedview
     id="base"
     pagecolor="#ffffff"
     bordercolor="#666666"
     borderopacity="1.0"
     inkscape:pageopacity="0.0"
     inkscape:pageshadow="2"
     inkscape:zoom="1"
     inkscape:cx="140.25341"
     inkscape:cy="48.705192"
     inkscape:document-units="px"
     inkscape:current-layer="layer1"
     showgrid="false"
     inkscape:window-width="1280"
     inkscape:window-height="747"
     inkscape:window-x="0"
     inkscape:window-y="25"
     inkscape:window-maximized="1" />
  <metadata
     id="metadata7">
    <rdf:RDF>
      <cc:Work
         rdf:about="">
        <dc:format>image/svg+xml</dc:format>
        <dc:type
           rdf:resource="http://purl.org/dc/dcmitype/StillImage" />
        <dc:title></dc:title>
      </cc:Work>
    </rdf:RDF>
  </metadata>
  <g
     inkscape:label="Layer 1"
     inkscape:groupmode="layer"
     id="layer1"
     transform="translate(0,-1032.3622)">
    <path
       style="fill:#ff0000;fill-opacity:1;fill-rule:evenodd;stroke:none"
       d="m 10,1032.3619 c -5.52285,0 -10,4.4772 -10,10 0,3.9845 2.33097,7.4239 5.70312,9.0313 l 0.56875,-1.6281 0.51875,-1.2094 0.80938,-1.1375 0.95,-0.7469 0.80625,-0.4625 0.88125,-0.5781 0.7875,-0.6469 c 0.86718,-0.8719 1.29999,-1.6969 1.3,-2.475 -0.0234,-0.5765 -0.1547,-1.0812 -0.39375,-1.5125 -0.22032,-0.4406 -0.53751,-0.8187 -0.95,-1.1375 -0.32813,-0.2578 -0.74063,-0.4422 -1.2375,-0.55 -0.51094,-0.094 -1.05313,-0.1406 -1.625,-0.1406 -0.45469,0 -0.8625,0.083 -1.22813,0.2469 -0.14062,0.056 -0.27656,0.1422 -0.40312,0.2593 -0.13594,0.1125 -0.23438,0.1938 -0.3,0.2407 l -0.24688,0.5468 -0.0281,0.7813 0.42187,0.9219 0.61875,0.5187 0.92188,0.1969 0.94687,0 -0.43437,0.6969 -0.59063,0.8031 -0.87187,-0.056 -0.90625,-0.2344 -0.60625,-0.5125 -0.32188,-0.9281 -0.0438,-1.35 0.21875,-1.0063 0.60313,-0.9062 c 0.52968,-0.3938 1.06875,-0.6859 1.6125,-0.8781 0.52031,-0.1922 1.12031,-0.2938 1.8,-0.3032 0.75937,0 1.42968,0.063 2.01562,0.1844 0.60468,0.1266 1.125,0.3563 1.55625,0.6938 0.22968,0.1593 0.43593,0.3453 0.61875,0.5562 0.17343,0.225 0.31406,0.461 0.42188,0.7094 0.11249,0.2484 0.19218,0.4922 0.24375,0.7312 0.0562,0.2532 0.0937,0.5329 0.1125,0.8375 -10e-6,0.6047 -0.12345,1.2016 -0.37188,1.7875 -0.25313,0.5953 -0.6375,1.0688 -1.15312,1.425 l -0.97813,0.6625 -1.20937,0.6594 -1.24375,0.5906 -1.11875,0.6625 -0.91875,0.9844 -0.59063,1.0188 -0.75,1.7843 c 1.24685,0.5585 2.62975,0.8688 4.08438,0.8688 5.52285,0 10,-4.4772 10,-10 0,-3.8967 -2.2289,-7.2716 -5.48125,-8.9219 0.0879,0.1471 0.13438,0.3251 0.13437,0.5344 10e-6,0.2391 -0.0719,0.4828 -0.2125,0.7312 -0.20156,0.2766 -0.49374,0.55 -0.87812,0.8219 -0.375,0.2578 -0.83593,0.4922 -1.38438,0.7031 l -0.17812,-0.2593 c 0.47344,-0.2672 0.82969,-0.511 1.06875,-0.7313 0.22969,-0.2203 0.44219,-0.4812 0.63437,-0.7812 0.0656,-0.1453 0.0969,-0.2844 0.0969,-0.4157 0,-0.1921 -0.05,-0.3359 -0.15313,-0.4343 -0.0844,-0.084 -0.20468,-0.1282 -0.35937,-0.1282 -0.13593,0 -0.28906,0.028 -0.4625,0.084 l -0.14063,-0.1686 c 0.11251,-0.1359 0.2172,-0.2406 0.31563,-0.3156 0.0825,-0.069 0.20021,-0.1154 0.35,-0.1438 -1.04682,-0.3719 -2.17563,-0.575 -3.35,-0.575 z m -1.175,0.5719 c 0.44063,0 0.77657,0.1047 1.00625,0.3156 0.19219,0.1735 0.28751,0.4157 0.2875,0.725 10e-6,0.2485 -0.0703,0.4922 -0.21563,0.7313 -0.12187,0.1734 -0.29686,0.3516 -0.52187,0.5344 -0.22031,0.1922 -0.47656,0.3703 -0.77188,0.5343 -0.30936,0.1688 -0.64218,0.3204 -0.99375,0.4563 l -0.14687,-0.2594 c 0.45001,-0.2578 0.80626,-0.5078 1.06875,-0.7469 0.24844,-0.2296 0.46094,-0.4843 0.63437,-0.7656 0.0656,-0.1453 0.0969,-0.2843 0.0969,-0.4156 10e-6,-0.1922 -0.05,-0.3359 -0.15313,-0.4344 -0.0891,-0.084 -0.21093,-0.1281 -0.36562,-0.1281 -0.13124,0 -0.28593,0.028 -0.45938,0.084 l -0.14687,-0.1688 c 0.13594,-0.1453 0.24063,-0.2499 0.31562,-0.3156 0.0891,-0.07 0.21095,-0.1187 0.36563,-0.1469 z"
       id="path2993"
       inkscape:connector-curvature="0" />
    <text
       xml:space="preserve"
       style="font-size:22px;font-style:normal;font-variant:normal;font-weight:normal;font-stretch:normal;line-height:125%;letter-spacing:7.90999985px;word-spacing:0px;fill:#000000;fill-opacity:1;stroke:none;font-family:Tengwar Quenya;-inkscape-font-specification:Tengwar Quenya"
       x="205.71429"
       y="423.79074"
       id="text2985"
       sodipodi:linespacing="125%"><tspan
         sodipodi:role="line"
         id="tspan2987"
         x="205.71429"
         y="423.79074" /></text>
  </g>
</svg>
