<?xml version="1.0" encoding="UTF-8" standalone="no"?>
<!-- Created with Inkscape (http://www.inkscape.org/) -->

<svg
   xmlns:osb="http://www.openswatchbook.org/uri/2009/osb"
   xmlns:dc="http://purl.org/dc/elements/1.1/"
   xmlns:cc="http://creativecommons.org/ns#"
   xmlns:rdf="http://www.w3.org/1999/02/22-rdf-syntax-ns#"
   xmlns:svg="http://www.w3.org/2000/svg"
   xmlns="http://www.w3.org/2000/svg"
   xmlns:xlink="http://www.w3.org/1999/xlink"
   xmlns:sodipodi="http://sodipodi.sourceforge.net/DTD/sodipodi-0.dtd"
   xmlns:inkscape="http://www.inkscape.org/namespaces/inkscape"
   version="1.0"
   width="96"
   height="96"
   id="svg2408"
   inkscape:version="0.48.3.1 r9886"
   sodipodi:docname="logo.svg"
   inkscape:export-filename="/home/yy/linnya/src/plugin/Lrc/logo.png"
   inkscape:export-xdpi="240"
   inkscape:export-ydpi="240">
  <sodipodi:namedview
     pagecolor="#ffffff"
     bordercolor="#666666"
     borderopacity="1"
     objecttolerance="10"
     gridtolerance="10"
     guidetolerance="10"
     inkscape:pageopacity="0"
     inkscape:pageshadow="2"
     inkscape:window-width="1280"
     inkscape:window-height="749"
     id="namedview5334"
     showgrid="false"
     inkscape:zoom="5.6568542"
     inkscape:cx="42.951137"
     inkscape:cy="54.059808"
     inkscape:window-x="0"
     inkscape:window-y="25"
     inkscape:window-maximized="1"
     inkscape:current-layer="svg2408"
     showguides="true"
     inkscape:guide-bbox="true"
     inkscape:snap-global="false">
    <inkscape:grid
       type="xygrid"
       id="grid4588" />
  </sodipodi:namedview>
  <defs
     id="defs2410">
    <linearGradient
       id="linearGradient5378"
       osb:paint="solid">
      <stop
         style="stop-color:#ffffff;stop-opacity:1;"
         offset="0"
         id="stop5380" />
    </linearGradient>
    <linearGradient
       id="linearGradient3837"
       osb:paint="gradient">
      <stop
         style="stop-color:#d0fcff;stop-opacity:1;"
         offset="0"
         id="stop3839" />
      <stop
         style="stop-color:#d0fcff;stop-opacity:0;"
         offset="1"
         id="stop3841" />
    </linearGradient>
    <linearGradient
       inkscape:collect="always"
       id="linearGradient6266">
      <stop
         style="stop-color:#000000;stop-opacity:1;"
         offset="0"
         id="stop6268" />
      <stop
         style="stop-color:#000000;stop-opacity:0;"
         offset="1"
         id="stop6270" />
    </linearGradient>
    <linearGradient
       id="linearGradient4384">
      <stop
         id="stop4386"
         style="stop-color:#ffffff;stop-opacity:1"
         offset="0" />
      <stop
         id="stop4388"
         style="stop-color:#ffffff;stop-opacity:0"
         offset="1" />
    </linearGradient>
    <linearGradient
       id="linearGradient4367">
      <stop
         id="stop4369"
         style="stop-color:#ffffff;stop-opacity:0.71755725"
         offset="0" />
      <stop
         id="stop4371"
         style="stop-color:#ffffff;stop-opacity:1"
         offset="1" />
    </linearGradient>
    <linearGradient
       x1="45.447727"
       y1="92.539597"
       x2="45.447727"
       y2="7.0165396"
       id="ButtonShadow"
       gradientUnits="userSpaceOnUse"
       gradientTransform="scale(1.0058652,0.994169)">
      <stop
         id="stop3750"
         style="stop-color:#000000;stop-opacity:1"
         offset="0" />
      <stop
         id="stop3752"
         style="stop-color:#000000;stop-opacity:0.58823532"
         offset="1" />
    </linearGradient>
    <linearGradient
       id="linearGradient3737">
      <stop
         id="stop3739"
         style="stop-color:#ffffff;stop-opacity:1"
         offset="0" />
      <stop
         id="stop3741"
         style="stop-color:#ffffff;stop-opacity:0"
         offset="1" />
    </linearGradient>
    <filter
       color-interpolation-filters="sRGB"
       id="filter3174">
      <feGaussianBlur
         id="feGaussianBlur3176"
         stdDeviation="1.71" />
    </filter>
    <filter
       x="-0.192"
       y="-0.192"
       width="1.3839999"
       height="1.3839999"
       color-interpolation-filters="sRGB"
       id="filter3794">
      <feGaussianBlur
         id="feGaussianBlur3796"
         stdDeviation="5.28" />
    </filter>
    <linearGradient
       x1="48"
       y1="20.220806"
       x2="48"
       y2="138.66119"
       id="linearGradient3613"
       xlink:href="#linearGradient3737"
       gradientUnits="userSpaceOnUse" />
    <linearGradient
       x1="48"
       y1="90"
       x2="48"
       y2="5.9877172"
       id="linearGradient3617"
       xlink:href="#linearGradient4068"
       gradientUnits="userSpaceOnUse" />
    <linearGradient
       x1="45.447727"
       y1="92.539597"
       x2="45.447727"
       y2="7.0165396"
       id="ButtonShadow-0"
       gradientUnits="userSpaceOnUse"
       gradientTransform="matrix(1.0058652,0,0,0.994169,100,0)">
      <stop
         id="stop3750-8"
         style="stop-color:#000000;stop-opacity:1"
         offset="0" />
      <stop
         id="stop3752-5"
         style="stop-color:#000000;stop-opacity:0.58823532"
         offset="1" />
    </linearGradient>
    <linearGradient
       x1="32.251034"
       y1="6.1317081"
       x2="32.251034"
       y2="90.238609"
       id="linearGradient3780"
       xlink:href="#ButtonShadow-0"
       gradientUnits="userSpaceOnUse"
       gradientTransform="matrix(1.0238095,0,0,1.0119048,-1.1428571,-98.071429)" />
    <linearGradient
       x1="32.251034"
       y1="6.1317081"
       x2="32.251034"
       y2="90.238609"
       id="linearGradient3772"
       xlink:href="#ButtonShadow-0"
       gradientUnits="userSpaceOnUse"
       gradientTransform="matrix(1.0238095,0,0,1.0119048,-1.1428571,-98.071429)" />
    <linearGradient
       x1="32.251034"
       y1="6.1317081"
       x2="32.251034"
       y2="90.238609"
       id="linearGradient3725"
       xlink:href="#ButtonShadow-0"
       gradientUnits="userSpaceOnUse"
       gradientTransform="matrix(1.0238095,0,0,1.0119048,-1.1428571,-98.071429)" />
    <linearGradient
       x1="32.251034"
       y1="6.1317081"
       x2="32.251034"
       y2="90.238609"
       id="linearGradient3721"
       xlink:href="#ButtonShadow-0"
       gradientUnits="userSpaceOnUse"
       gradientTransform="translate(0,-97)" />
    <linearGradient
       x1="32.251034"
       y1="6.1317081"
       x2="32.251034"
       y2="90.238609"
       id="linearGradient3026"
       xlink:href="#ButtonShadow-0"
       gradientUnits="userSpaceOnUse"
       gradientTransform="matrix(1.0238095,0,0,1.0119048,-1.1428571,-98.071429)" />
    <clipPath
       id="clipPath4355">
      <rect
         width="84"
         height="80"
         rx="6"
         ry="6"
         x="6"
         y="6"
         id="rect4357"
         style="fill:#ffffff;fill-opacity:1;fill-rule:nonzero;stroke:none" />
    </clipPath>
    <radialGradient
       cx="48"
       cy="87.792389"
       r="42"
       fx="48"
       fy="87.792389"
       id="radialGradient4375"
       xlink:href="#linearGradient4367"
       gradientUnits="userSpaceOnUse"
       gradientTransform="matrix(1,-6.7114942e-8,8.4282233e-8,1.2557894,109.99999,-24.505592)" />
    <linearGradient
       x1="48"
       y1="88"
       x2="48"
       y2="-40"
       id="linearGradient4390"
       xlink:href="#linearGradient4384"
       gradientUnits="userSpaceOnUse"
       gradientTransform="matrix(1,0,0,-1,0,92)" />
    <linearGradient
       x1="48"
       y1="82"
       x2="112.12357"
       y2="82.454597"
       id="linearGradient4429"
       xlink:href="#linearGradient4384"
       gradientUnits="userSpaceOnUse"
       spreadMethod="reflect" />
    <linearGradient
       id="linearGradient3843">
      <stop
         id="stop3845"
         style="stop-color:#523823;stop-opacity:1"
         offset="0" />
      <stop
         id="stop3847"
         style="stop-color:#79563a;stop-opacity:1"
         offset="0.11780351" />
      <stop
         id="stop3849"
         style="stop-color:#875c38;stop-opacity:1"
         offset="0.23809524" />
      <stop
         id="stop3851"
         style="stop-color:#a66e40;stop-opacity:1"
         offset="1" />
    </linearGradient>
    <linearGradient
       x1="8"
       y1="1033.3622"
       x2="50"
       y2="1033.3622"
       id="linearGradient3870"
       xlink:href="#linearGradient3843"
       gradientUnits="userSpaceOnUse"
       gradientTransform="translate(-2,-956.3622)"
       spreadMethod="reflect" />
    <linearGradient
       id="linearGradient4068">
      <stop
         id="stop4070"
         style="stop-color:#45a4d4;stop-opacity:1"
         offset="0" />
      <stop
         id="stop4072"
         style="stop-color:#94c8e0;stop-opacity:1"
         offset="1" />
    </linearGradient>
    <radialGradient
       cx="353.6283"
       cy="241.04938"
       r="220.11942"
       fx="353.6283"
       fy="241.04938"
       id="radialGradient4075-0"
       xlink:href="#linearGradient6793-3"
       gradientUnits="userSpaceOnUse"
       gradientTransform="matrix(-0.14010564,0,0,0.13702439,96.633969,18.542549)" />
    <linearGradient
       id="linearGradient6793-3">
      <stop
         id="stop6795-4"
         style="stop-color:#44b5e8;stop-opacity:1"
         offset="0" />
      <stop
         id="stop6797-6"
         style="stop-color:#116b98;stop-opacity:1"
         offset="1" />
    </linearGradient>
    <radialGradient
       cx="353.6283"
       cy="241.04938"
       r="220.11942"
       fx="353.6283"
       fy="241.04938"
       id="radialGradient4078-3"
       xlink:href="#linearGradient6793-3"
       gradientUnits="userSpaceOnUse"
       gradientTransform="matrix(-0.14010564,0,0,0.13702439,96.633969,18.542549)" />
    <radialGradient
       cx="353.6283"
       cy="241.04938"
       r="220.11942"
       fx="353.6283"
       fy="241.04938"
       id="radialGradient4081-6"
       xlink:href="#linearGradient6793-3"
       gradientUnits="userSpaceOnUse"
       gradientTransform="matrix(-0.14010564,0,0,0.13702439,96.633969,18.542549)" />
    <radialGradient
       cx="353.6283"
       cy="241.04938"
       r="220.11942"
       fx="353.6283"
       fy="241.04938"
       id="radialGradient4086-3"
       xlink:href="#linearGradient6793-3"
       gradientUnits="userSpaceOnUse"
       gradientTransform="matrix(-0.13999019,-0.00562986,-0.00561708,0.1369115,97.441273,18.740641)" />
    <radialGradient
       cx="353.6283"
       cy="241.04938"
       r="220.11942"
       fx="353.6283"
       fy="241.04938"
       id="radialGradient3952"
       xlink:href="#linearGradient6793-3"
       gradientUnits="userSpaceOnUse"
       gradientTransform="matrix(-0.14010564,0,0,0.13702439,96.633969,18.542549)" />
    <linearGradient
       inkscape:collect="always"
       xlink:href="#linearGradient6266"
       id="linearGradient6274"
       x1="36.502377"
       y1="25.079082"
       x2="85.264091"
       y2="25.079082"
       gradientUnits="userSpaceOnUse" />
    <clipPath
       id="clipPath4355-0">
      <rect
         width="84"
         height="80"
         rx="6"
         ry="6"
         x="6"
         y="6"
         id="rect4357-1"
         style="fill:#ffffff;fill-opacity:1;fill-rule:nonzero;stroke:none" />
    </clipPath>
    <filter
       x="-0.192"
       y="-0.192"
       width="1.3839999"
       height="1.3839999"
       color-interpolation-filters="sRGB"
       id="filter3794-3">
      <feGaussianBlur
         id="feGaussianBlur3796-4"
         stdDeviation="5.28" />
    </filter>
    <clipPath
       clipPathUnits="userSpaceOnUse"
       id="clipPath1982">
      <path
         inkscape:connector-curvature="0"
         d="m 4627.57,4629.22 c 26.56,-96.08 93.05,-79.77 85.32,-80.67 5.01,0.84 -53.51,-2.16 -69.19,84.94 -8.04,37.15 -6.05,102.51 1.31,149.59 3.11,39.55 15.26,96.21 23.05,129.36 23.16,94.34 47.4,136.54 46.72,136.63 0.8,-0.13 -30.57,-38.79 -62.94,-133.83 -10.82,-32.33 -25.16,-89.53 -28.35,-129.33 -7.49,-48.18 -7.64,-116.77 4.08,-156.69"
         id="path1984" />
    </clipPath>
    <clipPath
       clipPathUnits="userSpaceOnUse"
       id="clipPath1946">
      <path
         inkscape:connector-curvature="0"
         d="m 3873.2,1700.5 c 5.67,-130.86 -1.7,-226.33 -21.61,-283.98 -20.84,-60.82 -60.85,-57.2 -58.04,-59.01 -3.61,1.98 38.51,-6.85 65.79,55.56 25.34,58.19 38.76,155.57 37.61,288.39 -1.99,121.25 -18.2,320.58 -14.29,466.2 0.71,120.88 20.34,297.47 54.01,394.92 40.07,140.62 125.51,226.72 197.99,224.76 70.26,5.24 98.13,-29.63 97.48,-27.05 0.48,-2.93 -25.21,35.68 -99.86,34.26 -77.37,6.11 -173.69,-85.46 -219.75,-230.45 -37.39,-97.92 -60.25,-275.66 -60.82,-395.86 -3.92,-148.12 15.44,-348.44 21.49,-467.74"
         id="path1948" />
    </clipPath>
    <clipPath
       clipPathUnits="userSpaceOnUse"
       id="clipPath1934">
      <path
         inkscape:connector-curvature="0"
         d="m 4504,2336.05 c 42.46,-301.64 56.23,-523.25 32.07,-664.86 -22.17,-144.03 -84.03,-188.69 -80.34,-189.26 -3.96,0.48 61.15,42.17 88.66,187.72 29.22,142.76 21.14,367.01 -16.93,670.26 -31.72,277.23 -117.69,732.96 -143.37,1070.41 -28.64,280.25 -12.13,692.66 20.58,932.53 40.69,341.58 95.96,593.26 156.89,751 56.53,163.28 140.12,205.62 141.61,195.38 -1.22,10.9 -88.42,-31.15 -149.68,-197.02 -65.68,-160.14 -127.09,-415.62 -173.84,-762.08 -36.43,-236.01 -54.58,-646.43 -26.41,-922.61 26,-340.61 115.04,-795.82 150.76,-1071.47"
         id="path1936" />
    </clipPath>
    <clipPath
       clipPathUnits="userSpaceOnUse"
       id="clipPath1918">
      <path
         inkscape:connector-curvature="0"
         d="m 4118.44,2789.74 c -236.74,-35.59 -268.01,-588.17 -259.85,-771.13 2.13,-52.54 39.53,-306.35 24.55,-483.7 138.31,-5.63 326.91,13.27 447.45,-66.93 l 0.8,1.38 c -243.9,149.9 206.15,1350.8 -203.59,1321.43 -3.22,-0.34 -6.3,-0.7 -9.36,-1.05"
         id="path1920" />
    </clipPath>
    <clipPath
       clipPathUnits="userSpaceOnUse"
       id="clipPath1796">
      <path
         inkscape:connector-curvature="0"
         d="m 4719,5292.66 c -0.45,0.03 -0.86,0.05 -1.27,0.07 0.82,0 1.27,-0.07 1.27,-0.07"
         id="path1798" />
    </clipPath>
    <clipPath
       clipPathUnits="userSpaceOnUse"
       id="clipPath1784">
      <path
         inkscape:connector-curvature="0"
         d="m 4375.39,4660.61 c -6.05,-26.8 -22.77,-97 85.68,-88.76 -64.49,-4.9 159.55,2.34 227.05,-22.28 l 1.04,3.35 c -40.07,14.49 -51.96,75.32 -57.38,121.39 -10.67,121.12 25.63,272.5 83,374.76 l -4.92,2.92 c -47.02,-3.07 -188.78,-6.63 -230.45,1.83 -30.95,-98.66 -67.05,-228.66 -104.02,-393.21"
         id="path1786" />
    </clipPath>
    <clipPath
       clipPathUnits="userSpaceOnUse"
       id="clipPath1772">
      <path
         inkscape:connector-curvature="0"
         d="m 4714.78,5049.07 c 23.79,23.16 94.26,-132.25 -12.53,-329.19 l -193.19,7.85 c 0,0 90.01,291.2 205.72,321.34"
         id="path1774" />
    </clipPath>
    <clipPath
       clipPathUnits="userSpaceOnUse"
       id="clipPath1756">
      <path
         inkscape:connector-curvature="0"
         d="m 4479.41,5053.82 c 41.67,-8.46 -169.61,-410.68 209.75,-500.9 2.18,-0.52 4.38,-1.31 6.65,-1.89 75.67,-19.17 103.42,108.42 121.12,172.07 35.39,127.3 56.15,271.26 22.9,401.33 -18.69,74.62 -68.44,207.95 -179.88,153.6 -49.66,-24.23 -134.64,-77.73 -180.54,-224.21"
         id="path1758" />
    </clipPath>
    <clipPath
       id="clipPath4355-3">
      <rect
         width="84"
         height="80"
         rx="6"
         ry="6"
         x="6"
         y="6"
         id="rect4357-11"
         style="fill:#ffffff;fill-opacity:1;fill-rule:nonzero;stroke:none" />
    </clipPath>
    <filter
       x="-0.192"
       y="-0.192"
       width="1.3839999"
       height="1.3839999"
       color-interpolation-filters="sRGB"
       id="filter3794-0">
      <feGaussianBlur
         id="feGaussianBlur3796-3"
         stdDeviation="5.28" />
    </filter>
  </defs>
  <metadata
     id="metadata2413">
    <rdf:RDF>
      <cc:Work
         rdf:about="">
        <dc:format>image/svg+xml</dc:format>
        <dc:type
           rdf:resource="http://purl.org/dc/dcmitype/StillImage" />
        <dc:title />
      </cc:Work>
    </rdf:RDF>
  </metadata>
  <g
     id="layer2"
     style="display:none">
    <rect
       width="86"
       height="85"
       rx="6"
       ry="6"
       x="5"
       y="7"
       id="rect3745"
       style="opacity:0.9;fill:url(#ButtonShadow);fill-opacity:1;fill-rule:nonzero;stroke:none;filter:url(#filter3174)" />
  </g>
  <g
     id="layer3"
     style="display:inline">
    <path
       d="m 12,-95.03125 c -5.5110903,0 -10.03125,4.52016 -10.03125,10.03125 l 0,71 c 0,5.5110902 4.5201598,10.03125 10.03125,10.03125 l 72,0 c 5.51109,0 10.03125,-4.5201597 10.03125,-10.03125 l 0,-71 c 0,-5.51109 -4.52016,-10.03125 -10.03125,-10.03125 l -72,0 z"
       transform="scale(1,-1)"
       id="path3786"
       style="opacity:0.07999998;fill:url(#linearGradient3026);fill-opacity:1;fill-rule:nonzero;stroke:none;display:inline" />
    <path
       d="m 12,-94.03125 c -4.971633,0 -9.03125,4.059617 -9.03125,9.03125 l 0,71 c 0,4.9716329 4.0596171,9.03125 9.03125,9.03125 l 72,0 c 4.971633,0 9.03125,-4.059617 9.03125,-9.03125 l 0,-71 c 0,-4.971633 -4.059617,-9.03125 -9.03125,-9.03125 l -72,0 z"
       transform="scale(1,-1)"
       id="path3778"
       style="opacity:0.1;fill:url(#linearGradient3780);fill-opacity:1;fill-rule:nonzero;stroke:none;display:inline" />
    <path
       d="m 12,-93 c -4.4091333,0 -8,3.590867 -8,8 l 0,71 c 0,4.4091333 3.5908667,8 8,8 l 72,0 c 4.409133,0 8,-3.5908667 8,-8 l 0,-71 c 0,-4.409133 -3.590867,-8 -8,-8 l -72,0 z"
       transform="scale(1,-1)"
       id="path3770"
       style="opacity:0.2;fill:url(#linearGradient3772);fill-opacity:1;fill-rule:nonzero;stroke:none;display:inline" />
    <rect
       width="86"
       height="85"
       rx="7"
       ry="7"
       x="5"
       y="-92"
       transform="scale(1,-1)"
       id="rect3723"
       style="opacity:0.3;fill:url(#linearGradient3725);fill-opacity:1;fill-rule:nonzero;stroke:none;display:inline" />
    <rect
       width="84"
       height="84"
       rx="6"
       ry="6"
       x="6"
       y="-91"
       transform="scale(1,-1)"
       id="rect3716"
       style="opacity:0.45;fill:url(#linearGradient3721);fill-opacity:1;fill-rule:nonzero;stroke:none;display:inline" />
  </g>
  <g
     id="layer4">
    <rect
       width="84"
       height="26.000017"
       rx="6"
       ry="6"
       x="6"
       y="64"
       id="rect2841"
       style="color:#000000;fill:url(#linearGradient3870);fill-opacity:1;fill-rule:nonzero;stroke:none;stroke-width:1.5;marker:none;visibility:visible;display:inline;overflow:visible;enable-background:accumulate" />
    <path
       d="m 6,82 0,2 c 0,3.324 2.676,6 6,6 l 72,0 c 3.324,0 6,-2.676 6,-6 l 0,-2 c 0,3.324 -2.676,6 -6,6 L 12,88 C 8.676,88 6,85.324 6,82 z"
       inkscape:connector-curvature="0"
       id="rect4345"
       style="opacity:0.1;color:#000000;fill:#000000;fill-opacity:1;fill-rule:nonzero;stroke:none;stroke-width:1.5;marker:none;visibility:visible;display:inline;overflow:visible;enable-background:accumulate" />
    <path
       d="m 6,83 0,1 c 0,3.324 2.676,6 6,6 l 72,0 c 3.324,0 6,-2.676 6,-6 l 0,-1 c 0,3.324 -2.676,6 -6,6 L 12,89 C 8.676,89 6,86.324 6,83 z"
       inkscape:connector-curvature="0"
       id="rect4336"
       style="opacity:0.1;color:#000000;fill:#000000;fill-opacity:1;fill-rule:nonzero;stroke:none;stroke-width:1.5;marker:none;visibility:visible;display:inline;overflow:visible;enable-background:accumulate" />
    <path
       d="m 6,80 0,1 c 0,3.324 2.676,6 6,6 l 72,0 c 3.324,0 6,-2.676 6,-6 l 0,-1 c 0,3.324 -2.676,6 -6,6 L 12,86 C 8.676,86 6,83.324 6,80 z"
       inkscape:connector-curvature="0"
       id="path4412"
       style="opacity:0.2;fill:#000000;fill-opacity:1;fill-rule:nonzero;stroke:none" />
  </g>
  <g
     id="layer1"
     style="fill:#ffeeaa">
    <rect
       width="84"
       height="80"
       rx="6"
       ry="6"
       x="6"
       y="6"
       id="rect2419"
       style="fill:#ffeeaa;fill-opacity:1;fill-rule:nonzero;stroke:none" />
    <path
       d="M 120.78125,6.125 C 118.04223,6.6826484 116,9.0915 116,12 l 0,68 c 0,3.324 2.676,6 6,6 l 72,0 c 3.324,0 6,-2.676 6,-6 l 0,-68 c 0,-2.9085 -2.04223,-5.3173516 -4.78125,-5.875 2.20512,0.5362071 3.8125,2.4908437 3.8125,4.875 l 0,68 c 0,2.80489 -2.22636,5.03125 -5.03125,5.03125 l -72,0 c -2.80489,0 -5.03125,-2.22636 -5.03125,-5.03125 l 0,-68 c 0,-2.3841563 1.60738,-4.3387929 3.8125,-4.875 z"
       inkscape:connector-curvature="0"
       id="rect4359"
       style="opacity:0.20000000000000001;fill:#ffeeaa;fill-opacity:1;fill-rule:nonzero;stroke:none" />
    <path
       d="M 12,86 C 8.676,86 6,83.324 6,80 L 6,12 C 6,8.676 8.676,6 12,6 l 72,0 c 3.324,0 6,2.676 6,6 l 0,68 c 0,3.324 -2.676,6 -6,6 z m 0,-0.96875 72,0 c 2.80489,0 5.03125,-2.22636 5.03125,-5.03125 l 0,-68 C 89.03125,9.19511 86.80489,6.96875 84,6.96875 l -72,0 C 9.1951102,6.96875 6.96875,9.19511 6.96875,12 l 0,68 c 0,2.80489 2.2263602,5.03125 5.03125,5.03125 z"
       inkscape:connector-curvature="0"
       id="rect4377"
       style="opacity:0.40000000000000002;fill:#ffeeaa;fill-opacity:1;fill-rule:nonzero;stroke:none" />
    <path
       d="m 6,78 0,2 c 0,3.324 2.676,6 6,6 l 72,0 c 3.324,0 6,-2.676 6,-6 l 0,-2 c 0,3.324 -2.676,6 -6,6 L 12,84 C 8.676,84 6,81.324 6,78 z"
       inkscape:connector-curvature="0"
       id="rect4414"
       style="opacity:0.10000000000000001;fill:#ffeeaa;fill-opacity:1;fill-rule:nonzero;stroke:none" />
  </g>
  <g
     id="layer5"
     style="display:inline;fill:#ff7f2a;opacity:1">
    <rect
       width="66"
       height="62"
       rx="12"
       ry="12"
       x="15"
       y="15"
       clip-path="url(#clipPath4355)"
       id="rect3171"
       style="opacity:0.10000000000000001;fill:#ff7f2a;fill-opacity:1;fill-rule:nonzero;stroke:#ffffff;stroke-width:0.50000000000000000;stroke-linecap:round;stroke-linejoin:miter;stroke-miterlimit:4;stroke-opacity:1;stroke-dasharray:none;stroke-dashoffset:0;filter:url(#filter3794)" />
  </g>
  <text
     xml:space="preserve"
     style="font-size:8px;font-style:normal;font-variant:normal;font-weight:normal;font-stretch:normal;line-height:100%;letter-spacing:0px;word-spacing:0px;fill:#000000;fill-opacity:1;stroke:none;font-family:P22Grosvenor;-inkscape-font-specification:P22Grosvenor"
     x="6.5"
     y="16.75"
     id="text3225"
     sodipodi:linespacing="100%"><tspan
       sodipodi:role="line"
       id="tspan3227"
       x="6.5"
       y="16.75">All that is gold does not glitter,</tspan><tspan
       sodipodi:role="line"
       x="6.5"
       y="24.75"
       id="tspan3229">Not all those who wander are lost;</tspan><tspan
       sodipodi:role="line"
       x="6.5"
       y="32.75"
       id="tspan3231">The old that is strong does not wither,</tspan><tspan
       sodipodi:role="line"
       x="6.5"
       y="40.75"
       id="tspan3233">Deep roots are not reached by the frost.</tspan><tspan
       sodipodi:role="line"
       x="6.5"
       y="48.75"
       id="tspan3235">From the ashes a fire shall be woken,</tspan><tspan
       sodipodi:role="line"
       x="6.5"
       y="56.75"
       id="tspan3237">A light from the shadows shall spring;</tspan><tspan
       sodipodi:role="line"
       x="6.5"
       y="64.75"
       id="tspan3239">Renewed shall be blade that was broken,</tspan><tspan
       sodipodi:role="line"
       x="6.5"
       y="72.75"
       id="tspan3241">The crownless again shall be king.</tspan><tspan
       sodipodi:role="line"
       x="6.5"
       y="80.75"
       id="tspan3243" /></text>
  <g
     id="g3452"
     transform="translate(22.5,16.25)">
    <g
       transform="matrix(0.01108857,0,0,-0.01108857,-7.777289,79.26985)"
       id="g1792">
      <g
         id="g1794"
         clip-path="url(#clipPath1796)">
        <path
           d="m 4719,5292.66 c -0.45,0.03 -0.86,0.05 -1.27,0.07 0.82,0 1.27,-0.07 1.27,-0.07"
           id="path1800"
           inkscape:connector-curvature="0" />
        <path
           d="m 4719,5292.66 c -0.45,0.03 -0.86,0.05 -1.27,0.07 0.82,0 1.27,-0.07 1.27,-0.07"
           id="path1802"
           inkscape:connector-curvature="0" />
        <path
           d="m 4719,5292.66 c -0.45,0.03 -0.86,0.05 -1.27,0.07 0.82,0 1.27,-0.07 1.27,-0.07"
           id="path1804"
           inkscape:connector-curvature="0" />
        <path
           d="m 4719,5292.66 c -0.45,0.03 -0.86,0.05 -1.27,0.07 0.82,0 1.27,-0.07 1.27,-0.07"
           id="path1806"
           inkscape:connector-curvature="0" />
        <path
           d="m 4719,5292.66 c -0.45,0.03 -0.86,0.05 -1.27,0.07 0.82,0 1.27,-0.07 1.27,-0.07"
           id="path1808"
           inkscape:connector-curvature="0" />
        <path
           d="m 4719,5292.66 c -0.45,0.03 -0.86,0.05 -1.27,0.07 0.82,0 1.27,-0.07 1.27,-0.07"
           id="path1810"
           inkscape:connector-curvature="0" />
      </g>
    </g>
    <path
       d="m 45.745467,52.034219 c 0,0 -0.311589,-0.0171 -0.394088,-0.34064 -0.08261,-0.32224 0.431456,-0.73252 0.824546,-0.56874 0.39309,0.16389 0.68239,0.74604 0.68239,0.74604 0,0 -0.02894,-0.45363 -0.450085,-0.71854 -0.421365,-0.2649 -1.059402,-0.3402 -1.251234,0.0781 -0.191943,0.41792 0.195935,0.90438 0.588471,0.80381"
       style="fill:#b3712b;fill-opacity:1;fill-rule:nonzero;stroke:none"
       id="path1998"
       inkscape:connector-curvature="0" />
    <path
       d="m 44.114449,50.559439 c 0,0 -0.520609,-0.34508 -0.502091,-0.69548 0.01819,-0.35062 0.707784,-0.84717 1.503167,-0.42081 0.795161,0.42691 1.052638,1.29903 1.052638,1.29903 0,0 -0.06686,-1.095 -1.117839,-1.5126 -1.050531,-0.41693 -1.458702,0.10313 -1.57114,0.51108 -0.112881,0.40794 0.635265,0.81878 0.635265,0.81878"
       style="fill:#b3712b;fill-opacity:1;fill-rule:nonzero;stroke:none"
       id="path2000"
       inkscape:connector-curvature="0" />
    <path
       d="m 42.322646,48.311999 c 0,0 -0.469379,-0.54478 -0.25171,-0.93066 0.218001,-0.38566 1.237484,-1.03966 2.219599,0.28043 0.982337,1.32009 1.057961,1.52479 1.057961,1.52479 l -0.216671,-0.79937 c 0,0 -1.144451,-1.72051 -1.925752,-1.73437 -0.780968,-0.0132 -1.361122,0.37879 -1.375094,0.86691 -0.01342,0.48778 0.491667,0.79227 0.491667,0.79227"
       style="fill:#b3712b;fill-opacity:1;fill-rule:nonzero;stroke:none"
       id="path2002"
       inkscape:connector-curvature="0" />
    <path
       d="m 48.471703,50.160909 c 0,0 0.570506,-1.5687 1.364227,-1.75909 0.793054,-0.19061 1.503167,1.20489 0.830866,1.81099 0,0 0.563743,-0.41361 0.232417,-1.3334 -0.330551,-0.92002 -0.781079,-0.73817 -1.057628,-0.71211 -0.27666,0.0267 -1.295367,1.03312 -1.369882,1.99361"
       style="fill:#b3712b;fill-opacity:1;fill-rule:nonzero;stroke:none"
       id="path2004"
       inkscape:connector-curvature="0" />
    <path
       d="m 49.69699,47.787959 c 0,0 0.850383,-1.26133 1.741681,-1.45981 0.893074,-0.19882 1.466353,0.74005 0.95262,1.14966 0,0 0.59734,-0.28209 0.276881,-0.75114 -0.321125,-0.46849 -0.859585,-1.01161 -1.765189,-0.41271 -0.905826,0.59878 -1.377755,1.52257 -1.377755,1.52257 l 0.171762,-0.0486"
       style="fill:#b3712b;fill-opacity:1;fill-rule:nonzero;stroke:none"
       id="path2006"
       inkscape:connector-curvature="0" />
    <path
       d="m 50.480397,46.421179 c 0,0 1.102315,-1.78049 2.921063,-2.04606 0,0 -1.03024,-0.15069 -2.132776,0.81645 -1.102426,0.96726 -1.11429,1.34782 -1.11429,1.34782 l 0.326003,-0.11821"
       style="fill:#b3712b;fill-opacity:1;fill-rule:nonzero;stroke:none"
       id="path2008"
       inkscape:connector-curvature="0" />
    <path
       d="m 59.043657,4.128819 c 0.115432,0.37945 0.0143,1.07248 0.0143,1.07248 l -0.0591,-0.65966 c 0.02972,0.44754 -0.29795,1.79314 -1.350809,3.81048 -1.053415,2.01812 -3.962279,5.27971 -4.725063,6.78332 -0.762117,1.50339 -1.584888,4.04423 -1.584888,4.04423 0.304935,0.55797 0.588913,1.79291 0.588913,1.79291 -0.138274,-0.40817 -0.702239,-1.4668 -0.702239,-1.4668 0,0 -0.888859,1.46258 -2.047505,4.46027 -1.158755,2.99768 -2.629543,6.95054 -2.629543,6.95054 1.226506,2.65116 1.552844,4.70044 1.552844,4.70044 -0.207911,-0.72974 -1.67748,-4.27076 -1.67748,-4.27076 0,0 -1.400265,2.81206 -1.681914,4.21532 -0.281983,1.40326 -0.603551,3.16712 -0.790615,3.69405 -0.187508,0.52626 -0.842178,1.75498 -0.842178,1.75498 l 0.163002,0.90694 -0.361598,-0.5124 c 0,0 0.307265,1.49839 0.871562,2.79188 0.564519,1.2937 2.222482,4.54398 2.222482,4.54398 0,0 -1.54109,-2.40056 -2.121354,-3.3045 -0.58082,-0.90417 -1.472119,-2.54949 -1.472119,-2.54949 0,0 0.85881,2.19044 1.714737,3.43979 0.153022,0.22277 0.334431,0.52637 0.529922,0.87566 -0.409833,-0.35395 -0.983667,-0.68427 -1.71518,-0.70845 -1.618488,-0.0531 -1.47988,1.92221 -0.30294,2.08 0,0 -1.693113,-1.15 0.07596,-1.7928 1.221961,-0.44399 2.560019,2.20063 2.560019,2.20063 0,0 -1.156206,-0.52781 -1.712298,0.0923 -0.556091,0.62041 0.06065,1.61339 0.678177,1.50971 0,0 -0.884868,-0.31924 -0.659104,-0.95894 0.225652,-0.63948 1.886055,-0.79682 2.556137,0.96681 0,0 -1.029685,-0.0624 -1.165298,0.64625 -0.135391,0.709 0.728519,1.22151 1.058183,0.71188 0,0 -0.604549,0.34031 -0.786956,-0.32778 -0.182296,-0.66742 1.199229,-0.95528 1.498177,0.0784 0.04957,0.17021 0.100905,0.30959 0.153133,0.42236 0.368362,1.67804 0.890855,1.38486 1.360346,-1.02802 0.528481,-2.71903 1.890933,-3.55765 2.56024,-2.14719 0.669417,1.4108 -1.119613,1.67038 -1.119613,1.67038 0.412384,0.16578 2.081214,-0.24539 1.539537,-1.93451 -0.541344,-1.6889 -1.625141,-0.89584 -1.625141,-0.89584 1.910006,-3.00722 3.564199,-0.93278 2.857636,-0.36947 -0.706453,0.56318 -0.592796,-0.12852 -0.592796,-0.12852 -0.436445,0.41881 0.440217,0.81601 0.799043,0.21168 0.358493,-0.60411 -0.08128,-1.41989 -0.794606,-1.69966 -0.712885,-0.27987 -1.658962,0.68672 -1.658962,0.68672 1.397604,-2.06869 3.182753,-2.11326 3.182753,-2.11326 -0.738721,-0.22432 -1.839927,0.37102 -1.839927,0.37102 0.697693,-0.66276 2.130558,-0.88564 2.130558,-0.88564 0,0 0.0744,-0.87245 0.230975,-1.77462 0.156128,-0.9025 0.691372,-2.77835 0.691372,-2.77835 -0.497877,-0.0974 -1.869089,0.81845 -1.869089,0.81845 0.475589,-0.41438 1.962455,-1.31666 1.962455,-1.31666 0,0 0.367365,-1.95447 1.30313,-4.99828 0.935542,-3.04304 1.576018,-5.70995 1.576018,-5.70995 0,0 -0.514399,0.23297 -1.391838,1.10941 -0.877549,0.87644 -2.094408,1.45793 -2.094408,1.45793 0,0 1.18692,-0.66366 1.83294,-1.3904 0.645687,-0.72719 1.768183,-1.51614 1.768183,-1.51614 0,0 0.41061,-1.98829 0.885089,-4.20479 0.474703,-2.21616 0.827984,-4.58368 0.827984,-4.58368 -0.30438,0.10135 -2.851314,2.48506 -2.851314,2.48506 0,0 0.530587,-0.5643 0.94153,-0.92734 0.411053,-0.36293 1.90923,-1.73414 1.90923,-1.73414 l 0.239181,-2.02854 -3.490128,2.78267 3.523837,-2.91562 c 0,0 0.220108,-0.9534 0.431124,-2.35843 0.210461,-1.40515 0.243283,-3.51663 0.243283,-3.51663 -0.518613,0.272 -2.012354,1.78093 -2.012354,1.78093 0.419148,-0.61685 1.985741,-2.07755 1.985741,-2.07755 -0.01419,-0.41316 -0.275662,-1.79535 -0.275662,-1.79535 l -0.711553,0.42569 0.795383,-0.65766 c -0.0418,-2.74687 -1.099543,-4.30769 -1.099543,-4.30769"
       style="fill:#d69757;fill-opacity:1;fill-rule:nonzero;stroke:none"
       id="path2010"
       inkscape:connector-curvature="0" />
    <path
       d="m 56.163401,19.551129 3.523837,-2.91562 c 0,0 0.220108,-0.9534 0.431124,-2.35843 0.210461,-1.40515 0.243283,-3.51663 0.243283,-3.51663 -0.518613,0.272 -2.012354,1.78093 -2.012354,1.78093 0.419148,-0.61685 1.985741,-2.07755 1.985741,-2.07755 -0.01419,-0.41316 -0.275662,-1.79535 -0.275662,-1.79535 l -0.711553,0.42569 0.795383,-0.65766 c -0.0418,-2.74687 -1.099543,-4.30769 -1.099543,-4.30769 0.115432,0.37945 0.0143,1.07248 0.0143,1.07248 l -0.0591,-0.65966 c 0.02972,0.44754 -0.29795,1.79314 -1.350809,3.81048 -1.053415,2.01812 -3.962279,5.27971 -4.725063,6.78332 -0.233525,0.46073 -0.473149,1.01926 -0.69237,1.57192 0.491334,0.6774 1.154764,1.66384 1.367443,2.32006 0.352284,1.08613 0.705566,2.64241 0.705566,2.64241 l -0.04824,1.16907 c 0,0 0.09935,-1.39827 1.343603,-2.53164 0.889303,-0.81046 2.940467,-2.49814 4.037348,-3.39498 l 0.01719,-0.14382 -3.490128,2.78267"
       style="fill:#c6951b;fill-opacity:1;fill-rule:nonzero;stroke:none"
       id="path2012"
       inkscape:connector-curvature="0" />
    <path
       d="m 54.25539,22.838899 0.04824,-1.16907 c 0,0 -0.353282,-1.55628 -0.705566,-2.64241 -0.212679,-0.65622 -0.876109,-1.64266 -1.367443,-2.32006 -0.496878,1.25068 -0.892518,2.47231 -0.892518,2.47231 0.304935,0.55797 0.588913,1.79291 0.588913,1.79291 -0.138274,-0.40817 -0.702239,-1.4668 -0.702239,-1.4668 0,0 -0.888859,1.46258 -2.047505,4.46027 -1.158755,2.99768 -2.629543,6.95054 -2.629543,6.95054 1.226506,2.65116 1.552844,4.70044 1.552844,4.70044 -0.207911,-0.72974 -1.67748,-4.27076 -1.67748,-4.27076 0,0 -1.400265,2.81206 -1.681914,4.21532 -0.281983,1.40326 -0.603551,3.16712 -0.790615,3.69405 -0.187508,0.52626 -0.842178,1.75498 -0.842178,1.75498 l 0.163002,0.90694 -0.361598,-0.5124 c 0,0 0.307265,1.49839 0.871562,2.79188 0.564519,1.2937 2.222482,4.54398 2.222482,4.54398 0,0 -1.54109,-2.40056 -2.121354,-3.3045 -0.58082,-0.90417 -1.472119,-2.54949 -1.472119,-2.54949 0,0 0.85881,2.19044 1.714737,3.43979 0.153022,0.22277 0.334431,0.52637 0.529922,0.87566 -0.409833,-0.35395 -0.983667,-0.68427 -1.71518,-0.70845 -1.618488,-0.0531 -1.47988,1.92221 -0.30294,2.08 0,0 -1.693113,-1.15 0.07596,-1.7928 1.221961,-0.44399 2.560019,2.20063 2.560019,2.20063 0,0 -1.156206,-0.52781 -1.712298,0.0923 -0.556091,0.62041 0.06065,1.61339 0.678177,1.50971 0,0 -0.884868,-0.31924 -0.659104,-0.95894 0.225652,-0.63948 1.886055,-0.79682 2.556137,0.96681 0,0 -1.029685,-0.0624 -1.165298,0.64625 -0.135391,0.709 0.728519,1.22151 1.058183,0.71188 0,0 -0.604549,0.34031 -0.786956,-0.32778 -0.182296,-0.66742 1.199229,-0.95528 1.498177,0.0784 0.04957,0.17021 0.100905,0.30959 0.153133,0.42236 0.368362,1.67804 0.890855,1.38486 1.360346,-1.02802 0.528481,-2.71903 1.890933,-3.55765 2.56024,-2.14719 0.669417,1.4108 -1.119613,1.67038 -1.119613,1.67038 0.412384,0.16578 2.081214,-0.24539 1.539537,-1.93451 -0.541344,-1.6889 -1.625141,-0.89584 -1.625141,-0.89584 1.910006,-3.00722 3.564199,-0.93278 2.857636,-0.36947 -0.706453,0.56318 -0.592796,-0.12852 -0.592796,-0.12852 -0.436445,0.41881 0.440217,0.81601 0.799043,0.21168 0.358493,-0.60411 -0.08128,-1.41989 -0.794606,-1.69966 -0.712885,-0.27987 -1.658962,0.68672 -1.658962,0.68672 1.397604,-2.06869 3.182753,-2.11326 3.182753,-2.11326 -0.738721,-0.22432 -1.839927,0.37102 -1.839927,0.37102 0.697693,-0.66276 2.130558,-0.88564 2.130558,-0.88564 0,0 0.0744,-0.87245 0.230975,-1.77462 0.156128,-0.9025 0.691372,-2.77835 0.691372,-2.77835 -0.497877,-0.0974 -1.869089,0.81845 -1.869089,0.81845 0.475589,-0.41438 1.962455,-1.31666 1.962455,-1.31666 0,0 0.367365,-1.95447 1.30313,-4.99828 0.935542,-3.04304 1.576018,-5.70995 1.576018,-5.70995 0,0 -0.514399,0.23297 -1.391838,1.10941 -0.877549,0.87644 -2.094408,1.45793 -2.094408,1.45793 0,0 1.18692,-0.66366 1.83294,-1.3904 0.645687,-0.72719 1.768183,-1.51614 1.768183,-1.51614 0,0 0.41061,-1.98829 0.885089,-4.20479 0.474703,-2.21616 0.827984,-4.58368 0.827984,-4.58368 -0.30438,0.10135 -2.851314,2.48506 -2.851314,2.48506 0,0 0.530587,-0.5643 0.94153,-0.92734 0.411053,-0.36293 1.90923,-1.73414 1.90923,-1.73414 l 0.221993,-1.88472 c -1.096881,0.89684 -3.148045,2.58452 -4.037348,3.39498 -1.244249,1.13337 -1.343603,2.53164 -1.343603,2.53164"
       style="fill:#e1ad35;fill-opacity:1;fill-rule:nonzero;stroke:none"
       id="path2014"
       inkscape:connector-curvature="0" />
    <path
       d="m 48.084712,52.289589 c 0,0 0.137609,-3.07852 1.207102,-4.28463 1.06927,-1.20632 1.566814,-1.5494 1.566814,-1.5494 0,0 -1.234712,0.64823 -1.875853,1.51336 -0.641364,0.86436 -0.641364,0.86436 -0.641364,0.86436 0,0 0.425359,-1.39971 1.288936,-2.51245 0.864133,-1.11241 1.506272,-1.62481 1.506272,-1.62481 0,0 -1.311113,0.90383 -1.62758,1.29703 -0.316468,0.39387 -0.379229,-0.47481 0.113879,-2.14054 0.493552,-1.66583 5.819947,-24.15124 8.686121,-33.29376 0,0 -2.979166,8.73757 -5.367201,17.07484 -2.388367,8.33695 -4.712088,18.24858 -5.159511,20.93789 -0.447092,2.68975 0.302385,3.71811 0.302385,3.71811"
       style="fill:#b3712b;fill-opacity:1;fill-rule:nonzero;stroke:none"
       id="path2016"
       inkscape:connector-curvature="0" />
    <path
       d="m 47.008566,52.476099 c 0,0 -0.507746,-1.8223 -1.037336,-2.53064 -0.530256,-0.70878 -1.484316,-1.11473 -1.72017,-1.10331 0,0 0.978012,-0.17886 1.843586,0.86291 0,0 -0.95517,-2.38404 -2.471976,-3.01298 0,0 1.121055,0.30793 1.97931,1.78004 0.858477,1.47157 1.069826,2.04507 1.10542,2.26462 0.03437,0.21978 0.324784,-0.47126 0.531253,-1.66107 0.206913,-1.18991 1.220963,-6.94665 1.703649,-9.2401 0.482907,-2.29345 3.535923,-13.70592 4.894052,-17.58093 1.358128,-3.87546 4.740918,-12.54616 4.740918,-12.54616 0,0 -5.460233,16.12378 -7.458616,24.29151 -1.997717,8.16751 -4.11009,18.47611 -4.11009,18.47611"
       style="fill:#b3712b;fill-opacity:1;fill-rule:nonzero;stroke:none"
       id="path2018"
       inkscape:connector-curvature="0" />
    <path
       d="m 43.639969,43.697159 c 0,0 1.154985,2.7085 1.954804,4.23905 0.799707,1.52978 1.135691,2.88847 1.16186,3.12643 0.02661,0.23829 0.20525,-0.32845 0.20525,-0.32845 0,0 -0.717764,-1.92564 -1.88284,-4.17784 -1.165741,-2.25187 -1.439074,-2.85919 -1.439074,-2.85919"
       style="fill:#b3712b;fill-opacity:1;fill-rule:nonzero;stroke:none"
       id="path2020"
       inkscape:connector-curvature="0" />
    <path
       d="m 43.826811,49.056599 c 0,0 -0.407505,0.14848 -0.332103,0.81313 0.04857,0.43467 0.619741,0.68971 0.619741,0.68971 0,0 -0.581707,-0.1558 -0.692704,-0.64935 -0.165441,-0.7344 0.405066,-0.85349 0.405066,-0.85349"
       style="fill:#b3712b;fill-opacity:1;fill-rule:nonzero;stroke:none"
       id="path2022"
       inkscape:connector-curvature="0" />
    <path
       d="m 49.94615,39.777129 c 0.916027,-3.94642 2.380161,-9.70915 3.237751,-12.93803 0.857812,-3.22844 1.690565,-6.22557 3.614764,-11.7184 0.443765,-1.2661 0.801703,-2.27039 1.090228,-3.06655 0.459733,-1.56138 0.683611,-2.48317 0.683611,-2.48317 0,0 -0.569953,1.65652 -1.260771,3.33865 -0.690485,1.68136 -4.753004,12.83758 -7.28131,23.1953 -2.739542,11.22208 -3.41406,19.32971 -3.64193,20.29408 -0.144041,0.60965 -0.03049,1.36744 0.282647,2.81439 0.211348,0.97679 0.477031,1.78071 0.666645,2.16904 0.06287,-1.64743 0.275884,-6.75172 0.611535,-10.00955 0.404955,-3.92868 1.081025,-7.64878 1.99683,-11.59576"
       style="fill:#e6c57b;fill-opacity:1;fill-rule:nonzero;stroke:none"
       id="path2024"
       inkscape:connector-curvature="0" />
    <path
       d="m 48.594675,44.319119 c -0.952287,4.38631 -1.606512,12.49704 -1.816419,15.35623 0.297617,1.20544 0.652673,2.04318 0.766664,1.95159 0,0 0.142377,-10.36349 1.497289,-16.74596 1.355467,-6.38269 4.746906,-21.10443 6.680643,-26.32194 1.933514,-5.21784 2.849652,-8.98806 2.849652,-8.98806 -0.40806,1.24447 -3.482698,9.77546 -4.923215,14.77685 -1.440738,5.00128 -3.885768,14.58557 -5.054614,19.97129"
       style="fill:#e6ad2e;fill-opacity:1;fill-rule:nonzero;stroke:none"
       id="path2026"
       inkscape:connector-curvature="0" />
    <path
       d="m 50.030423,36.104929 c -2.739542,11.22208 -3.41406,19.32971 -3.64193,20.29408 -0.144041,0.60965 -0.03049,1.36744 0.282647,2.81439 0.03449,0.15879 0.07063,0.31303 0.107116,0.46195 0.209907,-2.85919 0.864132,-10.96992 1.816419,-15.35623 1.168846,-5.38572 3.613876,-14.97001 5.054614,-19.97129 1.440517,-5.00139 4.515155,-13.53238 4.923215,-14.77685 0,0 -0.569953,1.65652 -1.260771,3.33865 -0.690485,1.68136 -4.753004,12.83758 -7.28131,23.1953"
       style="fill:#f4d283;fill-opacity:1;fill-rule:nonzero;stroke:none"
       id="path2028"
       inkscape:connector-curvature="0" />
    <path
       d="m 47.53494,61.632819 0.01,-0.006 c 0,0 9.94e-4,-0.0569 0.0032,-0.16311 -0.0024,0.0602 -0.0067,0.11676 -0.01319,0.16899"
       style="fill:#ffffff;fill-opacity:1;fill-rule:nonzero;stroke:none"
       id="path2030"
       inkscape:connector-curvature="0" />
    <path
       d="m 50.882802,41.610959 c 0,0 1.300356,-1.53111 3.610106,-2.80729 0,0 -2.190548,0.89806 -3.610106,2.80729"
       style="fill:#b3712b;fill-opacity:1;fill-rule:nonzero;stroke:none"
       id="path2032"
       inkscape:connector-curvature="0" />
    <path
       d="m 50.936803,38.033339 c 0,0 1.57868,-1.93007 3.326349,-3.07619 0,0 -1.902243,1.12793 -3.10868,2.51389 l -0.217669,0.5623"
       style="fill:#b3712b;fill-opacity:1;fill-rule:nonzero;stroke:none"
       id="path2034"
       inkscape:connector-curvature="0" />
    <path
       d="m 51.217788,37.067199 c 0,0 0.902498,-1.10853 1.870308,-1.73891 0,0 -1.85545,1.05518 -1.870308,1.73891"
       style="fill:#b3712b;fill-opacity:1;fill-rule:nonzero;stroke:none"
       id="path2036"
       inkscape:connector-curvature="0" />
    <path
       d="m 42.981308,41.583239 c 0,0 0.791945,1.60795 1.326636,2.57144 0.534802,0.96393 1.605736,3.24429 1.605736,3.24429 0,0 -1.125933,-2.4957 -1.554839,-3.35595 -0.428906,-0.85992 -1.377533,-2.45978 -1.377533,-2.45978"
       style="fill:#b3712b;fill-opacity:1;fill-rule:nonzero;stroke:none"
       id="path2038"
       inkscape:connector-curvature="0" />
    <path
       d="m 43.315628,41.387639 c 0,0 1.213977,2.28402 1.456262,2.93902 0.242507,0.65545 0.621625,1.24824 0.621625,1.24824 0,0 -1.219077,-3.08129 -2.077887,-4.18726"
       style="fill:#b3712b;fill-opacity:1;fill-rule:nonzero;stroke:none"
       id="path2040"
       inkscape:connector-curvature="0" />
    <path
       d="m 45.995181,40.970929 c 0,0 1.590212,2.66835 1.843032,5.03498 l 0.07008,-0.4095 c 0,0 -0.271227,-1.83371 -1.913112,-4.62548"
       style="fill:#b3712b;fill-opacity:1;fill-rule:nonzero;stroke:none"
       id="path2042"
       inkscape:connector-curvature="0" />
    <path
       d="m 48.051668,44.633929 c 0,0 -0.606545,-1.62515 -1.037447,-2.58996 0,0 0.869344,1.85212 1.062286,2.35776 l -0.02484,0.2322"
       style="fill:#b3712b;fill-opacity:1;fill-rule:nonzero;stroke:none"
       id="path2044"
       inkscape:connector-curvature="0" />
    <path
       d="m 49.696546,27.604319 c 0,0 1.257223,2.36397 1.374983,4.41259 l 0.07829,-0.34963 c 0,0 -0.156681,-1.59054 -1.453268,-4.06296"
       style="fill:#b3712b;fill-opacity:1;fill-rule:nonzero;stroke:none"
       id="path2046"
       inkscape:connector-curvature="0" />
    <path
       d="m 51.313482,30.844509 c 0,0 -0.454188,-1.42499 -0.784517,-2.27371 0,0 0.670748,1.63124 0.815787,2.07523 l -0.03127,0.19848"
       style="fill:#b3712b;fill-opacity:1;fill-rule:nonzero;stroke:none"
       id="path2048"
       inkscape:connector-curvature="0" />
    <path
       d="m 46.854213,31.549859 c 0,0 2.022777,5.63388 2.058261,8.46845 l 0.178969,-0.56652 c 0,0 -0.653339,-4.00408 -2.23723,-7.90193"
       style="fill:#b3712b;fill-opacity:1;fill-rule:nonzero;stroke:none"
       id="path2050"
       inkscape:connector-curvature="0" />
    <path
       d="m 45.980433,34.473359 c 0,0 1.292595,3.97093 1.640334,4.73681 0.347404,0.76545 0.622622,1.65941 0.622622,1.65941 0,0 -0.457625,-1.73836 -1.140903,-3.56121 -0.683389,-1.82396 -1.122053,-2.83501 -1.122053,-2.83501"
       style="fill:#b3712b;fill-opacity:1;fill-rule:nonzero;stroke:none"
       id="path2052"
       inkscape:connector-curvature="0" />
    <path
       d="m 46.564579,37.577819 c 0,0 0.683832,2.08787 1.022589,2.75474 0,0 -0.841291,-2.35178 -1.022589,-2.75474"
       style="fill:#b3712b;fill-opacity:1;fill-rule:nonzero;stroke:none"
       id="path2054"
       inkscape:connector-curvature="0" />
    <path
       d="m 54.28422,39.830359 c -0.09935,0.31447 -0.298282,0.82621 -0.47836,1.77184 -0.180522,0.94463 -0.288858,2.06791 -0.288858,2.06791 0,0 -0.215007,0.0533 -0.663207,0.22232 -0.277768,0.10479 -0.63105,0.35994 -0.860917,0.54035 0.731956,-0.42126 1.699213,-0.57228 1.699213,-0.57228 0,0 0.0744,-0.87245 0.230975,-1.77462 0.156128,-0.9025 0.691372,-2.77835 0.691372,-2.77835 -0.20791,-0.0408 -0.568067,0.095 -0.917135,0.26757 0.05932,-0.01 0.335761,-0.053 0.465942,-0.0727 0.145814,-0.022 0.219885,0.0129 0.120975,0.328"
       style="fill:#b3712b;fill-opacity:1;fill-rule:nonzero;stroke:none"
       id="path2056"
       inkscape:connector-curvature="0" />
    <path
       d="m 56.810308,28.649419 c 0.114101,-0.0905 0.51695,-0.31769 0.51695,-0.31769 0,0 -0.180966,0.71 -0.28542,1.31145 -0.104344,0.60133 -0.296841,1.17915 -0.296841,1.17915 l -0.930332,0.76567 0.873225,-0.60255 c 0,0 -0.124746,0.31203 -0.286417,0.72375 -0.162115,0.41194 -0.441436,1.78936 -0.873336,2.88735 -0.431568,1.09866 -0.84262,3.45265 -0.887862,3.74772 -0.03282,0.21534 -0.15646,0.50275 -0.220774,0.6428 0.174201,-0.109 0.288303,-0.17775 0.288303,-0.17775 0,0 0.367365,-1.95447 1.30313,-4.99828 0.935542,-3.04304 1.576018,-5.70995 1.576018,-5.70995 0,0 -0.282648,0.12874 -0.785958,0.55121 -0.0051,0.007 -0.003,0.007 0.0093,-0.003"
       style="fill:#b3712b;fill-opacity:1;fill-rule:nonzero;stroke:none"
       id="path2058"
       inkscape:connector-curvature="0" />
    <path
       d="m 59.90047,7.546759 c 0.03515,0.39564 0.02251,0.80836 0.02184,1.07237 l 0.220885,-0.18262 c -0.0418,-2.74687 -1.099543,-4.30769 -1.099543,-4.30769 0.02961,0.0979 0.04446,0.21589 0.05134,0.33764 0.17398,0.37092 0.373353,0.81912 0.470377,1.10842 0.187841,0.55709 0.281983,1.37753 0.335096,1.97188"
       style="fill:#b3712b;fill-opacity:1;fill-rule:nonzero;stroke:none"
       id="path2060"
       inkscape:connector-curvature="0" />
    <path
       d="m 60.067576,9.981369 c 0.02284,0.25481 0.0621,0.50519 0.08727,0.652 0.111771,-0.10589 0.180188,-0.16954 0.180188,-0.16954 -0.01419,-0.41316 -0.275662,-1.79535 -0.275662,-1.79535 l -0.13528,0.0812 c 0.0014,0.0633 0.0059,0.11011 0.01408,0.13295 0.04047,0.10978 0.0937,0.70324 0.129403,1.09877"
       style="fill:#b3712b;fill-opacity:1;fill-rule:nonzero;stroke:none"
       id="path2062"
       inkscape:connector-curvature="0" />
    <path
       d="m 59.278403,19.212049 c 0,0 -0.140714,0.70113 -0.2027,1.15088 -0.06176,0.45031 -0.363815,1.91644 -0.363815,1.91644 l -0.376125,0.46472 0.288192,-0.25338 -0.0479,0.32135 -1.20433,1.1246 1.156428,-0.92179 c 0,0 -0.318908,1.50306 -0.505861,2.26473 -0.166883,0.6815 -0.511849,2.33337 -0.582926,2.67445 0.160119,-0.11997 0.262466,-0.19216 0.262466,-0.19216 0,0 0.41061,-1.98829 0.885089,-4.20479 0.474703,-2.21616 0.827984,-4.58368 0.827984,-4.58368 -0.07562,0.0249 -0.289411,0.19106 -0.567955,0.42602 -0.02318,0.0278 -0.03726,0.0446 -0.03726,0.0446 l 0.468715,-0.23197"
       style="fill:#b3712b;fill-opacity:1;fill-rule:nonzero;stroke:none"
       id="path2064"
       inkscape:connector-curvature="0" />
    <path
       d="m 59.802115,12.196089 c 0,0 0.379008,-0.37302 0.36559,-0.12664 -0.01353,0.24683 -0.10401,0.602 -0.10401,0.602 0,0 -0.01375,0.24595 -0.09924,0.31436 -0.0856,0.0684 -0.57095,0.57284 -0.57095,0.57284 l 0.679951,-0.49444 c 0,0 -0.194051,1.30901 -0.351952,2.04773 -0.116762,0.54478 -0.162447,1.2896 -0.178526,1.64266 l 0.144263,-0.11909 c 0,0 0.220108,-0.9534 0.431124,-2.35843 0.210461,-1.40515 0.243283,-3.51663 0.243283,-3.51663 -0.04957,0.0261 -0.108002,0.0631 -0.172871,0.109 0.01896,0.19571 0.05622,0.60765 0.04336,0.7243 -0.01675,0.15547 -0.430016,0.60234 -0.430016,0.60234"
       style="fill:#b3712b;fill-opacity:1;fill-rule:nonzero;stroke:none"
       id="path2066"
       inkscape:connector-curvature="0" />
    <path
       d="m 59.323976,18.185799 c -0.01896,0.29784 -0.0581,0.65899 -0.166439,0.81612 -0.0183,0.0265 -0.04081,0.0574 -0.06498,0.0895 0.192497,-0.17608 0.32179,-0.2944 0.32179,-0.2944 l 0.239181,-2.02854 -0.115211,0.0917 c -0.0023,0.0615 -0.0031,0.097 -0.0031,0.097 0,0 -0.191833,0.93034 -0.211238,1.22862"
       style="fill:#b3712b;fill-opacity:1;fill-rule:nonzero;stroke:none"
       id="path2068"
       inkscape:connector-curvature="0" />
    <path
       d="m 56.798665,15.120699 c -1.924199,5.49283 -2.756952,8.48996 -3.614764,11.7184 -0.85759,3.22888 -2.321724,8.99161 -3.237751,12.93803 -0.915805,3.94698 -1.591875,7.66708 -1.99683,11.59576 -0.335651,3.25783 -0.548663,8.36212 -0.611535,10.00955 0.09126,0.18695 0.165663,0.27799 0.207135,0.2445 0,0 0.290742,-10.4115 1.646098,-16.79375 1.355245,-6.38236 4.598097,-21.05664 6.531834,-26.27415 0.977569,-2.63886 1.695443,-4.90691 2.166041,-6.50489 -0.288525,0.79616 -0.646463,1.80045 -1.090228,3.06655"
       style="fill:#d99a28;fill-opacity:1;fill-rule:nonzero;stroke:none"
       id="path2070"
       inkscape:connector-curvature="0" />
    <path
       d="m 46.656947,57.174879 c 0.231418,-2.02344 0.402848,-3.39466 0.694034,-5.8113 0.161117,-1.30745 0.65855,-5.24046 1.504275,-8.76995 0.796714,-3.54047 1.611502,-6.73853 1.608952,-6.73897 7.99e-4,4.4e-4 0.793609,-3.2026 1.745674,-6.70337 0.92279,-3.50943 2.173248,-7.2608 2.583638,-8.5127 0.762338,-2.30931 1.169843,-3.62751 1.763414,-5.57245 -0.723529,1.89947 -1.201114,3.19384 -1.96689,5.50337 -0.411275,1.24979 -1.665281,5.0097 -2.588074,8.5229 -0.952396,3.50376 -1.745008,6.70869 -1.746005,6.70858 0.0028,4.5e-4 -0.813014,3.19939 -1.611281,6.74307 -0.848164,3.53759 -1.34715,7.48279 -1.506271,8.7918 -0.288858,2.42097 -0.386326,3.80271 -0.481466,5.83902"
       style="fill:#fff4d3;fill-opacity:1;fill-rule:nonzero;stroke:none"
       id="path2072"
       inkscape:connector-curvature="0" />
    <path
       d="m 52.492641,26.836439 c 0,0 -0.826986,-3.20493 -1.668165,-5.07923 0,0 2.067686,4.52546 1.668165,5.07923"
       style="fill:#b3712b;fill-opacity:1;fill-rule:nonzero;stroke:none"
       id="path2074"
       inkscape:connector-curvature="0" />
    <path
       d="m 51.953403,20.244389 0.998748,3.06843 c 0,0 -0.5959,-2.21139 -0.998748,-3.06843"
       style="fill:#b3712b;fill-opacity:1;fill-rule:nonzero;stroke:none"
       id="path2076"
       inkscape:connector-curvature="0" />
    <path
       d="m 44.934559,43.251619 1.227616,2.9856 c 0,0 -0.76123,-2.16116 -1.227616,-2.9856"
       style="fill:#f4d283;fill-opacity:1;fill-rule:nonzero;stroke:none"
       id="path2078"
       inkscape:connector-curvature="0" />
    <path
       d="m 52.716407,31.041109 c 0,0 0.772984,-0.99231 1.466686,-1.49917 0.708116,-0.51728 3.196503,-2.78423 3.196503,-2.78423 0,0 -2.191657,1.93662 -3.065547,2.53839 -0.874223,0.60278 -1.69633,1.21132 -1.597642,1.74501"
       style="fill:#b3712b;fill-opacity:1;fill-rule:nonzero;stroke:none"
       id="path2080"
       inkscape:connector-curvature="0" />
    <path
       d="m 53.616356,29.475739 c 0,0 1.416344,-1.03523 1.992617,-1.54165 0.576716,-0.50674 1.678032,-1.52645 1.678032,-1.52645 l -3.670649,3.0681"
       style="fill:#b3712b;fill-opacity:1;fill-rule:nonzero;stroke:none"
       id="path2082"
       inkscape:connector-curvature="0" />
    <path
       d="m 55.465154,23.477599 c 0,0 1.003293,-1.31821 1.802446,-1.95547 0.799376,-0.63737 1.740796,-1.62381 1.740796,-1.62381 0,0 -1.72261,1.93906 -3.543242,3.57928"
       style="fill:#b3712b;fill-opacity:1;fill-rule:nonzero;stroke:none"
       id="path2084"
       inkscape:connector-curvature="0" />
    <path
       d="m 55.232182,18.148759 c 0,0 -0.417041,-1.69422 -0.57849,-2.13122 -0.161339,-0.43689 -0.211348,-1.9048 -0.211348,-1.9048 0,0 0.379118,2.52565 0.955502,3.95086 l -0.165664,0.0852"
       style="fill:#b3712b;fill-opacity:1;fill-rule:nonzero;stroke:none"
       id="path2086"
       inkscape:connector-curvature="0" />
    <path
       d="m 54.769568,14.464359 c 0,0 0.257144,1.7276 0.533249,2.30875 l -0.533249,-2.30875"
       style="fill:#b3712b;fill-opacity:1;fill-rule:nonzero;stroke:none"
       id="path2088"
       inkscape:connector-curvature="0" />
    <path
       d="m 57.090738,15.677899 c 0,0 1.38596,-1.48299 1.854564,-1.95026 0.467605,-0.46705 0.911369,-1.19834 0.911369,-1.19834 0,0 -2.567226,2.75373 -2.765933,3.1486"
       style="fill:#b3712b;fill-opacity:1;fill-rule:nonzero;stroke:none"
       id="path2090"
       inkscape:connector-curvature="0" />
    <path
       d="m 57.81083,11.426979 c 0,0 -0.08849,-1.10741 -0.03327,-1.6227 0.05578,-0.51595 0.196711,-1.33495 0.196711,-1.33495 l -0.163445,2.95765"
       style="fill:#b3712b;fill-opacity:1;fill-rule:nonzero;stroke:none"
       id="path2092"
       inkscape:connector-curvature="0" />
    <path
       d="m 52.821194,17.525919 c 0,0 0.787512,1.16352 1.082688,2.29478 0.294624,1.13114 0.25027,1.54419 0.25027,1.54419 l -0.181853,0.4747 c 0,0 -0.124524,-1.5035 -0.349955,-2.31285 -0.225209,-0.81024 -0.80115,-2.00082 -0.80115,-2.00082"
       style="fill:#b3712b;fill-opacity:1;fill-rule:nonzero;stroke:none"
       id="path2094"
       inkscape:connector-curvature="0" />
    <path
       d="m 46.56591,49.329489 c 0,0 -1.804554,-3.58105 -2.171253,-4.34805 -0.367143,-0.76833 -0.838407,-2.01812 -0.838407,-2.01812 0,0 1.488862,2.87749 2.019894,3.93855 0.530921,1.06173 0.989766,2.42762 0.989766,2.42762"
       style="fill:#f4d283;fill-opacity:1;fill-rule:nonzero;stroke:none"
       id="path2096"
       inkscape:connector-curvature="0" />
    <path
       d="m 44.208147,42.726579 c 0,0 1.710856,4.07915 1.940167,4.67361 0.229201,0.59512 0.540457,1.51315 0.540457,1.51315 0,0 -0.737279,-2.77004 -2.480624,-6.18676"
       style="fill:#f4d283;fill-opacity:1;fill-rule:nonzero;stroke:none"
       id="path2098"
       inkscape:connector-curvature="0" />
    <path
       d="m 43.941245,47.003659 c 0,0 1.110188,0.95329 1.701209,2.17824 0,0 -0.03648,-0.92478 -1.701209,-2.17824"
       style="fill:#f4d283;fill-opacity:1;fill-rule:nonzero;stroke:none"
       id="path2100"
       inkscape:connector-curvature="0" />
    <path
       d="m 48.971464,48.613499 c 0,0 0.525044,-1.05496 1.345488,-0.86036 0.82,0.19461 0.974685,1.66196 0.807692,1.93584 0,0 0.117206,-1.15398 -0.867682,-1.74711 -0.60599,-0.36493 -1.285498,0.67163 -1.285498,0.67163"
       style="fill:#f4d283;fill-opacity:1;fill-rule:nonzero;stroke:none"
       id="path2102"
       inkscape:connector-curvature="0" />
    <path
       d="m 48.678283,48.069939 c 0,0 1.167072,-1.56681 2.15717,-2.03797 0.990431,-0.47126 1.467684,-0.004 1.786702,0.48402 0,0 -0.949515,-1.89371 -3.943872,1.55395"
       style="fill:#f4d283;fill-opacity:1;fill-rule:nonzero;stroke:none"
       id="path2104"
       inkscape:connector-curvature="0" />
    <path
       d="m 49.763854,46.532839 c 0,0 1.284168,-1.37675 2.518214,-1.93739 0,0 -1.269752,0.34075 -2.518214,1.93739"
       style="fill:#f4d283;fill-opacity:1;fill-rule:nonzero;stroke:none"
       id="path2106"
       inkscape:connector-curvature="0" />
    <path
       d="m 50.167256,44.974459 c 0,0 1.694888,-1.56383 3.079185,-2.24355 0,0 -2.278812,1.53421 -3.079185,2.24355"
       style="fill:#f4d283;fill-opacity:1;fill-rule:nonzero;stroke:none"
       id="path2108"
       inkscape:connector-curvature="0" />
    <path
       d="m 47.333461,41.683479 c 0,0 -1.46846,-3.24773 -1.915218,-4.90636 0,0 1.798566,4.53977 1.915218,4.90636"
       style="fill:#f4d283;fill-opacity:1;fill-rule:nonzero;stroke:none"
       id="path2110"
       inkscape:connector-curvature="0" />
    <path
       d="m 45.670397,39.509679 c 0,0 1.085127,2.63442 1.551845,3.74727 0,0 -0.960492,-2.69818 -1.551845,-3.74727"
       style="fill:#f4d283;fill-opacity:1;fill-rule:nonzero;stroke:none"
       id="path2112"
       inkscape:connector-curvature="0" />
    <path
       d="m 50.807288,40.681519 c 0,0 2.234681,-2.02899 3.669652,-2.99636 0,0 -3.566417,2.94978 -3.669652,2.99636"
       style="fill:#f4d283;fill-opacity:1;fill-rule:nonzero;stroke:none"
       id="path2114"
       inkscape:connector-curvature="0" />
    <path
       d="m 51.774322,36.623429 c 0,0 2.406332,-1.98907 3.563535,-2.55846 0,0 -1.06783,0.28608 -3.563535,2.55846"
       style="fill:#f4d283;fill-opacity:1;fill-rule:nonzero;stroke:none"
       id="path2116"
       inkscape:connector-curvature="0" />
    <path
       d="m 52.50506,35.475539 c 0,0 1.447502,-1.08368 1.96567,-1.35558 0,0 -1.020149,0.38932 -1.96567,1.35558"
       style="fill:#f4d283;fill-opacity:1;fill-rule:nonzero;stroke:none"
       id="path2118"
       inkscape:connector-curvature="0" />
    <path
       d="m 46.327062,56.950889 c -0.0044,0.5307 0.117428,1.21641 0.344078,2.26251 0.305158,1.41013 0.72353,2.461 0.8638,2.41942 0.0065,-0.0522 0.01076,-0.10878 0.0132,-0.16899 0,-0.0285 9.93e-4,-0.059 0.0017,-0.0945 -3.55e-4,-1.10242 -0.620073,-3.30661 -0.875221,-3.99643 -0.15646,-0.42381 -0.268566,-0.49998 -0.347516,-0.42203"
       style="fill:#c48900;fill-opacity:1;fill-rule:nonzero;stroke:none"
       id="path2120"
       inkscape:connector-curvature="0" />
    <path
       d="m 46.35179,57.011769 c -0.11133,0.17242 0.379561,2.18932 0.51839,2.71492 0.139051,0.52538 0.312254,1.094 0.398745,1.29016 0.08605,0.19637 0.165774,0.27433 0.141047,-0.0421 -0.02406,-0.31602 -0.337204,-1.76319 -0.636262,-2.79731 -0.29917,-1.03401 -0.398413,-1.20245 -0.42192,-1.16563"
       style="fill:#5d411f;fill-opacity:1;fill-rule:nonzero;stroke:none"
       id="path2122"
       inkscape:connector-curvature="0" />
    <path
       d="m 47.627307,30.338429 c 0,0 1.192466,2.72568 1.862548,4.97178 0,0 -0.25171,-2.01435 -1.862548,-4.97178"
       style="fill:#f4d283;fill-opacity:1;fill-rule:nonzero;stroke:none"
       id="path2124"
       inkscape:connector-curvature="0" />
    <path
       d="m 49.116947,32.968419 c 0,0 -0.876108,-2.27061 -1.594981,-3.58239 0,0 1.258886,2.10639 1.594981,3.58239"
       style="fill:#f4d283;fill-opacity:1;fill-rule:nonzero;stroke:none"
       id="path2126"
       inkscape:connector-curvature="0" />
    <path
       d="m 51.176205,28.639879 c 0,0 -1.180379,-2.59339 -1.784373,-3.76091 0,0 1.154986,1.859 1.784373,3.76091"
       style="fill:#f4d283;fill-opacity:1;fill-rule:nonzero;stroke:none"
       id="path2128"
       inkscape:connector-curvature="0" />
    <path
       d="m 49.947813,25.283369 c 0,0 0.862248,1.43386 1.191467,2.49072 0,0 -0.93277,-1.98974 -1.191467,-2.49072"
       style="fill:#f4d283;fill-opacity:1;fill-rule:nonzero;stroke:none"
       id="path2130"
       inkscape:connector-curvature="0" />
    <path
       d="m 54.425156,26.097269 c 0,0 2.727456,-2.78711 3.680519,-3.64148 0,0 -2.25475,1.79801 -3.680519,3.64148"
       style="fill:#f4d283;fill-opacity:1;fill-rule:nonzero;stroke:none"
       id="path2132"
       inkscape:connector-curvature="0" />
    <path
       d="m 55.102003,24.662189 2.10583,-2.10262 c 0,0 -1.410244,1.21808 -2.10583,2.10262"
       style="fill:#f4d283;fill-opacity:1;fill-rule:nonzero;stroke:none"
       id="path2134"
       inkscape:connector-curvature="0" />
    <path
       d="m 53.13245,22.367519 c 0,0 -0.906268,-2.71814 -1.118615,-3.16113 0,0 0.799487,1.53056 1.118615,3.16113"
       style="fill:#f4d283;fill-opacity:1;fill-rule:nonzero;stroke:none"
       id="path2136"
       inkscape:connector-curvature="0" />
    <path
       d="m 52.933411,20.829539 -0.818336,-2.081 c 0,0 0.66232,1.35758 0.818336,2.081"
       style="fill:#f4d283;fill-opacity:1;fill-rule:nonzero;stroke:none"
       id="path2138"
       inkscape:connector-curvature="0" />
    <path
       d="m 54.476718,18.138339 -0.940976,-2.87882 c 0,0 0.656776,1.64444 0.940976,2.87882"
       style="fill:#f4d283;fill-opacity:1;fill-rule:nonzero;stroke:none"
       id="path2140"
       inkscape:connector-curvature="0" />
    <path
       d="m 48.011194,50.439459 c 0,0 -0.785514,5.57478 -0.602442,7.50308 l 0.602442,-7.50308"
       style="fill:#f4d283;fill-opacity:1;fill-rule:nonzero;stroke:none"
       id="path2142"
       inkscape:connector-curvature="0" />
    <path
       d="m 48.8883,44.980439 c 0,0 1.613276,-8.16728 2.67911,-11.75022 l -2.67911,11.75022"
       style="fill:#f4d283;fill-opacity:1;fill-rule:nonzero;stroke:none"
       id="path2144"
       inkscape:connector-curvature="0" />
    <path
       d="m 56.325959,18.407789 3.247731,-3.0131 c 0,0 -2.375281,1.94073 -3.247731,3.0131"
       style="fill:#d69757;fill-opacity:1;fill-rule:nonzero;stroke:none"
       id="path2146"
       inkscape:connector-curvature="0" />
    <path
       d="m 57.449231,16.946759 c 0,0 1.15177,-1.48343 1.905571,-1.94327 l -1.905571,1.94327"
       style="fill:#d69757;fill-opacity:1;fill-rule:nonzero;stroke:none"
       id="path2148"
       inkscape:connector-curvature="0" />
    <path
       d="m 56.118603,13.813239 -0.486012,-1.7806 c 0,0 0.478139,1.12726 0.486012,1.7806"
       style="fill:#d69757;fill-opacity:1;fill-rule:nonzero;stroke:none"
       id="path2150"
       inkscape:connector-curvature="0" />
    <path
       d="m 56.322189,13.132289 -0.26047,-1.20577 c 0,0 0.328222,0.822 0.26047,1.20577"
       style="fill:#d69757;fill-opacity:1;fill-rule:nonzero;stroke:none"
       id="path2152"
       inkscape:connector-curvature="0" />
    <path
       d="m 58.577272,9.708479 c 0,0 0.488674,-1.68536 0.595456,-2.43018 0.106339,-0.74515 0.166551,-1.78237 0.166551,-1.78237 0,0 0.232083,2.07722 -0.762007,4.21255"
       style="fill:#b3712b;fill-opacity:1;fill-rule:nonzero;stroke:none"
       id="path2154"
       inkscape:connector-curvature="0" />
    <path
       d="m 58.073851,11.170499 c 0,0 0.70978,-1.97953 0.762339,-3.43557 0.02495,-0.67673 -0.03748,-1.10154 -0.03748,-1.10154 0.02284,1.96124 -0.72486,4.53711 -0.72486,4.53711"
       style="fill:#d69757;fill-opacity:1;fill-rule:nonzero;stroke:none"
       id="path2156"
       inkscape:connector-curvature="0" />
    <path
       d="m 54.791301,23.071979 c 0,0 0.720646,-1.11662 3.100475,-3.34409 0,0 -2.325827,1.97254 -3.16357,3.2057 l 0.06309,0.13839"
       style="fill:#b3712b;fill-opacity:1;fill-rule:nonzero;stroke:none"
       id="path2158"
       inkscape:connector-curvature="0" />
    <path
       d="m 54.684296,23.698929 c 0,0 0.886421,-1.20145 1.522461,-1.89682 0,0 -1.298028,1.38752 -1.648427,1.85623 -0.350509,0.46772 0.125966,0.0406 0.125966,0.0406"
       style="fill:#b3712b;fill-opacity:1;fill-rule:nonzero;stroke:none"
       id="path2160"
       inkscape:connector-curvature="0" />
    <path
       d="m 53.872614,32.051719 c 0,0 1.858665,-1.50505 2.161494,-1.76984 0.302274,-0.2648 0.838407,-0.7629 0.838407,-0.7629 0,0 -0.974796,1.17772 -2.999901,2.53274"
       style="fill:#b3712b;fill-opacity:1;fill-rule:nonzero;stroke:none"
       id="path2162"
       inkscape:connector-curvature="0" />
    <path
       d="m 47.911398,28.556609 c 0,0 1.029905,1.93628 1.347704,2.97938 0,0 -0.148808,-1.03644 -1.347704,-2.97938"
       style="fill:#b3712b;fill-opacity:1;fill-rule:nonzero;stroke:none"
       id="path2164"
       inkscape:connector-curvature="0" />
    <path
       d="m 47.978704,28.173269 c 0,0 0.748147,1.40637 1.03656,2.11936 0,0 -0.185622,-0.81867 -1.03656,-2.11936"
       style="fill:#b3712b;fill-opacity:1;fill-rule:nonzero;stroke:none"
       id="path2166"
       inkscape:connector-curvature="0" />
    <path
       d="m 47.324257,48.831169 c 0,0 0.14016,-2.02045 -1.832275,-5.85598 0,0 1.198009,1.76629 1.95436,5.08688 l -0.122085,0.7691"
       style="fill:#b3712b;fill-opacity:1;fill-rule:nonzero;stroke:none"
       id="path2168"
       inkscape:connector-curvature="0" />
    <path
       d="m 46.378735,56.339349 c 0,0 -0.258142,1.39273 -0.289855,1.66262 -0.03194,0.26979 -0.04458,0.80071 0.106893,1.51404 0.151803,0.71355 0.36426,2.07633 0.531254,2.57554 0.166772,0.49899 0.296065,1.08424 0.443432,1.32264 0.14781,0.2383 0.173092,0.23386 0.14781,0.2383 -0.02573,0.005 -0.111662,-0.0331 -0.209684,0.0105 -0.09791,0.0435 0.134171,0.16145 0.385549,0.0907 0.251822,-0.0709 0.538683,-0.0943 0.850271,-0.12264 0.312588,-0.0285 -0.112437,-0.1915 -0.389763,-0.11643 -0.277768,0.075 -0.443099,-0.2658 -0.450196,-0.60799 -0.0075,-0.34219 0.09082,-2.35887 0.15513,-2.88136 0.07562,-0.62108 0.171872,-1.87963 0.216116,-2.23102 0.04391,-0.35107 0.01031,-1.74612 0.02628,-1.96002 0.01541,-0.21401 0.01541,-1.11274 -0.01619,-0.84295 -0.03193,0.26989 -0.173425,1.72183 -0.226538,2.02155 -0.053,0.29984 -0.189061,0.87922 -0.281318,1.10653 -0.09226,0.22765 -0.223878,-0.67363 -0.136279,-0.92767 0.0876,-0.25282 0.139384,-0.71122 0.06531,-0.83053 -0.07385,-0.11865 -0.303051,0.0801 -0.245834,0.25492 0.057,0.17465 -0.0713,0.64658 -0.139161,0.71123 -0.06831,0.0651 -0.150916,-0.10546 -0.177972,-0.25926 -0.02683,-0.15379 -0.284532,-0.26756 -0.196933,-0.52038 0.08771,-0.25304 -0.106672,-0.45685 -0.168324,-0.20836"
       style="fill:#000000;fill-opacity:1;fill-rule:nonzero;stroke:none"
       id="path2170"
       inkscape:connector-curvature="0" />
    <path
       d="m 46.162619,58.120949 c 0,0 0.187064,-0.13827 0.475921,0.60378 0.288525,0.74193 0.45197,1.82318 0.495326,2.37096 0.0428,0.54711 0.171651,1.58167 0.142045,1.11129 -0.02994,-0.4706 -0.113658,-2.75495 -0.501203,-3.61166 -0.388655,-0.85681 -0.4156,-1.01072 -0.357939,-1.28505 0.05711,-0.27422 -0.06786,-0.38411 -0.163224,-0.0243 -0.09514,0.36049 -0.198153,0.82765 -0.09093,0.83496"
       style="fill:#c6c6c6;fill-opacity:1;fill-rule:nonzero;stroke:none"
       id="path2172"
       inkscape:connector-curvature="0" />
    <path
       d="m 46.146762,58.784719 c 0,0 0.20913,1.29281 0.324008,1.8458 0.114545,0.55254 0.226761,0.99054 0.300167,1.20699 0.07285,0.21623 0.207911,0.68516 0.205472,0.5714 -0.0026,-0.114 -0.379119,-1.3079 -0.507746,-2.0423 -0.129404,-0.73495 -0.234634,-1.38629 -0.18784,-1.421 0.04657,-0.0342 -0.08605,-0.38998 -0.134061,-0.16089"
       style="fill:#575757;fill-opacity:1;fill-rule:nonzero;stroke:none"
       id="path2174"
       inkscape:connector-curvature="0" />
    <path
       d="m 46.301115,57.304499 c 0,0 -0.102237,0.37014 -0.118648,0.47848 -0.01586,0.10866 0.02772,0.20646 0.09736,0.20292 0.06986,-0.003 0.381447,0.56751 0.46572,0.79937 0.08505,0.23186 0.23541,0.93654 0.288635,1.34083 0,0 0.02229,-0.72619 -0.288968,-1.44617 -0.3117,-0.72076 -0.464389,-0.79084 -0.428351,-1.03501 0.03626,-0.24406 0.05522,-0.53824 -0.01575,-0.34042"
       style="fill:#ffffff;fill-opacity:1;fill-rule:nonzero;stroke:none"
       id="path2176"
       inkscape:connector-curvature="0" />
    <path
       d="m 47.65514,57.841739 c 0,0 -0.139716,1.51315 -0.181963,1.92587 -0.04214,0.41227 0.0052,1.78692 -0.01929,2.04662 -0.02506,0.25969 -0.02118,0.58525 -0.0255,0.70933 -0.0049,0.12419 -0.01963,0.39087 9.94e-4,0.45763 0.0204,0.0669 -0.08161,-0.36471 -0.05888,-0.53558 0.02284,-0.17154 0.05766,-1.42832 0.01275,-1.68458 -0.04513,-0.25681 -0.111108,-1.13414 -0.165774,-1.34515 -0.05433,-0.21035 0.0095,-0.39797 0.07507,-0.27755 0.06509,0.12065 0.175643,0.0489 0.18529,-0.29673 0.01031,-0.34508 0.0672,-0.67208 0.08339,-0.78097 0.01652,-0.10833 0.179192,-0.73606 0.09392,-0.21889"
       style="fill:#3e3e3e;fill-opacity:1;fill-rule:nonzero;stroke:none"
       id="path2178"
       inkscape:connector-curvature="0" />
    <path
       d="m 37.937671,65.929079 c -0.380892,0.0243 -1.044987,0.15336 -1.378975,-0.0275 0.309815,-0.30005 1.241698,-0.15945 1.664173,-0.14182 0.882318,0.0373 1.700876,0.003 2.577206,-0.0817 0.807469,-0.0782 1.588659,0.0763 2.398568,0.0657 0.993426,-0.0124 1.96922,-0.0915 2.956546,-0.17065 1.040441,-0.0832 2.171364,-0.0542 3.132633,0.0825 -0.538573,-0.0616 -1.009172,0.0356 -1.538428,0.0561 -0.438998,0.0172 -0.856815,-0.0872 -1.279622,-0.073 -0.471597,0.0158 -0.920241,0.17809 -1.397714,0.21235 -0.453301,0.0323 -0.881985,-0.002 -1.328966,10e-4 -1.032346,0.007 -2.02699,-0.0689 -3.065879,0.0391 -0.606766,0.0632 -1.222626,-0.01 -1.827618,0.0333 -0.380227,0.0267 -0.694477,0.12375 -1.041771,0.009 l 0.129847,-0.005"
       style="fill:#000000;fill-opacity:1;fill-rule:nonzero;stroke:none"
       id="path2180"
       inkscape:connector-curvature="0" />
    <path
       d="m 60.877153,64.763789 c -0.187842,0.0372 -0.428462,0.18617 -0.271449,0.21622 0.15768,0.0301 1.077033,0.0201 1.406363,-0.007 0.328777,-0.0273 0.703238,-0.28131 0.336982,-0.33997 -0.366366,-0.0584 -1.26454,0.0897 -1.471896,0.13062"
       style="fill:#000000;fill-opacity:1;fill-rule:nonzero;stroke:none"
       id="path2182"
       inkscape:connector-curvature="0" />
    <path
       d="m 60.634313,65.343939 c -0.208244,-0.007 -0.428241,0.20325 -0.254704,0.19837 0.173647,-0.005 0.532583,-0.18928 0.254704,-0.19837"
       style="fill:#000000;fill-opacity:1;fill-rule:nonzero;stroke:none"
       id="path2184"
       inkscape:connector-curvature="0" />
    <path
       d="m 61.878451,65.150549 c -0.156017,-0.0103 -0.464944,0.13529 -0.274,0.12974 0.190725,-0.006 0.813125,-0.0937 0.274,-0.12974"
       style="fill:#000000;fill-opacity:1;fill-rule:nonzero;stroke:none"
       id="path2186"
       inkscape:connector-curvature="0" />
    <path
       d="m 60.050721,63.225689 c -0.189725,-0.0257 -0.275329,0.0776 -0.170653,0.10955 0.105452,0.0315 0.275108,-0.0955 0.170653,-0.10955"
       style="fill:#000000;fill-opacity:1;fill-rule:nonzero;stroke:none"
       id="path2188"
       inkscape:connector-curvature="0" />
    <path
       d="m 41.037925,65.992839 c -0.157347,-0.005 -0.08317,0.12419 0.02096,0.12098 0.104011,-0.003 0.239513,-0.111 -0.02096,-0.12098"
       style="fill:#000000;fill-opacity:1;fill-rule:nonzero;stroke:none"
       id="path2190"
       inkscape:connector-curvature="0" />
    <path
       d="m 36.364314,66.164829 c -0.09082,-0.0642 -1.058848,0.64469 -1.114291,0.64646 -0.05589,0.002 0.860473,-0.43445 0.988879,-0.49389 0.128405,-0.0594 0.201257,-0.0988 0.125412,-0.15257"
       style="fill:#000000;fill-opacity:1;fill-rule:nonzero;stroke:none"
       id="path2192"
       inkscape:connector-curvature="0" />
    <path
       d="m 36.517558,66.309199 c -0.056,0.002 -0.162226,0.17176 -0.106451,0.17043 0.05578,-0.002 0.106451,-0.17043 0.106451,-0.17043"
       style="fill:#000000;fill-opacity:1;fill-rule:nonzero;stroke:none"
       id="path2194"
       inkscape:connector-curvature="0" />
    <path
       d="m 35.235941,65.943719 c 0,0 -2.571994,0.39187 -2.72169,0.3596 -0.149696,-0.033 2.221041,-0.326 2.404889,-0.38732 0.184292,-0.0611 0.3718,0.007 0.316801,0.0277"
       style="fill:#000000;fill-opacity:1;fill-rule:nonzero;stroke:none"
       id="path2196"
       inkscape:connector-curvature="0" />
    <path
       d="m 35.516814,66.010029 c -0.09292,0.003 -1.091559,0.16189 -1.202666,0.18396 -0.111108,0.0218 0.873225,-0.007 0.983445,-0.0477 0.110553,-0.0405 0.219221,-0.13628 0.219221,-0.13628"
       style="fill:#000000;fill-opacity:1;fill-rule:nonzero;stroke:none"
       id="path2198"
       inkscape:connector-curvature="0" />
    <path
       d="m 35.910126,66.109489 c -0.05567,0.002 -0.144041,0.15292 -0.03271,0.14959 0.11133,-0.003 0.03271,-0.14959 0.03271,-0.14959"
       style="fill:#000000;fill-opacity:1;fill-rule:nonzero;stroke:none"
       id="path2200"
       inkscape:connector-curvature="0" />
    <path
       d="m 41.632383,64.276659 c -0.01009,-0.0599 -0.541788,0.28321 -0.560527,0.27544 -0.01863,-0.008 0.41316,-0.1671 0.47326,-0.1885 0.06021,-0.021 0.09569,-0.037 0.08727,-0.0869"
       style="fill:#000000;fill-opacity:1;fill-rule:nonzero;stroke:none"
       id="path2202"
       inkscape:connector-curvature="0" />
    <path
       d="m 41.864467,63.819699 c 0,0 -0.958053,-0.13716 -0.996974,-0.18384 -0.03881,-0.0471 0.82377,0.12718 0.90261,0.11332 0.07817,-0.0132 0.118758,0.065 0.09436,0.0705"
       style="fill:#000000;fill-opacity:1;fill-rule:nonzero;stroke:none"
       id="path2204"
       inkscape:connector-curvature="0" />
    <path
       d="m 41.875888,63.960749 c -0.03316,-0.006 -0.409058,0.0271 -0.451527,0.034 -0.04236,0.007 0.309261,0.0702 0.354502,0.0495 0.04458,-0.0207 0.09703,-0.0835 0.09703,-0.0835"
       style="fill:#000000;fill-opacity:1;fill-rule:nonzero;stroke:none"
       id="path2206"
       inkscape:connector-curvature="0" />
    <path
       d="m 41.404845,64.126189 c -0.0084,-0.0184 -0.126077,-0.002 -0.109555,0.0343 0.01674,0.0368 0.109555,-0.0343 0.109555,-0.0343"
       style="fill:#000000;fill-opacity:1;fill-rule:nonzero;stroke:none"
       id="path2208"
       inkscape:connector-curvature="0" />
    <path
       d="m 32.884055,66.868169 c -0.313363,-0.0531 -0.494329,0.25648 -0.310037,0.19538 0.184181,-0.0614 0.403957,-0.1793 0.310037,-0.19538"
       style="fill:#000000;fill-opacity:1;fill-rule:nonzero;stroke:none"
       id="path2210"
       inkscape:connector-curvature="0" />
    <path
       d="m 37.600135,66.561019 c -0.284533,0.015 -0.38688,-0.006 -0.654004,0.0598 -0.25038,0.0612 -0.509298,0.091 -0.765001,0.13805 -0.153244,0.0279 -0.47326,0.0709 -0.583924,0.16511 -0.26668,0.22743 0.221661,0.29318 0.473371,0.31403 0.738721,0.0611 1.428319,-0.13173 2.149742,-0.12076 0.362374,0.006 0.57339,-0.12186 0.914363,-0.18285 0.331548,-0.0596 0.687159,-0.0369 1.021701,-0.096 0.08616,-0.0151 0.418594,-0.067 0.452525,-0.13795 0.05655,-0.12064 -0.40063,-0.13029 -0.51207,-0.13472 -0.445207,-0.0175 -0.885866,0.0221 -1.328855,-0.0141 -0.27289,-0.0221 -0.549771,-0.0785 -0.839737,-0.051 -0.146037,0.0137 -0.328111,0.0604 -0.328111,0.0604"
       style="fill:#000000;fill-opacity:1;fill-rule:nonzero;stroke:none"
       id="path2212"
       inkscape:connector-curvature="0" />
    <path
       d="m 36.961766,66.998689 c 0,0 0.0099,-0.26702 0.04358,-0.29951 0.03404,-0.0328 0.145149,-0.0743 0.232084,-0.0768 0.08671,-0.003 0.397968,-0.0374 0.544892,-0.0604 0.146924,-0.0235 0.320571,-0.0287 0.503643,-0.002 0.182851,0.0265 0.765,0.0473 1.120722,0.0367 0.355389,-0.0105 0.675959,-0.0264 0.798155,-0.0109 0.122085,0.0155 0.323343,0.0664 0.270894,0.0681 -0.05178,10e-4 -0.643248,-0.0317 -0.989101,0.004 -0.346407,0.0355 -0.718982,0.053 -1.187696,0.054 -0.468825,0.001 -0.763005,0.0166 -0.960714,0.092 -0.197377,0.0757 -0.376457,0.19516 -0.376457,0.19516"
       style="fill:#575757;fill-opacity:1;fill-rule:nonzero;stroke:none"
       id="path2214"
       inkscape:connector-curvature="0" />
    <path
       d="m 36.520662,66.745309 c 0,0 0.125856,0.1487 0.135835,0.18629 0.0098,0.0377 0.02007,0.0946 0.02007,0.0946 0,0 -0.157791,-0.0523 -0.287749,-0.0421 -0.129736,0.01 -0.363927,0.0235 -0.493441,0.0398 -0.129958,0.0167 -0.345631,0.0547 -0.295178,-0.004 0.05045,-0.0583 0.135059,-0.12464 0.480357,-0.19183 0.344966,-0.0672 0.440105,-0.0826 0.440105,-0.0826"
       style="fill:#575757;fill-opacity:1;fill-rule:nonzero;stroke:none"
       id="path2216"
       inkscape:connector-curvature="0" />
    <path
       d="m 37.181541,66.640189 c -0.0825,0.002 -0.145704,0.0578 -0.166328,0.0999 -0.0204,0.0421 0.0074,0.10745 0.0074,0.10745 0,0 0.200925,-0.11687 0.356276,-0.13417 0.155683,-0.0173 0.427132,-0.0854 0.679175,-0.077 0.25171,0.008 0.551324,0.009 0.68605,0.0115 0.134615,0.002 0.333987,-0.01 0.333987,-0.01 0,0 -0.525598,-0.0134 -0.751694,-0.0384 -0.226983,-0.0251 -0.48202,-0.001 -0.720424,0.0152 -0.237961,0.0163 -0.402294,0.0245 -0.424471,0.0254"
       style="fill:#c6c6c6;fill-opacity:1;fill-rule:nonzero;stroke:none"
       id="path2218"
       inkscape:connector-curvature="0" />
    <path
       d="m 36.598726,66.904539 c 0,0 -0.0856,-0.11487 -0.09448,-0.12397 -0.009,-0.009 -0.189836,0.0313 -0.298282,0.0437 -0.108003,0.0128 -0.418483,0.0823 -0.477807,0.11898 -0.05966,0.0367 -0.055,0.0587 -0.03781,0.0486 0.01719,-0.01 0.35306,-0.10235 0.439329,-0.11144 0.0866,-0.009 0.256257,-0.004 0.312365,3.6e-4 0.05666,0.005 0.156682,0.0238 0.156682,0.0238"
       style="fill:#c6c6c6;fill-opacity:1;fill-rule:nonzero;stroke:none"
       id="path2220"
       inkscape:connector-curvature="0" />
    <path
       d="m 35.856235,67.170999 c 0,0 0.42813,0.0953 1.033566,0.0202 0.605214,-0.075 1.081801,-0.11421 1.263986,-0.10722 0.182296,0.007 0.389431,-0.0368 0.613198,-0.10069 0.223878,-0.0636 0.699245,-0.14115 0.889858,-0.14049 0.190723,5.3e-4 0.389985,-0.0243 0.536576,-0.0475 0.147145,-0.0235 0.318464,-0.0986 0.318464,-0.0986 0,0 -0.327113,0.0989 -0.630496,0.1079 -0.303606,0.009 -0.840292,0.0563 -1.193131,0.15579 -0.352949,0.0993 -0.838407,0.11355 -1.141568,0.13517 -0.30294,0.022 -1.054856,0.14548 -1.690453,0.0754"
       style="fill:#575757;fill-opacity:1;fill-rule:nonzero;stroke:none"
       id="path2222"
       inkscape:connector-curvature="0" />
    <path
       d="m 49.56681,65.601529 c 0.155129,-0.039 0.762117,-0.0569 0.968032,-0.13262 0.206248,-0.0756 -1.159088,-0.45186 -1.421222,-0.5134 -0.262134,-0.0618 -5.024675,-0.26779 -5.842236,-0.33055 -0.817893,-0.0623 -1.771288,-0.60677 -1.408581,-0.66986 0.362597,-0.0629 1.623367,-0.27367 1.814867,-0.26214 0.191388,0.0115 1.486534,-0.21744 1.798012,-0.24406 0.31181,-0.0264 2.834572,0.17653 3.285876,0.16278 0.450861,-0.0132 1.648649,-0.0139 1.199672,0.0687 -0.448976,0.0828 -2.357208,0.12209 -3.091826,-0.0648 -0.734618,-0.18628 -2.307088,0.0511 -2.618233,0.0951 -0.311367,0.0439 -1.038889,0.10024 -1.209653,0.19184 -0.170764,0.0918 -0.411718,0.15136 -0.269008,0.28575 0.142821,0.1345 -0.101793,0.0899 0.05766,0.18939 0.1589,0.0992 1.013607,0.23009 1.37709,0.20215 0.363816,-0.0282 2.431058,0.0147 2.779683,0.0741 0.348957,0.0591 0.870785,0.0958 1.479327,0.12951 0.608872,0.0343 1.337392,0.0301 1.790471,0.0861 0.45319,0.056 0.789506,0.27178 1.086347,0.33244 0.296841,0.0608 0.52826,0.26213 0.393645,0.40517 -0.134505,0.14249 -0.538018,-0.002 -0.865796,0.0775 -0.327446,0.0791 -1.333623,0.0914 -1.491191,0.0442 -0.157679,-0.0473 -1.183151,-0.0867 -0.993315,-0.12696 0.189726,-0.0404 1.180379,-4.4e-4 1.180379,-4.4e-4"
       style="fill:#000000;fill-opacity:1;fill-rule:nonzero;stroke:none"
       id="path2224"
       inkscape:connector-curvature="0" />
    <path
       d="m 50.662694,63.625319 c 0.09425,-0.009 2.173581,-0.0256 2.731558,-0.0808 0.55831,-0.056 2.690975,-0.14515 3.340099,-0.20315 0.649347,-0.0584 1.323976,0.31226 1.792024,0.28564 0.467827,-0.0273 2.455898,0.27844 2.73422,0.45253 0.278656,0.17398 -0.337093,0.47858 -0.570174,0.5246 -0.23297,0.0461 -0.718539,-0.0825 -0.809687,-0.0801 -0.09082,0.003 0.397193,0.22266 0.979896,0.1141 0.582594,-0.10844 0.885867,-0.41671 0.790061,-0.58326 -0.09614,-0.16633 -1.067052,-0.42402 -1.367886,-0.46738 -0.300833,-0.0428 -1.476,-0.16422 -1.855562,-0.23131 -0.37945,-0.0667 -1.035672,-0.24262 -1.321314,-0.20813 -0.285198,0.0344 -0.653338,-0.0849 -1.029351,-0.0347 -0.376014,0.0502 -2.20463,0.29984 -2.738767,0.27622 -0.53458,-0.0232 -1.963231,0.0971 -2.183894,0.11665 -0.220774,0.0199 -0.699135,0.13794 -0.491223,0.11909"
       style="fill:#000000;fill-opacity:1;fill-rule:nonzero;stroke:none"
       id="path2226"
       inkscape:connector-curvature="0" />
    <path
       d="m 52.034239,65.460479 c -0.04735,0.0336 -0.09381,0.14282 -0.09381,0.14282 0,0 0.163334,0.11277 0.222104,0.11687 0.05866,0.004 0.338423,0.0652 0.378674,0.0823 0.04014,0.0175 -0.08549,-0.0613 -0.191278,-0.0929 -0.105895,-0.0317 -0.147035,-0.10933 -0.147035,-0.10933 0,0 0.38289,0.049 0.481578,0.0705 0.09891,0.0215 0.345852,0.0752 0.345852,0.0752 0,0 -0.341528,-0.10845 -0.495216,-0.16777 -0.153132,-0.0592 -0.300166,-0.0311 -0.251821,-0.0806 0.04846,-0.0496 0.429349,-0.12142 0.429349,-0.12142 0,0 -0.271669,0.01 -0.346739,0.002 -0.0754,-0.008 -0.275995,0.0429 -0.331659,0.0823"
       style="fill:#000000;fill-opacity:1;fill-rule:nonzero;stroke:none"
       id="path2228"
       inkscape:connector-curvature="0" />
    <path
       d="m 51.891751,65.540979 c -0.03449,0.004 -0.05023,0.0406 -0.04679,0.0587 0.0032,0.0177 0.05611,0.0465 0.06897,0.058 0.01264,0.0113 -0.04458,-0.0498 -0.01996,-0.0674 0.02484,-0.0175 -0.0022,-0.0492 -0.0022,-0.0492"
       style="fill:#000000;fill-opacity:1;fill-rule:nonzero;stroke:none"
       id="path2230"
       inkscape:connector-curvature="0" />
    <path
       d="m 51.926236,65.399599 c -0.02251,0.0159 -0.04635,0.0332 -0.02717,0.0602 0.01896,0.0269 0.06808,0.0632 0.07784,0.031 0.0096,-0.0323 0.07973,-0.0974 0.0998,-0.10146 0.0204,-0.004 -0.125855,-0.007 -0.150472,0.0102"
       style="fill:#000000;fill-opacity:1;fill-rule:nonzero;stroke:none"
       id="path2232"
       inkscape:connector-curvature="0" />
    <path
       d="m 52.349598,65.211209 c -0.02839,-9e-5 -0.06254,0.0495 -0.03792,0.0578 0.02439,0.008 0.14903,8e-4 0.159787,-0.0167 0.01075,-0.0178 -0.10767,-0.0407 -0.121864,-0.041"
       style="fill:#000000;fill-opacity:1;fill-rule:nonzero;stroke:none"
       id="path2234"
       inkscape:connector-curvature="0" />
    <path
       d="m 52.84193,65.152329 c -0.02484,-1.8e-4 -0.02949,0.0564 -0.02949,0.0564 0,0 0.141823,-0.0548 0.02949,-0.0564"
       style="fill:#000000;fill-opacity:1;fill-rule:nonzero;stroke:none"
       id="path2236"
       inkscape:connector-curvature="0" />
    <path
       d="m 52.989408,65.596649 c -0.03127,-0.001 0.125522,0.079 0.192942,0.0819 0.0672,0.003 -0.08328,-0.078 -0.192942,-0.0819"
       style="fill:#000000;fill-opacity:1;fill-rule:nonzero;stroke:none"
       id="path2238"
       inkscape:connector-curvature="0" />
    <path
       d="m 52.112856,66.030099 c -0.04114,-0.0299 0.08971,0.1396 0.131622,0.16588 0.04169,0.0263 -0.06442,-0.11698 -0.131622,-0.16588"
       style="fill:#000000;fill-opacity:1;fill-rule:nonzero;stroke:none"
       id="path2240"
       inkscape:connector-curvature="0" />
    <path
       d="m 51.693376,65.752659 c -0.0048,0.039 0.01497,0.10634 0.03548,0.1222 0.02062,0.0161 -0.03548,-0.1222 -0.03548,-0.1222"
       style="fill:#000000;fill-opacity:1;fill-rule:nonzero;stroke:none"
       id="path2242"
       inkscape:connector-curvature="0" />
    <path
       d="m 51.443883,65.583899 c -0.02284,0.008 -0.03094,0.0679 -0.002,0.0624 0.02839,-0.005 0.01652,-0.0679 0.002,-0.0624"
       style="fill:#000000;fill-opacity:1;fill-rule:nonzero;stroke:none"
       id="path2244"
       inkscape:connector-curvature="0" />
    <path
       d="m 51.764232,65.046649 c -0.01885,0.004 -0.05511,0.0797 -0.03016,0.0622 0.02451,-0.0174 0.05034,-0.0663 0.03016,-0.0622"
       style="fill:#000000;fill-opacity:1;fill-rule:nonzero;stroke:none"
       id="path2246"
       inkscape:connector-curvature="0" />
    <path
       d="m 44.314486,66.442929 c -0.367364,-0.0225 -0.80503,0.0761 -1.217968,0.19227 -0.413271,0.11632 0.346628,0.276 0.968586,0.17964 0.62218,-0.0965 0.823438,-0.33687 0.249382,-0.37191"
       style="fill:#000000;fill-opacity:1;fill-rule:nonzero;stroke:none"
       id="path2248"
       inkscape:connector-curvature="0" />
    <path
       d="m 59.020039,64.176309 c -0.434561,-0.0143 -1.097214,-0.12375 -2.070126,-0.14725 -0.972911,-0.0231 -1.870088,0.15978 -2.443145,0.15934 -0.572725,-5.3e-4 0.670083,0.34452 1.555616,0.35328 0.885534,0.009 1.759313,0.20813 1.93429,0.25504 0.175089,0.0468 -0.06564,0.12341 -0.497766,0.18861 -0.432011,0.0648 -0.180411,0.35229 0.236852,0.37447 0.417485,0.0226 0.902277,-0.009 1.354026,-0.005 0.451193,0.004 0.951067,-0.11521 1.156981,-0.19061 0.206247,-0.076 -0.05921,-0.24151 -0.358604,-0.38876 -0.29917,-0.14748 -0.430791,-0.49067 -0.308485,-0.45963 0.122308,0.0312 -0.0037,-0.12119 -0.559639,-0.1396"
       style="fill:#000000;fill-opacity:1;fill-rule:nonzero;stroke:none"
       id="path2250"
       inkscape:connector-curvature="0" />
    <path
       d="m 60.069683,64.310259 c 0.176086,0.0424 -0.45441,0.0395 -0.320793,0.15269 0.133396,0.11299 0.2516,0.1355 0.499429,0.15435 0.24772,0.0185 0.377456,0.002 0.557755,-0.0686 0.179856,-0.0705 0.178083,-0.13528 -0.0047,-0.15602 -0.182851,-0.0208 -0.379119,-0.0538 -0.289966,-0.12164 0.08893,-0.0675 -0.58592,0.004 -0.441769,0.0393"
       style="fill:#000000;fill-opacity:1;fill-rule:nonzero;stroke:none"
       id="path2252"
       inkscape:connector-curvature="0" />
    <path
       d="m 49.594753,64.932659 c 0.108336,-0.0442 0.714991,-0.0341 0.874556,0.0784 0.159231,0.11222 0.448422,0.19483 0.605658,0.2292 0.157346,0.0344 0.354168,0.0807 0.420922,0.14382 0.06709,0.063 -0.165774,0.12197 -0.322123,0.11377 -0.156238,-0.009 -0.403291,0.012 -0.532917,0.0285 -0.129847,0.0171 -0.311478,0.0353 -0.311478,0.0353 0,0 0.206802,-0.058 0.322678,-0.10046 0.115875,-0.0424 0.0088,-0.14349 -0.150029,-0.21701 -0.158345,-0.0732 -0.460952,-0.19427 -0.630939,-0.21545 -0.169988,-0.0211 -0.379229,-0.0539 -0.276328,-0.096"
       style="fill:#2a2a2a;fill-opacity:1;fill-rule:nonzero;stroke:none"
       id="path2254"
       inkscape:connector-curvature="0" />
    <path
       d="m 50.770142,65.275519 c -0.08693,0.008 0.191499,0.0919 0.139827,0.11266 -0.05123,0.0211 -0.154353,0.0569 -0.0049,0.0459 0.149363,-0.011 0.27167,-0.0537 0.186399,-0.0835 -0.0856,-0.0299 -0.223989,-0.0847 -0.321347,-0.0751"
       style="fill:#656565;fill-opacity:1;fill-rule:nonzero;stroke:none"
       id="path2256"
       inkscape:connector-curvature="0" />
    <path
       d="m 50.077217,64.957389 c -0.06986,-0.006 -0.261468,-0.0379 -0.332657,-0.0226 -0.07119,0.0149 0.222326,0.0324 0.300943,0.0497 0.0784,0.0173 0.274997,0.0568 0.321347,0.0814 0.04635,0.0248 -0.0285,-0.0836 -0.289633,-0.10845"
       style="fill:#656565;fill-opacity:1;fill-rule:nonzero;stroke:none"
       id="path2258"
       inkscape:connector-curvature="0" />
    <path
       d="m 57.390352,65.127049 c 0.0016,0.052 0.05677,0.16366 0.67352,0.17985 0.616745,0.0163 1.345819,0.0208 1.630462,-0.0396 0.284977,-0.0604 0.561859,-0.0863 0.515064,-0.1976 -0.04668,-0.11144 -0.159342,-0.10789 -0.159342,-0.10789 0,0 0.159342,0.10789 -0.151137,0.17797 -0.31037,0.0699 -0.935432,0.0623 -1.273634,0.0723 -0.338202,0.0101 -0.7375,0.0132 -0.928557,0.002 -0.191388,-0.0116 -0.306376,-0.0866 -0.306376,-0.0866"
       style="fill:#656565;fill-opacity:1;fill-rule:nonzero;stroke:none"
       id="path2260"
       inkscape:connector-curvature="0" />
    <path
       d="m 54.508986,64.257589 c 0,0 0.568622,0.14814 1.003516,0.1874 0.435449,0.0391 1.13048,0.0619 1.653638,0.14215 0.523048,0.0798 0.654891,0.13661 0.794718,0.16722 0.139494,0.0306 0.150139,0.0914 0.150139,0.0914 0,0 0.01464,-0.0961 -0.08239,-0.15391 -0.09758,-0.0583 -0.814566,-0.24506 -1.587107,-0.24838 -0.772651,-0.003 -1.778163,-0.2424 -1.932516,-0.18585"
       style="fill:#656565;fill-opacity:1;fill-rule:nonzero;stroke:none"
       id="path2262"
       inkscape:connector-curvature="0" />
  </g>
</svg>
