<?xml version="1.0" encoding="UTF-8" standalone="no"?>
<!-- Created with Inkscape (http://www.inkscape.org/) -->

<svg
   xmlns:dc="http://purl.org/dc/elements/1.1/"
   xmlns:cc="http://creativecommons.org/ns#"
   xmlns:rdf="http://www.w3.org/1999/02/22-rdf-syntax-ns#"
   xmlns:svg="http://www.w3.org/2000/svg"
   xmlns="http://www.w3.org/2000/svg"
   xmlns:sodipodi="http://sodipodi.sourceforge.net/DTD/sodipodi-0.dtd"
   xmlns:inkscape="http://www.inkscape.org/namespaces/inkscape"
   width="200"
   height="200"
   id="svg2"
   version="1.1"
   inkscape:version="0.48.3.1 r9886"
   sodipodi:docname="default_album.svg"
   inkscape:export-filename="/home/edward/Projects/linnya-doc/icon/default_album.png"
   inkscape:export-xdpi="90"
   inkscape:export-ydpi="90">
  <defs
     id="defs4" />
  <sodipodi:namedview
     id="base"
     pagecolor="#ffffff"
     bordercolor="#666666"
     borderopacity="1.0"
     inkscape:pageopacity="0.0"
     inkscape:pageshadow="2"
     inkscape:zoom="1.4142136"
     inkscape:cx="122.04875"
     inkscape:cy="98.307341"
     inkscape:document-units="px"
     inkscape:current-layer="layer1"
     showgrid="false"
     inkscape:window-width="1366"
     inkscape:window-height="718"
     inkscape:window-x="-2"
     inkscape:window-y="-3"
     inkscape:window-maximized="1" />
  <metadata
     id="metadata7">
    <rdf:RDF>
      <cc:Work
         rdf:about="">
        <dc:format>image/svg+xml</dc:format>
        <dc:type
           rdf:resource="http://purl.org/dc/dcmitype/StillImage" />
        <dc:title></dc:title>
      </cc:Work>
    </rdf:RDF>
  </metadata>
  <g
     inkscape:label="Layer 1"
     inkscape:groupmode="layer"
     id="layer1"
     transform="translate(0,-852.36218)">
    <rect
       style="fill:#000000;fill-opacity:1;fill-rule:nonzero;stroke:none"
       id="rect3805"
       width="200"
       height="175.60976"
       x="0.54878163"
       y="852.36218" />
    <g
       id="g3710"
       transform="matrix(0.04429329,0,0,0.04429329,144.54339,972.23768)">
      <g
         transform="matrix(0.944583,0,0,0.944583,-174.78075,78.697139)"
         style="opacity:0.45606695;stroke:#f6f6f6;stroke-opacity:1"
         id="g3266">
        <path
           sodipodi:type="arc"
           style="fill:none;stroke:#f6f6f6;stroke-width:34.79999924;stroke-miterlimit:4;stroke-opacity:1;stroke-dasharray:none"
           id="path3260"
           sodipodi:cx="268.57144"
           sodipodi:cy="590"
           sodipodi:rx="85.714287"
           sodipodi:ry="85.714287"
           d="m 354.28573,590 c 0,47.33869 -38.37559,85.71429 -85.71429,85.71429 -47.33869,0 -85.71429,-38.3756 -85.71429,-85.71429 0,-47.33869 38.3756,-85.71429 85.71429,-85.71429 47.3387,0 85.71429,38.3756 85.71429,85.71429 z"
           transform="translate(325.71429,-237.14286)" />
        <path
           transform="matrix(-0.4981179,0,0,-0.4981179,728.06598,646.74671)"
           d="m 354.28573,590 c 0,47.33869 -38.37559,85.71429 -85.71429,85.71429 -47.33869,0 -85.71429,-38.3756 -85.71429,-85.71429 0,-47.33869 38.3756,-85.71429 85.71429,-85.71429 47.3387,0 85.71429,38.3756 85.71429,85.71429 z"
           sodipodi:ry="85.714287"
           sodipodi:rx="85.714287"
           sodipodi:cy="590"
           sodipodi:cx="268.57144"
           id="path3264"
           style="fill:none;stroke:#f6f6f6;stroke-width:34.79999924;stroke-miterlimit:4;stroke-opacity:1;stroke-dasharray:none"
           sodipodi:type="arc" />
      </g>
      <path
         id="path3466"
         d="m 384.875,238.5 c -94.81062,-1e-5 -172.34373,77.53313 -172.34375,172.34375 1e-5,81.15307 56.80095,149.66744 132.625,167.71875 7.04364,-10.27254 20.61504,-17.21875 36.28125,-17.21875 16.32437,-2e-5 30.36604,7.54094 37.125,18.53125 78.81015,-15.77404 138.62498,-85.74231 138.625,-169.03125 0,-94.81062 -77.50189,-172.34373 -172.3125,-172.34375 z m 0,58.1875 c 63.3418,0 114.15625,50.81446 114.15625,114.15625 -10e-6,63.3418 -50.81446,114.1875 -114.15625,114.1875 -63.34181,-10e-6 -114.1875,-50.84571 -114.1875,-114.1875 0,-63.34181 50.84571,-114.15625 114.1875,-114.15625 z"
         style="opacity:0.11715483;fill:#fbfbfb;fill-opacity:1;stroke:none"
         inkscape:connector-curvature="0" />
      <path
         id="rect3638"
         d="m 733.1875,526.90625 c -9.32694,32.06763 -23.18295,62.23442 -40.84375,89.78125 l 607.34375,747.625 68.5,-55.625 -635,-781.78125 z"
         style="opacity:0.11715483;fill:#ffffff;fill-opacity:1;fill-rule:evenodd;stroke:none"
         inkscape:connector-curvature="0" />
      <path
         id="path3464"
         d="m 382.8125,66.84375 c -190.3377,-3e-6 -345.874967,155.66229 -345.875,346 -10e-7,190.33772 155.53729,346.03122 345.875,346.03125 170.31792,0 312.89535,-124.65565 341,-287.25 l 547.5625,677 91.0938,-73.6562 -701.2813,-867.00005 c -6.07481,-8.21958 -12.49008,-16.16723 -19.25,-23.8125 L 627,165.6875 l -1.4375,1.15625 c -62.57325,-61.75219 -148.40942,-99.999983 -242.75,-100 z m 0,116.8125 c 63.3167,2e-5 120.41632,25.30467 161.78125,66.40625 l 31.09375,38.40625 c 23.02069,35.76161 36.34375,78.42259 36.34375,124.375 -3e-5,116.70739 -85.96513,212.26307 -198.40625,227.1875 -3.06762,-12.05671 -16.27278,-21.06249 -32.1875,-21.0625 -15.74536,0 -28.81494,8.8238 -32.0625,20.6875 -111.14257,-16.05557 -195.75,-111.01793 -195.75,-226.8125 3e-5,-127.16227 102.02525,-229.1875 229.1875,-229.1875 z"
         style="opacity:0.11715483;fill:#fbfbfb;fill-opacity:1;stroke:none"
         inkscape:connector-curvature="0" />
    </g>
    <g
       id="g3718"
       transform="matrix(-0.00821273,0.03787901,0.03787901,0.00821273,20.519562,852.26268)">
      <g
         id="g3720"
         style="opacity:0.09090899">
        <g
           id="g3722"
           style="opacity:0.45606695;stroke:#f6f6f6;stroke-opacity:1"
           transform="matrix(0.944583,0,0,0.944583,-174.78075,78.697139)">
          <path
             transform="translate(325.71429,-237.14286)"
             d="m 354.28573,590 c 0,47.33869 -38.37559,85.71429 -85.71429,85.71429 -47.33869,0 -85.71429,-38.3756 -85.71429,-85.71429 0,-47.33869 38.3756,-85.71429 85.71429,-85.71429 47.3387,0 85.71429,38.3756 85.71429,85.71429 z"
             sodipodi:ry="85.714287"
             sodipodi:rx="85.714287"
             sodipodi:cy="590"
             sodipodi:cx="268.57144"
             id="path3724"
             style="fill:none;stroke:#f6f6f6;stroke-width:34.79999924;stroke-miterlimit:4;stroke-opacity:1;stroke-dasharray:none"
             sodipodi:type="arc" />
          <path
             sodipodi:type="arc"
             style="fill:none;stroke:#f6f6f6;stroke-width:34.79999924;stroke-miterlimit:4;stroke-opacity:1;stroke-dasharray:none"
             id="path3726"
             sodipodi:cx="268.57144"
             sodipodi:cy="590"
             sodipodi:rx="85.714287"
             sodipodi:ry="85.714287"
             d="m 354.28573,590 c 0,47.33869 -38.37559,85.71429 -85.71429,85.71429 -47.33869,0 -85.71429,-38.3756 -85.71429,-85.71429 0,-47.33869 38.3756,-85.71429 85.71429,-85.71429 47.3387,0 85.71429,38.3756 85.71429,85.71429 z"
             transform="matrix(-0.4981179,0,0,-0.4981179,728.06598,646.74671)" />
        </g>
        <path
           inkscape:connector-curvature="0"
           style="opacity:0.11715483;fill:#fbfbfb;fill-opacity:1;stroke:none"
           d="m 384.875,238.5 c -94.81062,-1e-5 -172.34373,77.53313 -172.34375,172.34375 1e-5,81.15307 56.80095,149.66744 132.625,167.71875 7.04364,-10.27254 20.61504,-17.21875 36.28125,-17.21875 16.32437,-2e-5 30.36604,7.54094 37.125,18.53125 78.81015,-15.77404 138.62498,-85.74231 138.625,-169.03125 0,-94.81062 -77.50189,-172.34373 -172.3125,-172.34375 z m 0,58.1875 c 63.3418,0 114.15625,50.81446 114.15625,114.15625 -10e-6,63.3418 -50.81446,114.1875 -114.15625,114.1875 -63.34181,-10e-6 -114.1875,-50.84571 -114.1875,-114.1875 0,-63.34181 50.84571,-114.15625 114.1875,-114.15625 z"
           id="path3728" />
        <path
           inkscape:connector-curvature="0"
           style="opacity:0.11715483;fill:#ffffff;fill-opacity:1;fill-rule:evenodd;stroke:none"
           d="m 733.1875,526.90625 c -9.32694,32.06763 -23.18295,62.23442 -40.84375,89.78125 l 607.34375,747.625 68.5,-55.625 -635,-781.78125 z"
           id="path3730" />
        <path
           inkscape:connector-curvature="0"
           style="opacity:0.11715483;fill:#fbfbfb;fill-opacity:1;stroke:none"
           d="m 382.8125,66.84375 c -190.3377,-3e-6 -345.874967,155.66229 -345.875,346 -10e-7,190.33772 155.53729,346.03122 345.875,346.03125 170.31792,0 312.89535,-124.65565 341,-287.25 l 547.5625,677 91.0938,-73.6562 -701.2813,-867.00005 c -6.07481,-8.21958 -12.49008,-16.16723 -19.25,-23.8125 L 627,165.6875 l -1.4375,1.15625 c -62.57325,-61.75219 -148.40942,-99.999983 -242.75,-100 z m 0,116.8125 c 63.3167,2e-5 120.41632,25.30467 161.78125,66.40625 l 31.09375,38.40625 c 23.02069,35.76161 36.34375,78.42259 36.34375,124.375 -3e-5,116.70739 -85.96513,212.26307 -198.40625,227.1875 -3.06762,-12.05671 -16.27278,-21.06249 -32.1875,-21.0625 -15.74536,0 -28.81494,8.8238 -32.0625,20.6875 -111.14257,-16.05557 -195.75,-111.01793 -195.75,-226.8125 3e-5,-127.16227 102.02525,-229.1875 229.1875,-229.1875 z"
           id="path3732" />
      </g>
      <g
         id="g3734"
         style="opacity:0.09090899">
        <g
           id="g3736"
           style="opacity:0.45606695;stroke:#f6f6f6;stroke-opacity:1"
           transform="matrix(0.944583,0,0,0.944583,-174.78075,78.697139)">
          <path
             transform="translate(325.71429,-237.14286)"
             d="m 354.28573,590 c 0,47.33869 -38.37559,85.71429 -85.71429,85.71429 -47.33869,0 -85.71429,-38.3756 -85.71429,-85.71429 0,-47.33869 38.3756,-85.71429 85.71429,-85.71429 47.3387,0 85.71429,38.3756 85.71429,85.71429 z"
             sodipodi:ry="85.714287"
             sodipodi:rx="85.714287"
             sodipodi:cy="590"
             sodipodi:cx="268.57144"
             id="path3738"
             style="fill:none;stroke:#f6f6f6;stroke-width:34.79999924;stroke-miterlimit:4;stroke-opacity:1;stroke-dasharray:none"
             sodipodi:type="arc" />
          <path
             sodipodi:type="arc"
             style="fill:none;stroke:#f6f6f6;stroke-width:34.79999924;stroke-miterlimit:4;stroke-opacity:1;stroke-dasharray:none"
             id="path3740"
             sodipodi:cx="268.57144"
             sodipodi:cy="590"
             sodipodi:rx="85.714287"
             sodipodi:ry="85.714287"
             d="m 354.28573,590 c 0,47.33869 -38.37559,85.71429 -85.71429,85.71429 -47.33869,0 -85.71429,-38.3756 -85.71429,-85.71429 0,-47.33869 38.3756,-85.71429 85.71429,-85.71429 47.3387,0 85.71429,38.3756 85.71429,85.71429 z"
             transform="matrix(-0.4981179,0,0,-0.4981179,728.06598,646.74671)" />
        </g>
        <path
           inkscape:connector-curvature="0"
           style="opacity:0.11715483;fill:#fbfbfb;fill-opacity:1;stroke:none"
           d="m 384.875,238.5 c -94.81062,-1e-5 -172.34373,77.53313 -172.34375,172.34375 1e-5,81.15307 56.80095,149.66744 132.625,167.71875 7.04364,-10.27254 20.61504,-17.21875 36.28125,-17.21875 16.32437,-2e-5 30.36604,7.54094 37.125,18.53125 78.81015,-15.77404 138.62498,-85.74231 138.625,-169.03125 0,-94.81062 -77.50189,-172.34373 -172.3125,-172.34375 z m 0,58.1875 c 63.3418,0 114.15625,50.81446 114.15625,114.15625 -10e-6,63.3418 -50.81446,114.1875 -114.15625,114.1875 -63.34181,-10e-6 -114.1875,-50.84571 -114.1875,-114.1875 0,-63.34181 50.84571,-114.15625 114.1875,-114.15625 z"
           id="path3742" />
        <path
           inkscape:connector-curvature="0"
           style="opacity:0.11715483;fill:#ffffff;fill-opacity:1;fill-rule:evenodd;stroke:none"
           d="m 733.1875,526.90625 c -9.32694,32.06763 -23.18295,62.23442 -40.84375,89.78125 l 607.34375,747.625 68.5,-55.625 -635,-781.78125 z"
           id="path3744" />
        <path
           inkscape:connector-curvature="0"
           style="opacity:0.11715483;fill:#fbfbfb;fill-opacity:1;stroke:none"
           d="m 382.8125,66.84375 c -190.3377,-3e-6 -345.874967,155.66229 -345.875,346 -10e-7,190.33772 155.53729,346.03122 345.875,346.03125 170.31792,0 312.89535,-124.65565 341,-287.25 l 547.5625,677 91.0938,-73.6562 -701.2813,-867.00005 c -6.07481,-8.21958 -12.49008,-16.16723 -19.25,-23.8125 L 627,165.6875 l -1.4375,1.15625 c -62.57325,-61.75219 -148.40942,-99.999983 -242.75,-100 z m 0,116.8125 c 63.3167,2e-5 120.41632,25.30467 161.78125,66.40625 l 31.09375,38.40625 c 23.02069,35.76161 36.34375,78.42259 36.34375,124.375 -3e-5,116.70739 -85.96513,212.26307 -198.40625,227.1875 -3.06762,-12.05671 -16.27278,-21.06249 -32.1875,-21.0625 -15.74536,0 -28.81494,8.8238 -32.0625,20.6875 -111.14257,-16.05557 -195.75,-111.01793 -195.75,-226.8125 3e-5,-127.16227 102.02525,-229.1875 229.1875,-229.1875 z"
           id="path3746" />
      </g>
      <g
         id="g3748"
         style="opacity:0.09090899">
        <g
           id="g3750"
           style="opacity:0.45606695;stroke:#f6f6f6;stroke-opacity:1"
           transform="matrix(0.944583,0,0,0.944583,-174.78075,78.697139)">
          <path
             transform="translate(325.71429,-237.14286)"
             d="m 354.28573,590 c 0,47.33869 -38.37559,85.71429 -85.71429,85.71429 -47.33869,0 -85.71429,-38.3756 -85.71429,-85.71429 0,-47.33869 38.3756,-85.71429 85.71429,-85.71429 47.3387,0 85.71429,38.3756 85.71429,85.71429 z"
             sodipodi:ry="85.714287"
             sodipodi:rx="85.714287"
             sodipodi:cy="590"
             sodipodi:cx="268.57144"
             id="path3752"
             style="fill:none;stroke:#f6f6f6;stroke-width:34.79999924;stroke-miterlimit:4;stroke-opacity:1;stroke-dasharray:none"
             sodipodi:type="arc" />
          <path
             sodipodi:type="arc"
             style="fill:none;stroke:#f6f6f6;stroke-width:34.79999924;stroke-miterlimit:4;stroke-opacity:1;stroke-dasharray:none"
             id="path3754"
             sodipodi:cx="268.57144"
             sodipodi:cy="590"
             sodipodi:rx="85.714287"
             sodipodi:ry="85.714287"
             d="m 354.28573,590 c 0,47.33869 -38.37559,85.71429 -85.71429,85.71429 -47.33869,0 -85.71429,-38.3756 -85.71429,-85.71429 0,-47.33869 38.3756,-85.71429 85.71429,-85.71429 47.3387,0 85.71429,38.3756 85.71429,85.71429 z"
             transform="matrix(-0.4981179,0,0,-0.4981179,728.06598,646.74671)" />
        </g>
        <path
           inkscape:connector-curvature="0"
           style="opacity:0.11715483;fill:#fbfbfb;fill-opacity:1;stroke:none"
           d="m 384.875,238.5 c -94.81062,-1e-5 -172.34373,77.53313 -172.34375,172.34375 1e-5,81.15307 56.80095,149.66744 132.625,167.71875 7.04364,-10.27254 20.61504,-17.21875 36.28125,-17.21875 16.32437,-2e-5 30.36604,7.54094 37.125,18.53125 78.81015,-15.77404 138.62498,-85.74231 138.625,-169.03125 0,-94.81062 -77.50189,-172.34373 -172.3125,-172.34375 z m 0,58.1875 c 63.3418,0 114.15625,50.81446 114.15625,114.15625 -10e-6,63.3418 -50.81446,114.1875 -114.15625,114.1875 -63.34181,-10e-6 -114.1875,-50.84571 -114.1875,-114.1875 0,-63.34181 50.84571,-114.15625 114.1875,-114.15625 z"
           id="path3756" />
        <path
           inkscape:connector-curvature="0"
           style="opacity:0.11715483;fill:#ffffff;fill-opacity:1;fill-rule:evenodd;stroke:none"
           d="m 733.1875,526.90625 c -9.32694,32.06763 -23.18295,62.23442 -40.84375,89.78125 l 607.34375,747.625 68.5,-55.625 -635,-781.78125 z"
           id="path3758" />
        <path
           inkscape:connector-curvature="0"
           style="opacity:0.11715483;fill:#fbfbfb;fill-opacity:1;stroke:none"
           d="m 382.8125,66.84375 c -190.3377,-3e-6 -345.874967,155.66229 -345.875,346 -10e-7,190.33772 155.53729,346.03122 345.875,346.03125 170.31792,0 312.89535,-124.65565 341,-287.25 l 547.5625,677 91.0938,-73.6562 -701.2813,-867.00005 c -6.07481,-8.21958 -12.49008,-16.16723 -19.25,-23.8125 L 627,165.6875 l -1.4375,1.15625 c -62.57325,-61.75219 -148.40942,-99.999983 -242.75,-100 z m 0,116.8125 c 63.3167,2e-5 120.41632,25.30467 161.78125,66.40625 l 31.09375,38.40625 c 23.02069,35.76161 36.34375,78.42259 36.34375,124.375 -3e-5,116.70739 -85.96513,212.26307 -198.40625,227.1875 -3.06762,-12.05671 -16.27278,-21.06249 -32.1875,-21.0625 -15.74536,0 -28.81494,8.8238 -32.0625,20.6875 -111.14257,-16.05557 -195.75,-111.01793 -195.75,-226.8125 3e-5,-127.16227 102.02525,-229.1875 229.1875,-229.1875 z"
           id="path3760" />
      </g>
      <g
         id="g3762"
         style="opacity:0.09090899">
        <g
           id="g3764"
           style="opacity:0.45606695;stroke:#f6f6f6;stroke-opacity:1"
           transform="matrix(0.944583,0,0,0.944583,-174.78075,78.697139)">
          <path
             transform="translate(325.71429,-237.14286)"
             d="m 354.28573,590 c 0,47.33869 -38.37559,85.71429 -85.71429,85.71429 -47.33869,0 -85.71429,-38.3756 -85.71429,-85.71429 0,-47.33869 38.3756,-85.71429 85.71429,-85.71429 47.3387,0 85.71429,38.3756 85.71429,85.71429 z"
             sodipodi:ry="85.714287"
             sodipodi:rx="85.714287"
             sodipodi:cy="590"
             sodipodi:cx="268.57144"
             id="path3766"
             style="fill:none;stroke:#f6f6f6;stroke-width:34.79999924;stroke-miterlimit:4;stroke-opacity:1;stroke-dasharray:none"
             sodipodi:type="arc" />
          <path
             sodipodi:type="arc"
             style="fill:none;stroke:#f6f6f6;stroke-width:34.79999924;stroke-miterlimit:4;stroke-opacity:1;stroke-dasharray:none"
             id="path3768"
             sodipodi:cx="268.57144"
             sodipodi:cy="590"
             sodipodi:rx="85.714287"
             sodipodi:ry="85.714287"
             d="m 354.28573,590 c 0,47.33869 -38.37559,85.71429 -85.71429,85.71429 -47.33869,0 -85.71429,-38.3756 -85.71429,-85.71429 0,-47.33869 38.3756,-85.71429 85.71429,-85.71429 47.3387,0 85.71429,38.3756 85.71429,85.71429 z"
             transform="matrix(-0.4981179,0,0,-0.4981179,728.06598,646.74671)" />
        </g>
        <path
           inkscape:connector-curvature="0"
           style="opacity:0.11715483;fill:#fbfbfb;fill-opacity:1;stroke:none"
           d="m 384.875,238.5 c -94.81062,-1e-5 -172.34373,77.53313 -172.34375,172.34375 1e-5,81.15307 56.80095,149.66744 132.625,167.71875 7.04364,-10.27254 20.61504,-17.21875 36.28125,-17.21875 16.32437,-2e-5 30.36604,7.54094 37.125,18.53125 78.81015,-15.77404 138.62498,-85.74231 138.625,-169.03125 0,-94.81062 -77.50189,-172.34373 -172.3125,-172.34375 z m 0,58.1875 c 63.3418,0 114.15625,50.81446 114.15625,114.15625 -10e-6,63.3418 -50.81446,114.1875 -114.15625,114.1875 -63.34181,-10e-6 -114.1875,-50.84571 -114.1875,-114.1875 0,-63.34181 50.84571,-114.15625 114.1875,-114.15625 z"
           id="path3770" />
        <path
           inkscape:connector-curvature="0"
           style="opacity:0.11715483;fill:#ffffff;fill-opacity:1;fill-rule:evenodd;stroke:none"
           d="m 733.1875,526.90625 c -9.32694,32.06763 -23.18295,62.23442 -40.84375,89.78125 l 607.34375,747.625 68.5,-55.625 -635,-781.78125 z"
           id="path3772" />
        <path
           inkscape:connector-curvature="0"
           style="opacity:0.11715483;fill:#fbfbfb;fill-opacity:1;stroke:none"
           d="m 382.8125,66.84375 c -190.3377,-3e-6 -345.874967,155.66229 -345.875,346 -10e-7,190.33772 155.53729,346.03122 345.875,346.03125 170.31792,0 312.89535,-124.65565 341,-287.25 l 547.5625,677 91.0938,-73.6562 -701.2813,-867.00005 c -6.07481,-8.21958 -12.49008,-16.16723 -19.25,-23.8125 L 627,165.6875 l -1.4375,1.15625 c -62.57325,-61.75219 -148.40942,-99.999983 -242.75,-100 z m 0,116.8125 c 63.3167,2e-5 120.41632,25.30467 161.78125,66.40625 l 31.09375,38.40625 c 23.02069,35.76161 36.34375,78.42259 36.34375,124.375 -3e-5,116.70739 -85.96513,212.26307 -198.40625,227.1875 -3.06762,-12.05671 -16.27278,-21.06249 -32.1875,-21.0625 -15.74536,0 -28.81494,8.8238 -32.0625,20.6875 -111.14257,-16.05557 -195.75,-111.01793 -195.75,-226.8125 3e-5,-127.16227 102.02525,-229.1875 229.1875,-229.1875 z"
           id="path3774" />
      </g>
      <g
         id="g3776"
         style="opacity:0.09090899">
        <g
           id="g3778"
           style="opacity:0.45606695;stroke:#f6f6f6;stroke-opacity:1"
           transform="matrix(0.944583,0,0,0.944583,-174.78075,78.697139)">
          <path
             transform="translate(325.71429,-237.14286)"
             d="m 354.28573,590 c 0,47.33869 -38.37559,85.71429 -85.71429,85.71429 -47.33869,0 -85.71429,-38.3756 -85.71429,-85.71429 0,-47.33869 38.3756,-85.71429 85.71429,-85.71429 47.3387,0 85.71429,38.3756 85.71429,85.71429 z"
             sodipodi:ry="85.714287"
             sodipodi:rx="85.714287"
             sodipodi:cy="590"
             sodipodi:cx="268.57144"
             id="path3780"
             style="fill:none;stroke:#f6f6f6;stroke-width:34.79999924;stroke-miterlimit:4;stroke-opacity:1;stroke-dasharray:none"
             sodipodi:type="arc" />
          <path
             sodipodi:type="arc"
             style="fill:none;stroke:#f6f6f6;stroke-width:34.79999924;stroke-miterlimit:4;stroke-opacity:1;stroke-dasharray:none"
             id="path3782"
             sodipodi:cx="268.57144"
             sodipodi:cy="590"
             sodipodi:rx="85.714287"
             sodipodi:ry="85.714287"
             d="m 354.28573,590 c 0,47.33869 -38.37559,85.71429 -85.71429,85.71429 -47.33869,0 -85.71429,-38.3756 -85.71429,-85.71429 0,-47.33869 38.3756,-85.71429 85.71429,-85.71429 47.3387,0 85.71429,38.3756 85.71429,85.71429 z"
             transform="matrix(-0.4981179,0,0,-0.4981179,728.06598,646.74671)" />
        </g>
        <path
           inkscape:connector-curvature="0"
           style="opacity:0.11715483;fill:#fbfbfb;fill-opacity:1;stroke:none"
           d="m 384.875,238.5 c -94.81062,-1e-5 -172.34373,77.53313 -172.34375,172.34375 1e-5,81.15307 56.80095,149.66744 132.625,167.71875 7.04364,-10.27254 20.61504,-17.21875 36.28125,-17.21875 16.32437,-2e-5 30.36604,7.54094 37.125,18.53125 78.81015,-15.77404 138.62498,-85.74231 138.625,-169.03125 0,-94.81062 -77.50189,-172.34373 -172.3125,-172.34375 z m 0,58.1875 c 63.3418,0 114.15625,50.81446 114.15625,114.15625 -10e-6,63.3418 -50.81446,114.1875 -114.15625,114.1875 -63.34181,-10e-6 -114.1875,-50.84571 -114.1875,-114.1875 0,-63.34181 50.84571,-114.15625 114.1875,-114.15625 z"
           id="path3784" />
        <path
           inkscape:connector-curvature="0"
           style="opacity:0.11715483;fill:#ffffff;fill-opacity:1;fill-rule:evenodd;stroke:none"
           d="m 733.1875,526.90625 c -9.32694,32.06763 -23.18295,62.23442 -40.84375,89.78125 l 607.34375,747.625 68.5,-55.625 -635,-781.78125 z"
           id="path3786" />
        <path
           inkscape:connector-curvature="0"
           style="opacity:0.11715483;fill:#fbfbfb;fill-opacity:1;stroke:none"
           d="m 382.8125,66.84375 c -190.3377,-3e-6 -345.874967,155.66229 -345.875,346 -10e-7,190.33772 155.53729,346.03122 345.875,346.03125 170.31792,0 312.89535,-124.65565 341,-287.25 l 547.5625,677 91.0938,-73.6562 -701.2813,-867.00005 c -6.07481,-8.21958 -12.49008,-16.16723 -19.25,-23.8125 L 627,165.6875 l -1.4375,1.15625 c -62.57325,-61.75219 -148.40942,-99.999983 -242.75,-100 z m 0,116.8125 c 63.3167,2e-5 120.41632,25.30467 161.78125,66.40625 l 31.09375,38.40625 c 23.02069,35.76161 36.34375,78.42259 36.34375,124.375 -3e-5,116.70739 -85.96513,212.26307 -198.40625,227.1875 -3.06762,-12.05671 -16.27278,-21.06249 -32.1875,-21.0625 -15.74536,0 -28.81494,8.8238 -32.0625,20.6875 -111.14257,-16.05557 -195.75,-111.01793 -195.75,-226.8125 3e-5,-127.16227 102.02525,-229.1875 229.1875,-229.1875 z"
           id="path3788" />
      </g>
      <g
         id="g3790"
         style="opacity:0.09090899">
        <g
           id="g3792"
           style="opacity:0.45606695;stroke:#f6f6f6;stroke-opacity:1"
           transform="matrix(0.944583,0,0,0.944583,-174.78075,78.697139)">
          <path
             transform="translate(325.71429,-237.14286)"
             d="m 354.28573,590 c 0,47.33869 -38.37559,85.71429 -85.71429,85.71429 -47.33869,0 -85.71429,-38.3756 -85.71429,-85.71429 0,-47.33869 38.3756,-85.71429 85.71429,-85.71429 47.3387,0 85.71429,38.3756 85.71429,85.71429 z"
             sodipodi:ry="85.714287"
             sodipodi:rx="85.714287"
             sodipodi:cy="590"
             sodipodi:cx="268.57144"
             id="path3794"
             style="fill:none;stroke:#f6f6f6;stroke-width:34.79999924;stroke-miterlimit:4;stroke-opacity:1;stroke-dasharray:none"
             sodipodi:type="arc" />
          <path
             sodipodi:type="arc"
             style="fill:none;stroke:#f6f6f6;stroke-width:34.79999924;stroke-miterlimit:4;stroke-opacity:1;stroke-dasharray:none"
             id="path3796"
             sodipodi:cx="268.57144"
             sodipodi:cy="590"
             sodipodi:rx="85.714287"
             sodipodi:ry="85.714287"
             d="m 354.28573,590 c 0,47.33869 -38.37559,85.71429 -85.71429,85.71429 -47.33869,0 -85.71429,-38.3756 -85.71429,-85.71429 0,-47.33869 38.3756,-85.71429 85.71429,-85.71429 47.3387,0 85.71429,38.3756 85.71429,85.71429 z"
             transform="matrix(-0.4981179,0,0,-0.4981179,728.06598,646.74671)" />
        </g>
        <path
           inkscape:connector-curvature="0"
           style="opacity:0.11715483;fill:#fbfbfb;fill-opacity:1;stroke:none"
           d="m 384.875,238.5 c -94.81062,-1e-5 -172.34373,77.53313 -172.34375,172.34375 1e-5,81.15307 56.80095,149.66744 132.625,167.71875 7.04364,-10.27254 20.61504,-17.21875 36.28125,-17.21875 16.32437,-2e-5 30.36604,7.54094 37.125,18.53125 78.81015,-15.77404 138.62498,-85.74231 138.625,-169.03125 0,-94.81062 -77.50189,-172.34373 -172.3125,-172.34375 z m 0,58.1875 c 63.3418,0 114.15625,50.81446 114.15625,114.15625 -10e-6,63.3418 -50.81446,114.1875 -114.15625,114.1875 -63.34181,-10e-6 -114.1875,-50.84571 -114.1875,-114.1875 0,-63.34181 50.84571,-114.15625 114.1875,-114.15625 z"
           id="path3798" />
        <path
           inkscape:connector-curvature="0"
           style="opacity:0.11715483;fill:#ffffff;fill-opacity:1;fill-rule:evenodd;stroke:none"
           d="m 733.1875,526.90625 c -9.32694,32.06763 -23.18295,62.23442 -40.84375,89.78125 l 607.34375,747.625 68.5,-55.625 -635,-781.78125 z"
           id="path3800" />
        <path
           inkscape:connector-curvature="0"
           style="opacity:0.11715483;fill:#fbfbfb;fill-opacity:1;stroke:none"
           d="m 382.8125,66.84375 c -190.3377,-3e-6 -345.874967,155.66229 -345.875,346 -10e-7,190.33772 155.53729,346.03122 345.875,346.03125 170.31792,0 312.89535,-124.65565 341,-287.25 l 547.5625,677 91.0938,-73.6562 -701.2813,-867.00005 c -6.07481,-8.21958 -12.49008,-16.16723 -19.25,-23.8125 L 627,165.6875 l -1.4375,1.15625 c -62.57325,-61.75219 -148.40942,-99.999983 -242.75,-100 z m 0,116.8125 c 63.3167,2e-5 120.41632,25.30467 161.78125,66.40625 l 31.09375,38.40625 c 23.02069,35.76161 36.34375,78.42259 36.34375,124.375 -3e-5,116.70739 -85.96513,212.26307 -198.40625,227.1875 -3.06762,-12.05671 -16.27278,-21.06249 -32.1875,-21.0625 -15.74536,0 -28.81494,8.8238 -32.0625,20.6875 -111.14257,-16.05557 -195.75,-111.01793 -195.75,-226.8125 3e-5,-127.16227 102.02525,-229.1875 229.1875,-229.1875 z"
           id="path3802" />
      </g>
      <g
         id="g3804"
         style="opacity:0.09090899">
        <g
           id="g3806"
           style="opacity:0.45606695;stroke:#f6f6f6;stroke-opacity:1"
           transform="matrix(0.944583,0,0,0.944583,-174.78075,78.697139)">
          <path
             transform="translate(325.71429,-237.14286)"
             d="m 354.28573,590 c 0,47.33869 -38.37559,85.71429 -85.71429,85.71429 -47.33869,0 -85.71429,-38.3756 -85.71429,-85.71429 0,-47.33869 38.3756,-85.71429 85.71429,-85.71429 47.3387,0 85.71429,38.3756 85.71429,85.71429 z"
             sodipodi:ry="85.714287"
             sodipodi:rx="85.714287"
             sodipodi:cy="590"
             sodipodi:cx="268.57144"
             id="path3808"
             style="fill:none;stroke:#f6f6f6;stroke-width:34.79999924;stroke-miterlimit:4;stroke-opacity:1;stroke-dasharray:none"
             sodipodi:type="arc" />
          <path
             sodipodi:type="arc"
             style="fill:none;stroke:#f6f6f6;stroke-width:34.79999924;stroke-miterlimit:4;stroke-opacity:1;stroke-dasharray:none"
             id="path3810"
             sodipodi:cx="268.57144"
             sodipodi:cy="590"
             sodipodi:rx="85.714287"
             sodipodi:ry="85.714287"
             d="m 354.28573,590 c 0,47.33869 -38.37559,85.71429 -85.71429,85.71429 -47.33869,0 -85.71429,-38.3756 -85.71429,-85.71429 0,-47.33869 38.3756,-85.71429 85.71429,-85.71429 47.3387,0 85.71429,38.3756 85.71429,85.71429 z"
             transform="matrix(-0.4981179,0,0,-0.4981179,728.06598,646.74671)" />
        </g>
        <path
           inkscape:connector-curvature="0"
           style="opacity:0.11715483;fill:#fbfbfb;fill-opacity:1;stroke:none"
           d="m 384.875,238.5 c -94.81062,-1e-5 -172.34373,77.53313 -172.34375,172.34375 1e-5,81.15307 56.80095,149.66744 132.625,167.71875 7.04364,-10.27254 20.61504,-17.21875 36.28125,-17.21875 16.32437,-2e-5 30.36604,7.54094 37.125,18.53125 78.81015,-15.77404 138.62498,-85.74231 138.625,-169.03125 0,-94.81062 -77.50189,-172.34373 -172.3125,-172.34375 z m 0,58.1875 c 63.3418,0 114.15625,50.81446 114.15625,114.15625 -10e-6,63.3418 -50.81446,114.1875 -114.15625,114.1875 -63.34181,-10e-6 -114.1875,-50.84571 -114.1875,-114.1875 0,-63.34181 50.84571,-114.15625 114.1875,-114.15625 z"
           id="path3812" />
        <path
           inkscape:connector-curvature="0"
           style="opacity:0.11715483;fill:#ffffff;fill-opacity:1;fill-rule:evenodd;stroke:none"
           d="m 733.1875,526.90625 c -9.32694,32.06763 -23.18295,62.23442 -40.84375,89.78125 l 607.34375,747.625 68.5,-55.625 -635,-781.78125 z"
           id="path3814" />
        <path
           inkscape:connector-curvature="0"
           style="opacity:0.11715483;fill:#fbfbfb;fill-opacity:1;stroke:none"
           d="m 382.8125,66.84375 c -190.3377,-3e-6 -345.874967,155.66229 -345.875,346 -10e-7,190.33772 155.53729,346.03122 345.875,346.03125 170.31792,0 312.89535,-124.65565 341,-287.25 l 547.5625,677 91.0938,-73.6562 -701.2813,-867.00005 c -6.07481,-8.21958 -12.49008,-16.16723 -19.25,-23.8125 L 627,165.6875 l -1.4375,1.15625 c -62.57325,-61.75219 -148.40942,-99.999983 -242.75,-100 z m 0,116.8125 c 63.3167,2e-5 120.41632,25.30467 161.78125,66.40625 l 31.09375,38.40625 c 23.02069,35.76161 36.34375,78.42259 36.34375,124.375 -3e-5,116.70739 -85.96513,212.26307 -198.40625,227.1875 -3.06762,-12.05671 -16.27278,-21.06249 -32.1875,-21.0625 -15.74536,0 -28.81494,8.8238 -32.0625,20.6875 -111.14257,-16.05557 -195.75,-111.01793 -195.75,-226.8125 3e-5,-127.16227 102.02525,-229.1875 229.1875,-229.1875 z"
           id="path3816" />
      </g>
      <g
         id="g3818"
         style="opacity:0.09090899">
        <g
           id="g3820"
           style="opacity:0.45606695;stroke:#f6f6f6;stroke-opacity:1"
           transform="matrix(0.944583,0,0,0.944583,-174.78075,78.697139)">
          <path
             transform="translate(325.71429,-237.14286)"
             d="m 354.28573,590 c 0,47.33869 -38.37559,85.71429 -85.71429,85.71429 -47.33869,0 -85.71429,-38.3756 -85.71429,-85.71429 0,-47.33869 38.3756,-85.71429 85.71429,-85.71429 47.3387,0 85.71429,38.3756 85.71429,85.71429 z"
             sodipodi:ry="85.714287"
             sodipodi:rx="85.714287"
             sodipodi:cy="590"
             sodipodi:cx="268.57144"
             id="path3822"
             style="fill:none;stroke:#f6f6f6;stroke-width:34.79999924;stroke-miterlimit:4;stroke-opacity:1;stroke-dasharray:none"
             sodipodi:type="arc" />
          <path
             sodipodi:type="arc"
             style="fill:none;stroke:#f6f6f6;stroke-width:34.79999924;stroke-miterlimit:4;stroke-opacity:1;stroke-dasharray:none"
             id="path3824"
             sodipodi:cx="268.57144"
             sodipodi:cy="590"
             sodipodi:rx="85.714287"
             sodipodi:ry="85.714287"
             d="m 354.28573,590 c 0,47.33869 -38.37559,85.71429 -85.71429,85.71429 -47.33869,0 -85.71429,-38.3756 -85.71429,-85.71429 0,-47.33869 38.3756,-85.71429 85.71429,-85.71429 47.3387,0 85.71429,38.3756 85.71429,85.71429 z"
             transform="matrix(-0.4981179,0,0,-0.4981179,728.06598,646.74671)" />
        </g>
        <path
           inkscape:connector-curvature="0"
           style="opacity:0.11715483;fill:#fbfbfb;fill-opacity:1;stroke:none"
           d="m 384.875,238.5 c -94.81062,-1e-5 -172.34373,77.53313 -172.34375,172.34375 1e-5,81.15307 56.80095,149.66744 132.625,167.71875 7.04364,-10.27254 20.61504,-17.21875 36.28125,-17.21875 16.32437,-2e-5 30.36604,7.54094 37.125,18.53125 78.81015,-15.77404 138.62498,-85.74231 138.625,-169.03125 0,-94.81062 -77.50189,-172.34373 -172.3125,-172.34375 z m 0,58.1875 c 63.3418,0 114.15625,50.81446 114.15625,114.15625 -10e-6,63.3418 -50.81446,114.1875 -114.15625,114.1875 -63.34181,-10e-6 -114.1875,-50.84571 -114.1875,-114.1875 0,-63.34181 50.84571,-114.15625 114.1875,-114.15625 z"
           id="path3826" />
        <path
           inkscape:connector-curvature="0"
           style="opacity:0.11715483;fill:#ffffff;fill-opacity:1;fill-rule:evenodd;stroke:none"
           d="m 733.1875,526.90625 c -9.32694,32.06763 -23.18295,62.23442 -40.84375,89.78125 l 607.34375,747.625 68.5,-55.625 -635,-781.78125 z"
           id="path3828" />
        <path
           inkscape:connector-curvature="0"
           style="opacity:0.11715483;fill:#fbfbfb;fill-opacity:1;stroke:none"
           d="m 382.8125,66.84375 c -190.3377,-3e-6 -345.874967,155.66229 -345.875,346 -10e-7,190.33772 155.53729,346.03122 345.875,346.03125 170.31792,0 312.89535,-124.65565 341,-287.25 l 547.5625,677 91.0938,-73.6562 -701.2813,-867.00005 c -6.07481,-8.21958 -12.49008,-16.16723 -19.25,-23.8125 L 627,165.6875 l -1.4375,1.15625 c -62.57325,-61.75219 -148.40942,-99.999983 -242.75,-100 z m 0,116.8125 c 63.3167,2e-5 120.41632,25.30467 161.78125,66.40625 l 31.09375,38.40625 c 23.02069,35.76161 36.34375,78.42259 36.34375,124.375 -3e-5,116.70739 -85.96513,212.26307 -198.40625,227.1875 -3.06762,-12.05671 -16.27278,-21.06249 -32.1875,-21.0625 -15.74536,0 -28.81494,8.8238 -32.0625,20.6875 -111.14257,-16.05557 -195.75,-111.01793 -195.75,-226.8125 3e-5,-127.16227 102.02525,-229.1875 229.1875,-229.1875 z"
           id="path3830" />
      </g>
      <g
         id="g3832"
         style="opacity:0.09090899">
        <g
           id="g3834"
           style="opacity:0.45606695;stroke:#f6f6f6;stroke-opacity:1"
           transform="matrix(0.944583,0,0,0.944583,-174.78075,78.697139)">
          <path
             transform="translate(325.71429,-237.14286)"
             d="m 354.28573,590 c 0,47.33869 -38.37559,85.71429 -85.71429,85.71429 -47.33869,0 -85.71429,-38.3756 -85.71429,-85.71429 0,-47.33869 38.3756,-85.71429 85.71429,-85.71429 47.3387,0 85.71429,38.3756 85.71429,85.71429 z"
             sodipodi:ry="85.714287"
             sodipodi:rx="85.714287"
             sodipodi:cy="590"
             sodipodi:cx="268.57144"
             id="path3836"
             style="fill:none;stroke:#f6f6f6;stroke-width:34.79999924;stroke-miterlimit:4;stroke-opacity:1;stroke-dasharray:none"
             sodipodi:type="arc" />
          <path
             sodipodi:type="arc"
             style="fill:none;stroke:#f6f6f6;stroke-width:34.79999924;stroke-miterlimit:4;stroke-opacity:1;stroke-dasharray:none"
             id="path3838"
             sodipodi:cx="268.57144"
             sodipodi:cy="590"
             sodipodi:rx="85.714287"
             sodipodi:ry="85.714287"
             d="m 354.28573,590 c 0,47.33869 -38.37559,85.71429 -85.71429,85.71429 -47.33869,0 -85.71429,-38.3756 -85.71429,-85.71429 0,-47.33869 38.3756,-85.71429 85.71429,-85.71429 47.3387,0 85.71429,38.3756 85.71429,85.71429 z"
             transform="matrix(-0.4981179,0,0,-0.4981179,728.06598,646.74671)" />
        </g>
        <path
           inkscape:connector-curvature="0"
           style="opacity:0.11715483;fill:#fbfbfb;fill-opacity:1;stroke:none"
           d="m 384.875,238.5 c -94.81062,-1e-5 -172.34373,77.53313 -172.34375,172.34375 1e-5,81.15307 56.80095,149.66744 132.625,167.71875 7.04364,-10.27254 20.61504,-17.21875 36.28125,-17.21875 16.32437,-2e-5 30.36604,7.54094 37.125,18.53125 78.81015,-15.77404 138.62498,-85.74231 138.625,-169.03125 0,-94.81062 -77.50189,-172.34373 -172.3125,-172.34375 z m 0,58.1875 c 63.3418,0 114.15625,50.81446 114.15625,114.15625 -10e-6,63.3418 -50.81446,114.1875 -114.15625,114.1875 -63.34181,-10e-6 -114.1875,-50.84571 -114.1875,-114.1875 0,-63.34181 50.84571,-114.15625 114.1875,-114.15625 z"
           id="path3840" />
        <path
           inkscape:connector-curvature="0"
           style="opacity:0.11715483;fill:#ffffff;fill-opacity:1;fill-rule:evenodd;stroke:none"
           d="m 733.1875,526.90625 c -9.32694,32.06763 -23.18295,62.23442 -40.84375,89.78125 l 607.34375,747.625 68.5,-55.625 -635,-781.78125 z"
           id="path3842" />
        <path
           inkscape:connector-curvature="0"
           style="opacity:0.11715483;fill:#fbfbfb;fill-opacity:1;stroke:none"
           d="m 382.8125,66.84375 c -190.3377,-3e-6 -345.874967,155.66229 -345.875,346 -10e-7,190.33772 155.53729,346.03122 345.875,346.03125 170.31792,0 312.89535,-124.65565 341,-287.25 l 547.5625,677 91.0938,-73.6562 -701.2813,-867.00005 c -6.07481,-8.21958 -12.49008,-16.16723 -19.25,-23.8125 L 627,165.6875 l -1.4375,1.15625 c -62.57325,-61.75219 -148.40942,-99.999983 -242.75,-100 z m 0,116.8125 c 63.3167,2e-5 120.41632,25.30467 161.78125,66.40625 l 31.09375,38.40625 c 23.02069,35.76161 36.34375,78.42259 36.34375,124.375 -3e-5,116.70739 -85.96513,212.26307 -198.40625,227.1875 -3.06762,-12.05671 -16.27278,-21.06249 -32.1875,-21.0625 -15.74536,0 -28.81494,8.8238 -32.0625,20.6875 -111.14257,-16.05557 -195.75,-111.01793 -195.75,-226.8125 3e-5,-127.16227 102.02525,-229.1875 229.1875,-229.1875 z"
           id="path3844" />
      </g>
      <g
         id="g3846"
         style="opacity:0.09090899">
        <g
           id="g3848"
           style="opacity:0.45606695;stroke:#f6f6f6;stroke-opacity:1"
           transform="matrix(0.944583,0,0,0.944583,-174.78075,78.697139)">
          <path
             transform="translate(325.71429,-237.14286)"
             d="m 354.28573,590 c 0,47.33869 -38.37559,85.71429 -85.71429,85.71429 -47.33869,0 -85.71429,-38.3756 -85.71429,-85.71429 0,-47.33869 38.3756,-85.71429 85.71429,-85.71429 47.3387,0 85.71429,38.3756 85.71429,85.71429 z"
             sodipodi:ry="85.714287"
             sodipodi:rx="85.714287"
             sodipodi:cy="590"
             sodipodi:cx="268.57144"
             id="path3850"
             style="fill:none;stroke:#f6f6f6;stroke-width:34.79999924;stroke-miterlimit:4;stroke-opacity:1;stroke-dasharray:none"
             sodipodi:type="arc" />
          <path
             sodipodi:type="arc"
             style="fill:none;stroke:#f6f6f6;stroke-width:34.79999924;stroke-miterlimit:4;stroke-opacity:1;stroke-dasharray:none"
             id="path3852"
             sodipodi:cx="268.57144"
             sodipodi:cy="590"
             sodipodi:rx="85.714287"
             sodipodi:ry="85.714287"
             d="m 354.28573,590 c 0,47.33869 -38.37559,85.71429 -85.71429,85.71429 -47.33869,0 -85.71429,-38.3756 -85.71429,-85.71429 0,-47.33869 38.3756,-85.71429 85.71429,-85.71429 47.3387,0 85.71429,38.3756 85.71429,85.71429 z"
             transform="matrix(-0.4981179,0,0,-0.4981179,728.06598,646.74671)" />
        </g>
        <path
           inkscape:connector-curvature="0"
           style="opacity:0.11715483;fill:#fbfbfb;fill-opacity:1;stroke:none"
           d="m 384.875,238.5 c -94.81062,-1e-5 -172.34373,77.53313 -172.34375,172.34375 1e-5,81.15307 56.80095,149.66744 132.625,167.71875 7.04364,-10.27254 20.61504,-17.21875 36.28125,-17.21875 16.32437,-2e-5 30.36604,7.54094 37.125,18.53125 78.81015,-15.77404 138.62498,-85.74231 138.625,-169.03125 0,-94.81062 -77.50189,-172.34373 -172.3125,-172.34375 z m 0,58.1875 c 63.3418,0 114.15625,50.81446 114.15625,114.15625 -10e-6,63.3418 -50.81446,114.1875 -114.15625,114.1875 -63.34181,-10e-6 -114.1875,-50.84571 -114.1875,-114.1875 0,-63.34181 50.84571,-114.15625 114.1875,-114.15625 z"
           id="path3854" />
        <path
           inkscape:connector-curvature="0"
           style="opacity:0.11715483;fill:#ffffff;fill-opacity:1;fill-rule:evenodd;stroke:none"
           d="m 733.1875,526.90625 c -9.32694,32.06763 -23.18295,62.23442 -40.84375,89.78125 l 607.34375,747.625 68.5,-55.625 -635,-781.78125 z"
           id="path3856" />
        <path
           inkscape:connector-curvature="0"
           style="opacity:0.11715483;fill:#fbfbfb;fill-opacity:1;stroke:none"
           d="m 382.8125,66.84375 c -190.3377,-3e-6 -345.874967,155.66229 -345.875,346 -10e-7,190.33772 155.53729,346.03122 345.875,346.03125 170.31792,0 312.89535,-124.65565 341,-287.25 l 547.5625,677 91.0938,-73.6562 -701.2813,-867.00005 c -6.07481,-8.21958 -12.49008,-16.16723 -19.25,-23.8125 L 627,165.6875 l -1.4375,1.15625 c -62.57325,-61.75219 -148.40942,-99.999983 -242.75,-100 z m 0,116.8125 c 63.3167,2e-5 120.41632,25.30467 161.78125,66.40625 l 31.09375,38.40625 c 23.02069,35.76161 36.34375,78.42259 36.34375,124.375 -3e-5,116.70739 -85.96513,212.26307 -198.40625,227.1875 -3.06762,-12.05671 -16.27278,-21.06249 -32.1875,-21.0625 -15.74536,0 -28.81494,8.8238 -32.0625,20.6875 -111.14257,-16.05557 -195.75,-111.01793 -195.75,-226.8125 3e-5,-127.16227 102.02525,-229.1875 229.1875,-229.1875 z"
           id="path3858" />
      </g>
      <g
         id="g3860"
         style="opacity:0.09090899">
        <g
           id="g3862"
           style="opacity:0.45606695;stroke:#f6f6f6;stroke-opacity:1"
           transform="matrix(0.944583,0,0,0.944583,-174.78075,78.697139)">
          <path
             transform="translate(325.71429,-237.14286)"
             d="m 354.28573,590 c 0,47.33869 -38.37559,85.71429 -85.71429,85.71429 -47.33869,0 -85.71429,-38.3756 -85.71429,-85.71429 0,-47.33869 38.3756,-85.71429 85.71429,-85.71429 47.3387,0 85.71429,38.3756 85.71429,85.71429 z"
             sodipodi:ry="85.714287"
             sodipodi:rx="85.714287"
             sodipodi:cy="590"
             sodipodi:cx="268.57144"
             id="path3864"
             style="fill:none;stroke:#f6f6f6;stroke-width:34.79999924;stroke-miterlimit:4;stroke-opacity:1;stroke-dasharray:none"
             sodipodi:type="arc" />
          <path
             sodipodi:type="arc"
             style="fill:none;stroke:#f6f6f6;stroke-width:34.79999924;stroke-miterlimit:4;stroke-opacity:1;stroke-dasharray:none"
             id="path3866"
             sodipodi:cx="268.57144"
             sodipodi:cy="590"
             sodipodi:rx="85.714287"
             sodipodi:ry="85.714287"
             d="m 354.28573,590 c 0,47.33869 -38.37559,85.71429 -85.71429,85.71429 -47.33869,0 -85.71429,-38.3756 -85.71429,-85.71429 0,-47.33869 38.3756,-85.71429 85.71429,-85.71429 47.3387,0 85.71429,38.3756 85.71429,85.71429 z"
             transform="matrix(-0.4981179,0,0,-0.4981179,728.06598,646.74671)" />
        </g>
        <path
           inkscape:connector-curvature="0"
           style="opacity:0.11715483;fill:#fbfbfb;fill-opacity:1;stroke:none"
           d="m 384.875,238.5 c -94.81062,-1e-5 -172.34373,77.53313 -172.34375,172.34375 1e-5,81.15307 56.80095,149.66744 132.625,167.71875 7.04364,-10.27254 20.61504,-17.21875 36.28125,-17.21875 16.32437,-2e-5 30.36604,7.54094 37.125,18.53125 78.81015,-15.77404 138.62498,-85.74231 138.625,-169.03125 0,-94.81062 -77.50189,-172.34373 -172.3125,-172.34375 z m 0,58.1875 c 63.3418,0 114.15625,50.81446 114.15625,114.15625 -10e-6,63.3418 -50.81446,114.1875 -114.15625,114.1875 -63.34181,-10e-6 -114.1875,-50.84571 -114.1875,-114.1875 0,-63.34181 50.84571,-114.15625 114.1875,-114.15625 z"
           id="path3868" />
        <path
           inkscape:connector-curvature="0"
           style="opacity:0.11715483;fill:#ffffff;fill-opacity:1;fill-rule:evenodd;stroke:none"
           d="m 733.1875,526.90625 c -9.32694,32.06763 -23.18295,62.23442 -40.84375,89.78125 l 607.34375,747.625 68.5,-55.625 -635,-781.78125 z"
           id="path3870" />
        <path
           inkscape:connector-curvature="0"
           style="opacity:0.11715483;fill:#fbfbfb;fill-opacity:1;stroke:none"
           d="m 382.8125,66.84375 c -190.3377,-3e-6 -345.874967,155.66229 -345.875,346 -10e-7,190.33772 155.53729,346.03122 345.875,346.03125 170.31792,0 312.89535,-124.65565 341,-287.25 l 547.5625,677 91.0938,-73.6562 -701.2813,-867.00005 c -6.07481,-8.21958 -12.49008,-16.16723 -19.25,-23.8125 L 627,165.6875 l -1.4375,1.15625 c -62.57325,-61.75219 -148.40942,-99.999983 -242.75,-100 z m 0,116.8125 c 63.3167,2e-5 120.41632,25.30467 161.78125,66.40625 l 31.09375,38.40625 c 23.02069,35.76161 36.34375,78.42259 36.34375,124.375 -3e-5,116.70739 -85.96513,212.26307 -198.40625,227.1875 -3.06762,-12.05671 -16.27278,-21.06249 -32.1875,-21.0625 -15.74536,0 -28.81494,8.8238 -32.0625,20.6875 -111.14257,-16.05557 -195.75,-111.01793 -195.75,-226.8125 3e-5,-127.16227 102.02525,-229.1875 229.1875,-229.1875 z"
           id="path3872" />
      </g>
    </g>
    <g
       transform="matrix(0.02710067,0,0,0.02710067,14.899391,888.93792)"
       id="g3874">
      <g
         id="g3876"
         style="opacity:0.45606695;stroke:#f6f6f6;stroke-opacity:1"
         transform="matrix(0.944583,0,0,0.944583,-174.78075,78.697139)">
        <path
           transform="translate(325.71429,-237.14286)"
           d="m 354.28573,590 c 0,47.33869 -38.37559,85.71429 -85.71429,85.71429 -47.33869,0 -85.71429,-38.3756 -85.71429,-85.71429 0,-47.33869 38.3756,-85.71429 85.71429,-85.71429 47.3387,0 85.71429,38.3756 85.71429,85.71429 z"
           sodipodi:ry="85.714287"
           sodipodi:rx="85.714287"
           sodipodi:cy="590"
           sodipodi:cx="268.57144"
           id="path3878"
           style="fill:none;stroke:#f6f6f6;stroke-width:34.79999924;stroke-miterlimit:4;stroke-opacity:1;stroke-dasharray:none"
           sodipodi:type="arc" />
        <path
           sodipodi:type="arc"
           style="fill:none;stroke:#f6f6f6;stroke-width:34.79999924;stroke-miterlimit:4;stroke-opacity:1;stroke-dasharray:none"
           id="path3880"
           sodipodi:cx="268.57144"
           sodipodi:cy="590"
           sodipodi:rx="85.714287"
           sodipodi:ry="85.714287"
           d="m 354.28573,590 c 0,47.33869 -38.37559,85.71429 -85.71429,85.71429 -47.33869,0 -85.71429,-38.3756 -85.71429,-85.71429 0,-47.33869 38.3756,-85.71429 85.71429,-85.71429 47.3387,0 85.71429,38.3756 85.71429,85.71429 z"
           transform="matrix(-0.4981179,0,0,-0.4981179,728.06598,646.74671)" />
      </g>
      <path
         inkscape:connector-curvature="0"
         style="opacity:0.11715483;fill:#fbfbfb;fill-opacity:1;stroke:none"
         d="m 384.875,238.5 c -94.81062,-1e-5 -172.34373,77.53313 -172.34375,172.34375 1e-5,81.15307 56.80095,149.66744 132.625,167.71875 7.04364,-10.27254 20.61504,-17.21875 36.28125,-17.21875 16.32437,-2e-5 30.36604,7.54094 37.125,18.53125 78.81015,-15.77404 138.62498,-85.74231 138.625,-169.03125 0,-94.81062 -77.50189,-172.34373 -172.3125,-172.34375 z m 0,58.1875 c 63.3418,0 114.15625,50.81446 114.15625,114.15625 -10e-6,63.3418 -50.81446,114.1875 -114.15625,114.1875 -63.34181,-10e-6 -114.1875,-50.84571 -114.1875,-114.1875 0,-63.34181 50.84571,-114.15625 114.1875,-114.15625 z"
         id="path3882" />
      <path
         inkscape:connector-curvature="0"
         style="opacity:0.11715483;fill:#ffffff;fill-opacity:1;fill-rule:evenodd;stroke:none"
         d="m 733.1875,526.90625 c -9.32694,32.06763 -23.18295,62.23442 -40.84375,89.78125 L 2144.23,2391.0113 l 68.5,-55.625 L 733.1875,526.90625 z"
         id="path3884"
         sodipodi:nodetypes="ccccc" />
      <path
         inkscape:connector-curvature="0"
         style="opacity:0.11715483;fill:#fbfbfb;fill-opacity:1;stroke:none"
         d="m 382.8125,66.84375 c -190.3377,-3e-6 -345.874967,155.66229 -345.875,346 -10e-7,190.33772 155.53729,346.03122 345.875,346.03125 170.31792,0 312.89535,-124.65565 341,-287.25 l 1715.0184,2109.4103 91.0938,-73.6562 L 661.1875,207.96875 c -6.07481,-8.21958 -12.49008,-16.16723 -19.25,-23.8125 L 627,165.6875 l -1.4375,1.15625 c -62.57325,-61.75219 -148.40942,-99.999983 -242.75,-100 z m 0,116.8125 c 63.3167,2e-5 120.41632,25.30467 161.78125,66.40625 l 31.09375,38.40625 c 23.02069,35.76161 36.34375,78.42259 36.34375,124.375 -3e-5,116.70739 -85.96513,212.26307 -198.40625,227.1875 -3.06762,-12.05671 -16.27278,-21.06249 -32.1875,-21.0625 -15.74536,0 -28.81494,8.8238 -32.0625,20.6875 -111.14257,-16.05557 -195.75,-111.01793 -195.75,-226.8125 3e-5,-127.16227 102.02525,-229.1875 229.1875,-229.1875 z"
         id="path3886"
         sodipodi:nodetypes="csscccccccccccscscsc" />
    </g>
    <g
       id="g4278"
       transform="matrix(0.05922857,0,0,0.05922857,2.2923792,957.33216)"
       style="opacity:0.209205">
      <path
         inkscape:connector-curvature="0"
         id="path4236"
         d="m 275.18206,750.13106 c -5.1778,-19.14259 -16.53598,-36.73442 -33.59358,-49.42702 -40.43284,-30.08612 -98.12891,-21.60687 -128.21505,18.82597 -30.086148,40.43284 -21.614939,98.09872 18.81789,128.18487 9.7517,7.25628 20.51929,12.24559 31.64418,15.10585 l 17.97306,-24.32435 -0.55606,-3.76564 c -10.70475,-1.00687 -21.29583,-4.90002 -30.60357,-11.82592 -27.01266,-20.10021 -32.56562,-57.90452 -12.46543,-84.9172 20.10016,-27.01266 57.90452,-32.5656 84.91719,-12.46543 25.47619,18.95688 31.85628,53.66987 15.63832,80.21708 l 1.14112,-0.2087 -320.793518,431.09153 23.95775,17.8125 311.007998,-417.98736 c 2.20785,-2.38101 4.34413,-4.88974 6.32383,-7.55025 17.39354,-23.37522 21.90138,-52.53349 14.80587,-78.76593 z"
         style="opacity:0.45606695;fill:#f6f6f6;fill-opacity:1;fill-rule:evenodd;stroke:none" />
      <path
         inkscape:connector-curvature="0"
         style="opacity:0.45606695;fill:#f6f6f6;fill-opacity:1;fill-rule:evenodd;stroke:none"
         d="m 444.69501,637.05793 c 19.82317,-0.53889 39.93618,5.28758 56.99351,17.98056 40.43213,30.08706 48.88275,87.78733 18.79569,128.21949 -30.08705,40.43217 -87.75609,48.88182 -128.18826,18.79478 -9.75155,-7.25648 -17.62349,-16.13719 -23.55871,-25.97169 l 18.13674,-24.20255 3.76667,-0.54901 c 4.03926,9.96444 10.81053,18.99093 20.1181,25.91704 27.01225,20.10076 64.81848,14.56085 84.91926,-12.45137 20.10077,-27.01221 14.56084,-64.81847 -12.45138,-84.91926 -25.47577,-18.95745 -60.55853,-15.09776 -81.32859,8.06215 L 401.77018,686.78509 80.989561,1117.8863 57.046121,1100.0546 368.08556,682.09055 c 1.64648,-2.79872 3.43587,-5.56558 5.41562,-8.22606 17.39407,-23.37482 44.02875,-36.06809 71.19383,-36.80656 z"
         id="path4276" />
    </g>
    <path
       sodipodi:type="arc"
       style="opacity:0.10878661;fill:#ffffff;fill-opacity:1;fill-rule:evenodd;stroke:none"
       id="path4282"
       sodipodi:cx="202.85715"
       sodipodi:cy="861.42859"
       sodipodi:rx="20"
       sodipodi:ry="20"
       d="m 222.85715,861.42859 a 20,20 0 1 1 -40,0 20,20 0 1 1 40,0 z"
       transform="matrix(0.12341393,0,0,0.12341393,148.17607,909.12312)" />
    <path
       transform="matrix(0.07853613,0,0,0.07853613,1.2865987,925.44263)"
       d="m 222.85715,861.42859 a 20,20 0 1 1 -40,0 20,20 0 1 1 40,0 z"
       sodipodi:ry="20"
       sodipodi:rx="20"
       sodipodi:cy="861.42859"
       sodipodi:cx="202.85715"
       id="path4284"
       style="opacity:0.10878661;fill:#ffffff;fill-opacity:1;fill-rule:evenodd;stroke:none"
       sodipodi:type="arc" />
    <rect
       style="fill:#2ad4ff;fill-opacity:1;fill-rule:nonzero;stroke:none"
       id="rect2985"
       width="12.195122"
       height="175.60976"
       x="57.865856"
       y="852.36218" />
    <rect
       style="fill:#0000ff;fill-opacity:1;fill-rule:nonzero;stroke:none"
       id="rect2985-8"
       width="12.195122"
       height="175.60976"
       x="72.5"
       y="852.36218" />
    <rect
       style="fill:#ff00cc;fill-opacity:1;fill-rule:nonzero;stroke:none"
       id="rect2985-5"
       width="12.195122"
       height="175.60976"
       x="87.134148"
       y="852.36218" />
    <rect
       style="fill:#2aff2a;fill-opacity:1;fill-rule:nonzero;stroke:none"
       id="rect2985-8-0"
       width="12.195122"
       height="175.60976"
       x="101.7683"
       y="852.36218" />
    <rect
       style="fill:#ffff00;fill-opacity:1;fill-rule:nonzero;stroke:none"
       id="rect2985-2"
       width="12.195122"
       height="175.60976"
       x="116.40244"
       y="852.36218" />
    <rect
       style="fill:#ff0000;fill-opacity:1;fill-rule:nonzero;stroke:none"
       id="rect2985-8-2"
       width="12.195122"
       height="175.60976"
       x="131.03659"
       y="852.36218" />
    <text
       xml:space="preserve"
       style="font-size:73.17073059000000512px;font-style:normal;font-variant:normal;font-weight:normal;font-stretch:normal;line-height:100%;letter-spacing:0px;word-spacing:0px;fill:#000000;fill-opacity:1;stroke:none;font-family:Tengwar Annatar;-inkscape-font-specification:Tengwar Annatar Italic"
       x="84.085365"
       y="950.5329"
       id="text3807"
       sodipodi:linespacing="100%"><tspan
         sodipodi:role="line"
         id="tspan3809"
         x="84.085365"
         y="950.5329"
         style="font-size:73.17073059000000512px;font-style:italic;font-weight:normal;-inkscape-font-specification:Tengwar Annatar Italic;fill:#000000">i&amp;M</tspan></text>
    <g
       id="g3152">
      <rect
         y="1027.9719"
         x="0.54878163"
         height="24.390244"
         width="200"
         id="rect2987"
         style="fill:#80b3ff;fill-opacity:1;fill-rule:nonzero;stroke:none" />
      <path
         inkscape:connector-curvature="0"
         id="path3821"
         d="m 0.55465604,1028.4975 199.96774396,0"
         style="fill:#ffffff;stroke:#ffffff;stroke-width:0.60975611;stroke-linecap:butt;stroke-linejoin:miter;stroke-miterlimit:4;stroke-opacity:1;stroke-dasharray:none" />
      <text
         sodipodi:linespacing="125%"
         id="text3098"
         y="1046.6122"
         x="48.5"
         style="font-size:40px;font-style:normal;font-weight:normal;line-height:125%;letter-spacing:0px;word-spacing:0px;fill:#ffffff;fill-opacity:1;stroke:none;font-family:Sans"
         xml:space="preserve"><tspan
           style="font-size:18px;font-style:italic;font-variant:normal;font-weight:bold;font-stretch:normal;fill:#ffffff;font-family:Nimbus Sans L;-inkscape-font-specification:Nimbus Sans L Bold Italic"
           y="1046.6122"
           x="48.5"
           id="tspan3100"
           sodipodi:role="line">COVER MISSING</tspan></text>
      <text
         sodipodi:linespacing="125%"
         id="text3098-1"
         y="1046.1122"
         x="48.5"
         style="font-size:40px;font-style:normal;font-weight:normal;line-height:125%;letter-spacing:0px;word-spacing:0px;fill:#4d4d4d;fill-opacity:1;stroke:none;font-family:Sans"
         xml:space="preserve"><tspan
           style="font-size:18px;font-style:italic;font-variant:normal;font-weight:bold;font-stretch:normal;fill:#4d4d4d;font-family:Nimbus Sans L;-inkscape-font-specification:Nimbus Sans L Bold Italic"
           y="1046.1122"
           x="48.5"
           id="tspan3100-5"
           sodipodi:role="line">COVER MISSING</tspan></text>
    </g>
  </g>
</svg>
