<?xml version="1.0" encoding="UTF-8" standalone="no"?>
<!-- Created with Inkscape (http://www.inkscape.org/) -->

<svg
   xmlns:dc="http://purl.org/dc/elements/1.1/"
   xmlns:cc="http://creativecommons.org/ns#"
   xmlns:rdf="http://www.w3.org/1999/02/22-rdf-syntax-ns#"
   xmlns:svg="http://www.w3.org/2000/svg"
   xmlns="http://www.w3.org/2000/svg"
   xmlns:xlink="http://www.w3.org/1999/xlink"
   xmlns:sodipodi="http://sodipodi.sourceforge.net/DTD/sodipodi-0.dtd"
   xmlns:inkscape="http://www.inkscape.org/namespaces/inkscape"
   width="96"
   height="96"
   id="svg3767"
   version="1.1"
   inkscape:version="0.48.3.1 r9886"
   sodipodi:docname="equalizer.svg">
  <defs
     id="defs3769">
    <linearGradient
       x1="48"
       y1="90.868095"
       x2="48"
       y2="5.9877172"
       id="linearGradient4031-0"
       xlink:href="#ButtonShadow-5"
       gradientUnits="userSpaceOnUse"
       gradientTransform="translate(-0.56836554,2.7077445)" />
    <linearGradient
       x1="45.447727"
       y1="92.539597"
       x2="45.447727"
       y2="7.0165396"
       id="ButtonShadow-5"
       gradientUnits="userSpaceOnUse"
       gradientTransform="scale(1.0058652,0.994169)">
      <stop
         id="stop3750-0"
         style="stop-color:#000000;stop-opacity:1"
         offset="0" />
      <stop
         id="stop3752-2"
         style="stop-color:#000000;stop-opacity:0.58823532"
         offset="1" />
    </linearGradient>
    <linearGradient
       x1="48"
       y1="90.868095"
       x2="48"
       y2="5.9877172"
       id="linearGradient4023-9"
       xlink:href="#ButtonShadow-5"
       gradientUnits="userSpaceOnUse"
       gradientTransform="translate(-0.56836554,2.7077445)" />
    <linearGradient
       x1="45.447727"
       y1="92.539597"
       x2="45.447727"
       y2="7.0165396"
       id="linearGradient3791"
       gradientUnits="userSpaceOnUse"
       gradientTransform="scale(1.0058652,0.994169)">
      <stop
         id="stop3793"
         style="stop-color:#000000;stop-opacity:1"
         offset="0" />
      <stop
         id="stop3795"
         style="stop-color:#000000;stop-opacity:0.58823532"
         offset="1" />
    </linearGradient>
    <linearGradient
       x1="48"
       y1="90.868095"
       x2="48"
       y2="5.9877172"
       id="linearGradient4009-4"
       xlink:href="#ButtonShadow-5"
       gradientUnits="userSpaceOnUse"
       gradientTransform="translate(-0.56836554,2.7077445)" />
    <linearGradient
       x1="45.447727"
       y1="92.539597"
       x2="45.447727"
       y2="7.0165396"
       id="linearGradient3798"
       gradientUnits="userSpaceOnUse"
       gradientTransform="scale(1.0058652,0.994169)">
      <stop
         id="stop3800"
         style="stop-color:#000000;stop-opacity:1"
         offset="0" />
      <stop
         id="stop3802"
         style="stop-color:#000000;stop-opacity:0.58823532"
         offset="1" />
    </linearGradient>
    <linearGradient
       x1="48"
       y1="90.868095"
       x2="48"
       y2="5.9877172"
       id="linearGradient4001-3"
       xlink:href="#ButtonShadow-5"
       gradientUnits="userSpaceOnUse"
       gradientTransform="translate(-0.56836554,2.7077445)" />
    <linearGradient
       x1="45.447727"
       y1="92.539597"
       x2="45.447727"
       y2="7.0165396"
       id="linearGradient3805"
       gradientUnits="userSpaceOnUse"
       gradientTransform="scale(1.0058652,0.994169)">
      <stop
         id="stop3807"
         style="stop-color:#000000;stop-opacity:1"
         offset="0" />
      <stop
         id="stop3809"
         style="stop-color:#000000;stop-opacity:0.58823532"
         offset="1" />
    </linearGradient>
    <linearGradient
       x1="48"
       y1="90"
       x2="48"
       y2="5.9877172"
       id="linearGradient3989-5"
       xlink:href="#ButtonShadow-5"
       gradientUnits="userSpaceOnUse"
       gradientTransform="translate(0.43163446,2.7077445)" />
    <linearGradient
       x1="45.447727"
       y1="92.539597"
       x2="45.447727"
       y2="7.0165396"
       id="linearGradient3812"
       gradientUnits="userSpaceOnUse"
       gradientTransform="scale(1.0058652,0.994169)">
      <stop
         id="stop3814"
         style="stop-color:#000000;stop-opacity:1"
         offset="0" />
      <stop
         id="stop3816"
         style="stop-color:#000000;stop-opacity:0.58823532"
         offset="1" />
    </linearGradient>
    <linearGradient
       inkscape:collect="always"
       xlink:href="#linearGradient4141-7"
       id="linearGradient3087-1"
       gradientUnits="userSpaceOnUse"
       x1="48"
       y1="72.190804"
       x2="48"
       y2="5.9877172"
       gradientTransform="translate(0.43163446,1.7077444)" />
    <linearGradient
       x1="10.31979"
       y1="21"
       x2="10.31979"
       y2="0.99929649"
       id="linearGradient4141-7"
       gradientUnits="userSpaceOnUse">
      <stop
         id="stop4143-4"
         style="stop-color:#d3e0ef;stop-opacity:1"
         offset="0" />
      <stop
         id="stop4147-3"
         style="stop-color:#fbfcfd;stop-opacity:1"
         offset="0.69528329" />
      <stop
         id="stop4145-1"
         style="stop-color:#ecf2f8;stop-opacity:1"
         offset="1" />
    </linearGradient>
    <linearGradient
       inkscape:collect="always"
       xlink:href="#linearGradient4256-6"
       id="linearGradient3075-4"
       gradientUnits="userSpaceOnUse"
       x1="48"
       y1="72.190804"
       x2="48"
       y2="5.9877172"
       gradientTransform="translate(0.43163446,1.7077444)" />
    <linearGradient
       x1="10.31979"
       y1="21"
       x2="10.31979"
       y2="0.99929649"
       id="linearGradient4256-6"
       gradientUnits="userSpaceOnUse">
      <stop
         id="stop4258-9"
         style="stop-color:#d3e0ef;stop-opacity:1"
         offset="0" />
      <stop
         id="stop4260-4"
         style="stop-color:#fbfcfd;stop-opacity:1"
         offset="0.72792381" />
      <stop
         id="stop4262-2"
         style="stop-color:#ecf2f8;stop-opacity:1"
         offset="1" />
    </linearGradient>
    <linearGradient
       inkscape:collect="always"
       xlink:href="#linearGradient4096-6"
       id="linearGradient3071-2"
       gradientUnits="userSpaceOnUse"
       x1="40"
       y1="8"
       x2="40"
       y2="144"
       gradientTransform="translate(0.43163446,1.7077444)" />
    <linearGradient
       id="linearGradient4096-6">
      <stop
         id="stop4098-4"
         style="stop-color:#ffffff;stop-opacity:1"
         offset="0" />
      <stop
         id="stop4100-1"
         style="stop-color:#ffffff;stop-opacity:0"
         offset="1" />
    </linearGradient>
    <linearGradient
       x1="6"
       y1="77"
       x2="48"
       y2="77"
       id="linearGradient4197-2"
       xlink:href="#linearGradient3892-1-8"
       gradientUnits="userSpaceOnUse"
       gradientTransform="translate(0.43163446,1.7077444)" />
    <linearGradient
       id="linearGradient3892-1-8">
      <stop
         id="stop3894-1-8"
         style="stop-color:#000000;stop-opacity:0.58823532"
         offset="0" />
      <stop
         id="stop3896-3-9"
         style="stop-color:#000000;stop-opacity:0.47058824"
         offset="0.11780351" />
      <stop
         id="stop3898-6-2"
         style="stop-color:#000000;stop-opacity:0.39215687"
         offset="0.23809524" />
      <stop
         id="stop3900-3-8"
         style="stop-color:#000000;stop-opacity:0.3137255"
         offset="1" />
    </linearGradient>
    <linearGradient
       x1="6"
       y1="77"
       x2="48"
       y2="77"
       id="linearGradient4148-8-8"
       xlink:href="#linearGradient3892-1-8"
       gradientUnits="userSpaceOnUse"
       gradientTransform="translate(0.43163446,1.7077444)" />
    <linearGradient
       id="linearGradient3839">
      <stop
         id="stop3841"
         style="stop-color:#000000;stop-opacity:0.58823532"
         offset="0" />
      <stop
         id="stop3843"
         style="stop-color:#000000;stop-opacity:0.47058824"
         offset="0.11780351" />
      <stop
         id="stop3845"
         style="stop-color:#000000;stop-opacity:0.39215687"
         offset="0.23809524" />
      <stop
         id="stop3847"
         style="stop-color:#000000;stop-opacity:0.3137255"
         offset="1" />
    </linearGradient>
    <linearGradient
       x1="6"
       y1="77"
       x2="48"
       y2="77"
       id="linearGradient4199-8"
       xlink:href="#linearGradient3892-1-8"
       gradientUnits="userSpaceOnUse"
       gradientTransform="translate(0.43163446,1.7077444)" />
    <linearGradient
       id="linearGradient3850">
      <stop
         id="stop3852"
         style="stop-color:#000000;stop-opacity:0.58823532"
         offset="0" />
      <stop
         id="stop3854"
         style="stop-color:#000000;stop-opacity:0.47058824"
         offset="0.11780351" />
      <stop
         id="stop3856"
         style="stop-color:#000000;stop-opacity:0.39215687"
         offset="0.23809524" />
      <stop
         id="stop3858"
         style="stop-color:#000000;stop-opacity:0.3137255"
         offset="1" />
    </linearGradient>
  </defs>
  <sodipodi:namedview
     inkscape:document-units="in"
     pagecolor="#ffffff"
     bordercolor="#666666"
     borderopacity="1.0"
     inkscape:pageopacity="0.0"
     inkscape:pageshadow="2"
     inkscape:zoom="1"
     inkscape:cx="59.245824"
     inkscape:cy="-24.646626"
     inkscape:current-layer="layer1"
     id="namedview3771"
     showgrid="false"
     units="px"
     inkscape:window-width="1280"
     inkscape:window-height="749"
     inkscape:window-x="0"
     inkscape:window-y="25"
     inkscape:window-maximized="1"
     showguides="true"
     inkscape:guide-bbox="true" />
  <metadata
     id="metadata3773">
    <rdf:RDF>
      <cc:Work
         rdf:about="">
        <dc:format>image/svg+xml</dc:format>
        <dc:type
           rdf:resource="http://purl.org/dc/dcmitype/StillImage" />
        <dc:title />
      </cc:Work>
    </rdf:RDF>
  </metadata>
  <g
     inkscape:label="Layer 1"
     inkscape:groupmode="layer"
     id="layer1"
     transform="translate(0,-894)">
    <g
       id="g3089"
       transform="translate(-0.43163446,892.29227)">
      <g
         style="display:inline"
         id="layer3">
        <path
           style="opacity:0.07999998;fill:url(#linearGradient4031-0);fill-opacity:1;fill-rule:nonzero;stroke:none"
           id="path4029"
           d="m 12,4.03125 c -6.0701637,-0.1617408 -10.6911509,5.6895113 -9.96875,11.5 7.16e-5,0.04167 -7.01e-5,0.08333 0,0.125 0.030431,18.086218 -0.077787,36.153437 0.03125,54.25 a 0.93232674,0.93232674 0 0 0 0,0.0625 c 0.4297709,5.831518 6.2168912,9.674679 11.71875,9 0.0418,-0.0051 0.08323,0.0056 0.125,0 l 5.3125,0 c -0.679778,4.428501 -1.596836,8.895227 -2.0625,13.40625 a 0.93232674,0.93232674 0 0 0 0.03125,0.28125 c 0.279995,1.294203 1.371731,2.108795 2.46875,2.25 1.023884,0.131791 2.065552,-0.225148 2.84375,-1 l 0,0.03125 22.84375,-14.96875 c 13.185056,-0.02898 26.362788,0.07707 39.5625,-0.03125 a 0.93232674,0.93232674 0 0 0 0.0625,0 c 5.831518,-0.429771 9.674679,-6.216892 9,-11.71875 -0.0051,-0.0418 0.0056,-0.08323 0,-0.125 -0.03043,-18.00176 0.07779,-35.987855 -0.03125,-54 a 0.93232674,0.93232674 0 0 0 0,-0.0625 c -0.429771,-5.8315178 -6.216892,-9.6746792 -11.71875,-9 l -0.125,0 -70.0625,0 -0.03125,0 z"
           inkscape:connector-curvature="0" />
        <path
           style="opacity:0.1;fill:url(#linearGradient4023-9);fill-opacity:1;fill-rule:nonzero;stroke:none"
           id="path4015"
           inkscape:connector-curvature="0"
           d="M 12,4.96875 C 6.498217,4.8031106 2.2406967,10.230306 2.96875,15.520213 c 0.031153,18.132768 -0.06237,36.268711 0.046873,54.39949 0.3891125,5.279828 5.7301904,8.791471 10.757959,8.111547 2.17964,0 4.359279,0 6.538918,0 -0.693629,4.811167 -1.723208,9.637038 -2.21875,14.4375 0.399566,1.846889 2.79006,1.976363 3.910163,0.694482 C 29.700525,88.119238 37.397138,83.075244 45.09375,78.03125 58.368678,78.00033 71.646761,78.0933 84.919703,77.98438 90.199531,77.595267 93.711174,72.254189 93.03125,67.226421 93.000098,49.178106 93.093619,31.12662 92.984377,13.080297 92.595264,7.8004692 87.254186,4.2888256 82.226418,4.96875 c -23.408806,0 -46.817612,0 -70.226418,0 z" />
        <path
           style="opacity:0.15;fill:url(#linearGradient4009-4);fill-opacity:1;fill-rule:nonzero;stroke:none"
           id="path4007"
           d="M 12,6 C 7.5921478,6 4,9.5921478 4,14 l 0,55 c 0,4.407852 3.5921478,8 8,8 l 9.5,0 -2.40625,14.90625 a 0.98733463,0.98733463 0 0 0 1.5,0.96875 L 44.8125,77 84,77 c 4.407852,0 8,-3.592148 8,-8 L 92,14 C 92,9.5921478 88.407852,6 84,6 L 12,6 z"
           inkscape:connector-curvature="0" />
        <path
           style="opacity:0.3;fill:url(#linearGradient4001-3);fill-opacity:1;fill-rule:nonzero;stroke:none"
           id="rect3991"
           inkscape:connector-curvature="0"
           d="M 12,7 C 8.122,7 5,10.122 5,14 l 0,55 c 0,3.878 3.122,7 7,7 L 22.65625,76 20.0625,92.0625 44.5625,76 84,76 c 3.878,0 7,-3.122 7,-7 L 91,14 C 91,10.122 87.878,7 84,7 L 12,7 z" />
        <path
           style="opacity:0.45;fill:url(#linearGradient3989-5);fill-opacity:1;fill-rule:nonzero;stroke:none"
           id="path3984"
           inkscape:connector-curvature="0"
           d="M 12,7 C 8.676,7 6,9.676 6,13 l 0,56 c 0,3.324 2.676,6 6,6 l 12,0 -3,16 23,-16 40,0 c 3.324,0 6,-2.676 6,-6 L 90,13 C 90,9.676 87.324,7 84,7 L 12,7 z" />
      </g>
      <path
         d="M 12,6 C 8.676,6 6,8.676 6,12 l 0,56 c 0,3.324 2.676,6 6,6 l 12,0 -3,16 23,-16 40,0 c 3.324,0 6,-2.676 6,-6 L 90,12 C 90,8.676 87.324,6 84,6 L 12,6 z"
         inkscape:connector-curvature="0"
         id="rect2419"
         style="fill:url(#linearGradient3087-1);fill-opacity:1;fill-rule:nonzero;stroke:none" />
      <path
         d="M 12,6 C 8.676,6 6,8.676 6,12 l 0,52 c 0,3.324 2.676,6 6,6 l 12,0 -3,16 23,-16 40,0 c 3.324,0 6,-2.676 6,-6 L 90,12 C 90,8.676 87.324,6 84,6 z"
         inkscape:connector-curvature="0"
         id="path4061"
         style="fill:url(#linearGradient3075-4);fill-opacity:1;fill-rule:nonzero;stroke:none" />
      <path
         d="m 6,62 0,2 c 0,3.324 2.676,6 6,6 L 23.625,70 24,68 12,68 C 8.676,68 6,65.324 6,62 z m 84,0 c 0,3.324 -2.676,6 -6,6 L 44,68 21.4375,83.6875 21,86 44,70 84,70 c 3.324,0 6,-2.676 6,-6 l 0,-2 z"
         inkscape:connector-curvature="0"
         id="path4074"
         style="opacity:0.2;fill:#ffffff;fill-opacity:1;fill-rule:nonzero;stroke:none" />
      <path
         d="M 12,6 C 8.676,6 6,8.676 6,12 l 0,52 c 0,3.324 2.676,6 6,6 l 12,0 -3,16 23,-16 40,0 c 3.324,0 6,-2.676 6,-6 L 90,12 C 90,8.676 87.324,6 84,6 L 12,6 z m 0,1 72,0 c 2.789532,0 5,2.2104676 5,5 l 0,52 c 0,2.789532 -2.210468,5 -5,5 l -40,0 a 0.99593489,0.99593489 0 0 0 -0.5625,0.1875 l -21.03125,14.625 2.5625,-13.625 A 0.99593489,0.99593489 0 0 0 24,69 L 12,69 C 9.2104676,69 7,66.789532 7,64 L 7,12 C 7,9.2104676 9.2104676,7 12,7 z"
         inkscape:connector-curvature="0"
         id="path4083"
         style="opacity:0.45;fill:url(#linearGradient3071-2);fill-opacity:1;fill-rule:nonzero;stroke:none" />
      <g
         id="layer6">
        <path
           style="opacity:0.8;fill:#d4e0ef;fill-opacity:1;fill-rule:nonzero;stroke:none;display:inline"
           id="path4254"
           inkscape:connector-curvature="0"
           d="M 44,70 21,86 21,90 44,74 z" />
        <path
           style="opacity:0.7;fill:url(#linearGradient4197-2);fill-opacity:1;fill-rule:nonzero;stroke:none;display:inline"
           id="path4065"
           inkscape:connector-curvature="0"
           d="m 6,64 0,4 c 0,3.324 2.676,6 6,6 L 23.25,74 24,70 12,70 C 8.676,70 6,67.324 6,64 z m 84,0 c 0,3.324 -2.676,6 -6,6 l -40,0 -23,16 0,4 23,-16 40,0 c 3.324,0 6,-2.676 6,-6 z" />
        <path
           style="opacity:0.1;fill:url(#linearGradient4148-8-8);fill-opacity:1;fill-rule:nonzero;stroke:none;display:inline"
           id="path4142"
           inkscape:connector-curvature="0"
           d="m 6,66 0,2 c 0,3.324 2.676,6 6,6 L 23.25,74 24,70 23.625,70 23.25,72 12,72 C 8.676,72 6,69.324 6,66 z m 84,0 c 0,3.324 -2.676,6 -6,6 l -40,0 -23,16 0,2 23,-16 40,0 c 3.324,0 6,-2.676 6,-6 l 0,-2 z" />
        <path
           style="opacity:0.15;fill:#000000;fill-opacity:1;fill-rule:nonzero;stroke:none;display:inline"
           id="path4133"
           inkscape:connector-curvature="0"
           d="m 6,67 0,1 c 0,3.324 2.676,6 6,6 L 23.25,74 24,70 23.8125,70 23.25,73 12,73 C 8.676,73 6,70.324 6,67 z m 84,0 c 0,3.324 -2.676,6 -6,6 l -40,0 -23,16 0,1 23,-16 40,0 c 3.324,0 6,-2.676 6,-6 l 0,-1 z" />
        <path
           style="opacity:0.8;fill:url(#linearGradient4199-8);fill-opacity:1;fill-rule:nonzero;stroke:none;display:inline"
           id="path4151"
           inkscape:connector-curvature="0"
           d="M 44,70 21,86 21,90 44,74 z" />
      </g>
    </g>
    <rect
       style="opacity:0.50000000000000000;fill:#00ff00;fill-opacity:1;fill-rule:evenodd;stroke:none"
       id="rect3059"
       width="84.374992"
       height="34.895832"
       x="5.208334"
       y="913.18054" />
    <rect
       style="fill:#ffffff;fill-opacity:1;fill-rule:nonzero;stroke:none"
       id="rect3824-7"
       width="15"
       height="5"
       x="20.625"
       y="941.125" />
    <rect
       style="fill:#ffffff;fill-opacity:1;fill-rule:nonzero;stroke:none"
       id="rect3824-4-1"
       width="15"
       height="5"
       x="20.625"
       y="934.875" />
    <rect
       style="fill:#ffffff;fill-opacity:1;fill-rule:nonzero;stroke:none"
       id="rect3824-7-3"
       width="15"
       height="5"
       x="37.583336"
       y="941.125" />
    <rect
       style="fill:#ffffff;fill-opacity:1;fill-rule:nonzero;stroke:none"
       id="rect3824-4-1-8"
       width="15"
       height="5"
       x="37.583336"
       y="934.875" />
    <rect
       style="fill:#ffffff;fill-opacity:1;fill-rule:nonzero;stroke:none"
       id="rect3824-8-6-2"
       width="15"
       height="5"
       x="37.583336"
       y="922.375" />
    <rect
       style="fill:#ffffff;fill-opacity:1;fill-rule:nonzero;stroke:none"
       id="rect3824-3-9-3"
       width="15"
       height="5"
       x="37.583336"
       y="928.625" />
    <rect
       style="fill:#ffffff;fill-opacity:1;fill-rule:nonzero;stroke:none"
       id="rect3824-7-9"
       width="15"
       height="5"
       x="54.541668"
       y="941.125" />
    <rect
       style="fill:#ffffff;fill-opacity:1;fill-rule:nonzero;stroke:none"
       id="rect3824-4-1-88"
       width="15"
       height="5"
       x="54.541668"
       y="934.875" />
    <rect
       style="fill:#ffffff;fill-opacity:1;fill-rule:nonzero;stroke:none"
       id="rect3824-3-9-37"
       width="15"
       height="5"
       x="54.541668"
       y="928.625" />
    <rect
       style="fill:#ffffff;fill-opacity:1;fill-rule:nonzero;stroke:none"
       id="rect3824-7-92"
       width="15"
       height="5"
       x="71.5"
       y="941.125" />
  </g>
</svg>
