<?xml version="1.0" encoding="UTF-8" standalone="no"?>
<!-- Created with Inkscape (http://www.inkscape.org/) -->

<svg
   xmlns:dc="http://purl.org/dc/elements/1.1/"
   xmlns:cc="http://creativecommons.org/ns#"
   xmlns:rdf="http://www.w3.org/1999/02/22-rdf-syntax-ns#"
   xmlns:svg="http://www.w3.org/2000/svg"
   xmlns="http://www.w3.org/2000/svg"
   xmlns:xlink="http://www.w3.org/1999/xlink"
   xmlns:sodipodi="http://sodipodi.sourceforge.net/DTD/sodipodi-0.dtd"
   xmlns:inkscape="http://www.inkscape.org/namespaces/inkscape"
   width="96"
   height="96"
   id="svg3767"
   version="1.1"
   inkscape:version="0.48.3.1 r9886"
   sodipodi:docname="theme.svg">
  <defs
     id="defs3769">
    <linearGradient
       x1="48"
       y1="90.868095"
       x2="48"
       y2="5.9877172"
       id="linearGradient4031-0"
       xlink:href="#ButtonShadow-5"
       gradientUnits="userSpaceOnUse"
       gradientTransform="translate(-0.56836554,2.7077445)" />
    <linearGradient
       x1="45.447727"
       y1="92.539597"
       x2="45.447727"
       y2="7.0165396"
       id="ButtonShadow-5"
       gradientUnits="userSpaceOnUse"
       gradientTransform="scale(1.0058652,0.994169)">
      <stop
         id="stop3750-0"
         style="stop-color:#000000;stop-opacity:1"
         offset="0" />
      <stop
         id="stop3752-2"
         style="stop-color:#000000;stop-opacity:0.58823532"
         offset="1" />
    </linearGradient>
    <linearGradient
       x1="48"
       y1="90.868095"
       x2="48"
       y2="5.9877172"
       id="linearGradient4023-9"
       xlink:href="#ButtonShadow-5"
       gradientUnits="userSpaceOnUse"
       gradientTransform="translate(-0.56836554,2.7077445)" />
    <linearGradient
       x1="45.447727"
       y1="92.539597"
       x2="45.447727"
       y2="7.0165396"
       id="linearGradient3791"
       gradientUnits="userSpaceOnUse"
       gradientTransform="scale(1.0058652,0.994169)">
      <stop
         id="stop3793"
         style="stop-color:#000000;stop-opacity:1"
         offset="0" />
      <stop
         id="stop3795"
         style="stop-color:#000000;stop-opacity:0.58823532"
         offset="1" />
    </linearGradient>
    <linearGradient
       x1="48"
       y1="90.868095"
       x2="48"
       y2="5.9877172"
       id="linearGradient4009-4"
       xlink:href="#ButtonShadow-5"
       gradientUnits="userSpaceOnUse"
       gradientTransform="translate(-0.56836554,2.7077445)" />
    <linearGradient
       x1="45.447727"
       y1="92.539597"
       x2="45.447727"
       y2="7.0165396"
       id="linearGradient3798"
       gradientUnits="userSpaceOnUse"
       gradientTransform="scale(1.0058652,0.994169)">
      <stop
         id="stop3800"
         style="stop-color:#000000;stop-opacity:1"
         offset="0" />
      <stop
         id="stop3802"
         style="stop-color:#000000;stop-opacity:0.58823532"
         offset="1" />
    </linearGradient>
    <linearGradient
       x1="48"
       y1="90.868095"
       x2="48"
       y2="5.9877172"
       id="linearGradient4001-3"
       xlink:href="#ButtonShadow-5"
       gradientUnits="userSpaceOnUse"
       gradientTransform="translate(-0.56836554,2.7077445)" />
    <linearGradient
       x1="45.447727"
       y1="92.539597"
       x2="45.447727"
       y2="7.0165396"
       id="linearGradient3805"
       gradientUnits="userSpaceOnUse"
       gradientTransform="scale(1.0058652,0.994169)">
      <stop
         id="stop3807"
         style="stop-color:#000000;stop-opacity:1"
         offset="0" />
      <stop
         id="stop3809"
         style="stop-color:#000000;stop-opacity:0.58823532"
         offset="1" />
    </linearGradient>
    <linearGradient
       x1="48"
       y1="90"
       x2="48"
       y2="5.9877172"
       id="linearGradient3989-5"
       xlink:href="#ButtonShadow-5"
       gradientUnits="userSpaceOnUse"
       gradientTransform="translate(0.43163446,2.7077445)" />
    <linearGradient
       x1="45.447727"
       y1="92.539597"
       x2="45.447727"
       y2="7.0165396"
       id="linearGradient3812"
       gradientUnits="userSpaceOnUse"
       gradientTransform="scale(1.0058652,0.994169)">
      <stop
         id="stop3814"
         style="stop-color:#000000;stop-opacity:1"
         offset="0" />
      <stop
         id="stop3816"
         style="stop-color:#000000;stop-opacity:0.58823532"
         offset="1" />
    </linearGradient>
    <linearGradient
       inkscape:collect="always"
       xlink:href="#linearGradient4141-7"
       id="linearGradient3087-1"
       gradientUnits="userSpaceOnUse"
       x1="48"
       y1="72.190804"
       x2="48"
       y2="5.9877172"
       gradientTransform="translate(0.43163446,1.7077444)" />
    <linearGradient
       x1="10.31979"
       y1="21"
       x2="10.31979"
       y2="0.99929649"
       id="linearGradient4141-7"
       gradientUnits="userSpaceOnUse">
      <stop
         id="stop4143-4"
         style="stop-color:#d3e0ef;stop-opacity:1"
         offset="0" />
      <stop
         id="stop4147-3"
         style="stop-color:#fbfcfd;stop-opacity:1"
         offset="0.69528329" />
      <stop
         id="stop4145-1"
         style="stop-color:#ecf2f8;stop-opacity:1"
         offset="1" />
    </linearGradient>
    <linearGradient
       inkscape:collect="always"
       xlink:href="#linearGradient4256-6"
       id="linearGradient3075-4"
       gradientUnits="userSpaceOnUse"
       x1="48"
       y1="72.190804"
       x2="48"
       y2="5.9877172"
       gradientTransform="translate(0.43163446,1.7077444)" />
    <linearGradient
       x1="10.31979"
       y1="21"
       x2="10.31979"
       y2="0.99929649"
       id="linearGradient4256-6"
       gradientUnits="userSpaceOnUse">
      <stop
         id="stop4258-9"
         style="stop-color:#d3e0ef;stop-opacity:1"
         offset="0" />
      <stop
         id="stop4260-4"
         style="stop-color:#fbfcfd;stop-opacity:1"
         offset="0.72792381" />
      <stop
         id="stop4262-2"
         style="stop-color:#ecf2f8;stop-opacity:1"
         offset="1" />
    </linearGradient>
    <linearGradient
       inkscape:collect="always"
       xlink:href="#linearGradient4096-6"
       id="linearGradient3071-2"
       gradientUnits="userSpaceOnUse"
       x1="40"
       y1="8"
       x2="40"
       y2="144"
       gradientTransform="translate(0.43163446,1.7077444)" />
    <linearGradient
       id="linearGradient4096-6">
      <stop
         id="stop4098-4"
         style="stop-color:#ffffff;stop-opacity:1"
         offset="0" />
      <stop
         id="stop4100-1"
         style="stop-color:#ffffff;stop-opacity:0"
         offset="1" />
    </linearGradient>
    <linearGradient
       x1="6"
       y1="77"
       x2="48"
       y2="77"
       id="linearGradient4197-2"
       xlink:href="#linearGradient3892-1-8"
       gradientUnits="userSpaceOnUse"
       gradientTransform="translate(0.43163446,1.7077444)" />
    <linearGradient
       id="linearGradient3892-1-8">
      <stop
         id="stop3894-1-8"
         style="stop-color:#000000;stop-opacity:0.58823532"
         offset="0" />
      <stop
         id="stop3896-3-9"
         style="stop-color:#000000;stop-opacity:0.47058824"
         offset="0.11780351" />
      <stop
         id="stop3898-6-2"
         style="stop-color:#000000;stop-opacity:0.39215687"
         offset="0.23809524" />
      <stop
         id="stop3900-3-8"
         style="stop-color:#000000;stop-opacity:0.3137255"
         offset="1" />
    </linearGradient>
    <linearGradient
       x1="6"
       y1="77"
       x2="48"
       y2="77"
       id="linearGradient4148-8-8"
       xlink:href="#linearGradient3892-1-8"
       gradientUnits="userSpaceOnUse"
       gradientTransform="translate(0.43163446,1.7077444)" />
    <linearGradient
       id="linearGradient3839">
      <stop
         id="stop3841"
         style="stop-color:#000000;stop-opacity:0.58823532"
         offset="0" />
      <stop
         id="stop3843"
         style="stop-color:#000000;stop-opacity:0.47058824"
         offset="0.11780351" />
      <stop
         id="stop3845"
         style="stop-color:#000000;stop-opacity:0.39215687"
         offset="0.23809524" />
      <stop
         id="stop3847"
         style="stop-color:#000000;stop-opacity:0.3137255"
         offset="1" />
    </linearGradient>
    <linearGradient
       x1="6"
       y1="77"
       x2="48"
       y2="77"
       id="linearGradient4199-8"
       xlink:href="#linearGradient3892-1-8"
       gradientUnits="userSpaceOnUse"
       gradientTransform="translate(0.43163446,1.7077444)" />
    <linearGradient
       id="linearGradient3850">
      <stop
         id="stop3852"
         style="stop-color:#000000;stop-opacity:0.58823532"
         offset="0" />
      <stop
         id="stop3854"
         style="stop-color:#000000;stop-opacity:0.47058824"
         offset="0.11780351" />
      <stop
         id="stop3856"
         style="stop-color:#000000;stop-opacity:0.39215687"
         offset="0.23809524" />
      <stop
         id="stop3858"
         style="stop-color:#000000;stop-opacity:0.3137255"
         offset="1" />
    </linearGradient>
    <filter
       inkscape:collect="always"
       id="filter3968"
       x="-0.081528633"
       width="1.1630573"
       y="-0.11531537"
       height="1.2306307">
      <feGaussianBlur
         inkscape:collect="always"
         stdDeviation="1.6822007"
         id="feGaussianBlur3970" />
    </filter>
    <clipPath
       clipPathUnits="userSpaceOnUse"
       id="clipPath20">
      <path
         inkscape:connector-curvature="0"
         d="m 5002.76,1965.03 c 153.31,110.9 253.53,228.66 308.32,298.45 121.49,154.71 566.49,6.73 739.41,309.51 72.18,126.43 -29.53,390.48 -375.11,284.54 -273.02,-83.69 -594.83,-489.45 -730.17,-278.76 -273.68,426.14 378.64,604.36 603.06,966.48 217.47,350.85 -185.05,707.67 -432.26,429.77 -193.48,-217.46 18.37,-620 -357.21,-602.49 -370.14,17.28 328.62,579.93 -11.84,1040.79 -183.47,248.35 -560.9,78.64 -422.52,-178.59 117.59,-218.57 354.16,-352.78 113.31,-489.4 -232.55,-131.91 -85.6,306.34 -378.82,240.11 -263.22,-59.45 -499.93,-481.12 -141.84,-737.89 184.04,-131.95 25.68,-337.97 -128.27,-327.87 -149.27,9.83 -176.85,202.6 -360.4,83.75 -214.03,-138.54 -65.58,-439.87 370.19,-436.09 667.64,5.8 -265.77,-1508.22 -265.77,-1508.22 0,0 1427.78,875.42 1469.92,905.91 z"
         id="path22" />
    </clipPath>
    <clipPath
       clipPathUnits="userSpaceOnUse"
       id="clipPath544">
      <path
         inkscape:connector-curvature="0"
         d="m 4979.04,1948.91 c 150.76,109.06 257.38,275.13 311.26,343.75 119.47,152.15 566.46,8.45 719.07,254.11 75.56,121.62 -29.05,384.01 -368.88,279.83 -268.48,-82.29 -584.96,-481.33 -718.05,-274.14 -269.13,419.06 362.52,635.68 583.21,991.79 213.85,345.04 -142.96,651.97 -386.08,378.67 -190.26,-213.84 -11.11,-607.09 -380.44,-589.86 -364,16.98 314.14,615.96 -20.67,1069.17 -180.43,244.23 -491.22,54.1 -355.14,-198.87 115.64,-214.93 296.93,-369.35 60.08,-503.7 -228.7,-129.72 -84.17,301.27 -372.53,236.13 -258.86,-58.47 -450.72,-425.51 -70.01,-688.18 183.31,-126.46 -44.22,-369.83 -195.63,-359.9 -146.77,9.67 -173.9,199.23 -354.4,82.37 -210.48,-136.24 -4.61,-391.22 423.91,-387.5 656.57,5.69 -321.22,-1524.56 -321.22,-1524.56 0,0 1404.07,860.91 1445.52,890.89 z"
         id="path546" />
    </clipPath>
    <clipPath
       clipPathUnits="userSpaceOnUse"
       id="clipPath1000">
      <path
         inkscape:connector-curvature="0"
         d="m 4887.3,1863.51 c 141.66,102.43 307.25,258.42 302.78,346.07 -11.91,233.23 -192.47,96.07 -317.49,290.7 -252.83,393.68 192.01,611.02 180.39,723.82 -20.76,201.63 -235.74,32.93 -362.11,41.18 -224.39,14.64 -32.57,408.62 -153.47,382.42 -243.63,-52.8 -579.89,-400.32 -467.8,-517.96 100.86,-105.86 -125.14,-283.66 -267.02,-297.39 -73.9,-7.14 -71.75,-144.53 276.55,-346.41 319.22,-185.03 -549.75,-1459.33 -549.75,-1459.33 0,0 1319,808.72 1357.92,836.9 z"
         id="path1002" />
    </clipPath>
    <clipPath
       clipPathUnits="userSpaceOnUse"
       id="clipPath1524">
      <path
         inkscape:connector-curvature="0"
         d="m 4001.8,3242.72 c 0,0 -241.86,98.91 -200.04,420.4 20.5,157.65 129.9,264.25 227.82,278.48 136.51,19.86 299.83,-77.88 80.96,-326.98 -109.97,-125.15 -108.74,-371.9 -108.74,-371.9 z"
         id="path1526" />
    </clipPath>
    <clipPath
       clipPathUnits="userSpaceOnUse"
       id="clipPath1996">
      <path
         inkscape:connector-curvature="0"
         d="m 4154.88,3688.59 c -108.86,-93.93 -164.62,7.04 -234.28,-42.13 -68.58,-48.43 -104.97,-92.44 -105.84,-88.27 -20.82,99.03 38.35,290.49 136.36,344.75 75.89,42.04 186.64,42.73 230.55,-19.31 40.36,-57.08 21.86,-153.07 -26.79,-195.04 z"
         id="path1998" />
    </clipPath>
    <clipPath
       clipPathUnits="userSpaceOnUse"
       id="clipPath2392">
      <path
         inkscape:connector-curvature="0"
         d="m 4041.17,3172.39 c -308.12,198.79 -295.49,492.88 -175.31,673.88 -107.32,-197.64 -123.68,-463.85 175.31,-673.88 z"
         id="path2394" />
    </clipPath>
    <clipPath
       clipPathUnits="userSpaceOnUse"
       id="clipPath2918">
      <path
         inkscape:connector-curvature="0"
         d="m 5335.25,2513.72 c 0,0 49.01,252.13 362.14,322.69 153.54,34.61 275.13,-28.41 306.84,-112.17 44.24,-116.78 -105.52,-366.46 -295.42,-252.95 -209.24,125.08 -373.56,42.43 -373.56,42.43 z"
         id="path2920" />
    </clipPath>
    <clipPath
       clipPathUnits="userSpaceOnUse"
       id="clipPath3440">
      <path
         inkscape:connector-curvature="0"
         d="m 5787.2,2525.6 c -109.46,66.8 -23.91,151.27 -83.56,197.7 -58.74,45.7 -107.3,63.77 -103.51,66 90.2,52.19 283.04,63.23 352.8,-7.14 54.02,-54.46 75.27,-154.41 24.49,-215.04 -46.72,-55.75 -141.33,-71.39 -190.22,-41.52 z"
         id="path3442" />
    </clipPath>
    <clipPath
       clipPathUnits="userSpaceOnUse"
       id="clipPath3964">
      <path
         inkscape:connector-curvature="0"
         d="m 4949.18,2493.55 c 259.79,-68.94 652.64,482.5 934.08,346.63 -313.32,94.68 -724.2,-453.7 -934.08,-346.63 z"
         id="path3966" />
    </clipPath>
    <clipPath
       clipPathUnits="userSpaceOnUse"
       id="clipPath4488">
      <path
         inkscape:connector-curvature="0"
         d="m 4768.36,3900.66 c 0,0 140.14,207.27 -30.92,463.89 -83.87,125.85 -212.89,162.8 -293.16,125.77 -111.92,-51.61 -193.13,-218.31 80.52,-323.21 137.49,-52.7 243.56,-266.45 243.56,-266.45 z"
         id="path4490" />
    </clipPath>
    <clipPath
       clipPathUnits="userSpaceOnUse"
       id="clipPath4878">
      <path
         inkscape:connector-curvature="0"
         d="m 4459.18,4208.67 c 123.12,-26.29 121.51,89 195.56,81.62 72.9,-7.28 119.51,-26.96 118.38,-22.92 -27.19,96.02 -154.99,231.59 -252.71,229.09 -75.63,-1.93 -159.77,-57.12 -166.08,-132.83 -5.79,-69.63 49.83,-143.21 104.85,-154.96 z"
         id="path4880" />
    </clipPath>
    <clipPath
       clipPathUnits="userSpaceOnUse"
       id="clipPath5406">
      <path
         inkscape:connector-curvature="0"
         d="m 4769.06,3820.08 c 146.97,326.92 9.9,574.58 -159.55,670.38 166.93,-116.66 294.75,-338.35 159.55,-670.38 z"
         id="path5408" />
    </clipPath>
    <clipPath
       clipPathUnits="userSpaceOnUse"
       id="clipPath5930">
      <path
         inkscape:connector-curvature="0"
         d="m 5182.28,3268.36 c 0,0 291.93,44.49 377.44,398.29 41.92,173.5 -40.48,294.75 -125.74,354.9 -133.87,94.47 -490.77,-55.48 -309.28,-349.95 123.77,-200.83 57.58,-403.24 57.58,-403.24 z"
         id="path5932" />
    </clipPath>
    <clipPath
       clipPathUnits="userSpaceOnUse"
       id="clipPath6452">
      <path
         inkscape:connector-curvature="0"
         d="m 5116.1,3797.52 c 61.62,-100.04 190.7,-40.55 277.18,-103.75 69.81,-51 82.12,-196.48 84.72,-192.25 61.46,100.47 96.93,370.99 22.26,458.92 -77.77,91.59 -193.81,81.14 -275.8,44.83 -96.53,-42.76 -143.18,-151.21 -108.36,-207.75 z"
         id="path6454" />
    </clipPath>
    <clipPath
       clipPathUnits="userSpaceOnUse"
       id="clipPath6980">
      <path
         inkscape:connector-curvature="0"
         d="m 5112.98,3203.21 c 401.13,134.4 506.06,451.59 453.44,675.2 32.53,-238.15 -57.32,-526.48 -453.44,-675.2 z"
         id="path6982" />
    </clipPath>
    <clipPath
       clipPathUnits="userSpaceOnUse"
       id="clipPath7504">
      <path
         inkscape:connector-curvature="0"
         d="m 3870.87,2642.85 c 0,0 -204.13,-117.26 -412.09,29.3 -102.01,71.83 -118.4,181.32 -74.76,249.04 60.83,94.43 220.9,162.06 279.47,-70.34 29.42,-116.76 207.38,-208 207.38,-208 z"
         id="path7506" />
    </clipPath>
    <clipPath
       clipPathUnits="userSpaceOnUse"
       id="clipPath7916">
      <path
         inkscape:connector-curvature="0"
         d="m 3634.74,2906.7 c 7.59,-104.41 -95.62,-102.3 -98.62,-165.04 -2.94,-61.77 8.67,-101.39 5.2,-100.38 -82.62,23.66 -187.61,132.78 -172.68,215.49 11.54,64.04 71.98,134.9 140.7,139.73 63.22,4.45 122,-43.14 125.4,-89.8 z"
         id="path7918" />
    </clipPath>
    <clipPath
       clipPathUnits="userSpaceOnUse"
       id="clipPath8446">
      <path
         inkscape:connector-curvature="0"
         d="m 3943.07,2641.74 c -312.35,-122.27 -516.69,-4.53 -580.63,139.55 82.98,-142.09 265.24,-251.82 580.63,-139.55 z"
         id="path8448" />
    </clipPath>
    <clipPath
       clipPathUnits="userSpaceOnUse"
       id="clipPath8970">
      <path
         inkscape:connector-curvature="0"
         d="m 4072.11,5849.99 c 0,-67.62 -54.77,-122.44 -122.45,-122.44 -67.58,0 -122.43,54.82 -122.43,122.44 0,67.64 54.85,122.46 122.43,122.46 67.68,0 122.45,-54.82 122.45,-122.46 z"
         id="path8972" />
    </clipPath>
    <clipPath
       clipPathUnits="userSpaceOnUse"
       id="clipPath9342">
      <path
         inkscape:connector-curvature="0"
         d="m 4072.11,5849.98 c 0,-59.49 -48.2,-107.72 -107.74,-107.72 -59.48,0 -107.73,48.23 -107.73,107.72 0,59.52 48.25,107.75 107.73,107.75 59.54,0 107.74,-48.23 107.74,-107.75 z"
         id="path9344" />
    </clipPath>
    <clipPath
       clipPathUnits="userSpaceOnUse"
       id="clipPath9864">
      <path
         inkscape:connector-curvature="0"
         d="m 4042.31,5922.04 c 23.66,-28.39 25.5,-65.86 4.12,-83.7 -21.41,-17.85 -57.93,-9.29 -81.61,19.1 -23.66,28.39 -25.51,65.86 -4.12,83.71 21.42,17.83 57.93,9.28 81.61,-19.11 z"
         id="path9866" />
    </clipPath>
    <clipPath
       clipPathUnits="userSpaceOnUse"
       id="clipPath10368">
      <path
         inkscape:connector-curvature="0"
         d="m 4783.34,1671.94 c 0,0 -193.34,-221.93 146.66,-388.59 340,-166.66 -313.33,-146.67 -146.66,-339.998 166.67,-193.332 651.95,-373.34 116.17,-486.672 -217.23,-45.961 103.92,-97.91 97.16,-253.328 C 4992.5,107.5 4835.84,43.3516 5222.5,0 l 2697.5,0 0,1671.94 -3136.66,0 z"
         id="path10370" />
    </clipPath>
    <clipPath
       clipPathUnits="userSpaceOnUse"
       id="clipPath10794">
      <path
         inkscape:connector-curvature="0"
         d="M 2296.67,0 5222.5,0 c -386.66,43.3516 -230,107.5 -225.83,203.352 6.76,155.418 -314.39,207.367 -97.16,253.328 535.78,113.332 50.5,293.34 -116.17,486.672 -166.67,193.328 486.66,173.338 146.66,339.998 -340,166.66 -146.66,388.59 -146.66,388.59 l -1726.67,0 c 0,0 110.07,-379.29 -149.93,-399.29 -260,-20 308.64,-562.65 47.87,-562.65 C 2376.67,710 2833.35,407.281 2326.69,387.27 1999.65,374.352 2796.67,56.6719 2296.67,0 z"
         id="path10796" />
    </clipPath>
    <clipPath
       clipPathUnits="userSpaceOnUse"
       id="clipPath11146">
      <path
         inkscape:connector-curvature="0"
         d="m 2326.69,387.27 c 506.66,20.011 49.98,322.73 627.92,322.73 260.77,0 -307.87,542.65 -47.87,562.65 260,20 149.93,399.29 149.93,399.29 L 0,1671.94 0,0 2296.67,0 c 500,56.6719 -297.02,374.352 30.02,387.27 z"
         id="path11148" />
    </clipPath>
    <clipPath
       clipPathUnits="userSpaceOnUse"
       id="clipPath11610">
      <path
         inkscape:connector-curvature="0"
         d="m 2078.45,387.27 c 452.61,20.011 44.66,322.73 560.93,322.73 232.94,0 -275.02,542.65 -42.76,562.65 232.26,20 133.94,399.29 133.94,399.29 L 0,1671.94 0,0 2051.64,0 c 446.66,56.6719 -265.33,374.352 26.81,387.27 z"
         id="path11612" />
    </clipPath>
    <clipPath
       clipPathUnits="userSpaceOnUse"
       id="clipPath12130">
      <path
         inkscape:connector-curvature="0"
         d="m 5117.51,1671.94 c 0,0 -172.74,-221.93 131.03,-388.59 C 5552.32,1116.69 4968.59,1136.68 5117.51,943.352 5266.43,750.02 5700,570.012 5221.3,456.68 5027.21,410.719 5314.15,358.77 5308.11,203.352 5304.38,107.5 5164.41,43.3516 5509.88,0 L 7920,0 l 0,1671.94 -2802.49,0 z"
         id="path12132" />
    </clipPath>
    <clipPath
       clipPathUnits="userSpaceOnUse"
       id="clipPath12654">
      <path
         inkscape:connector-curvature="0"
         d="m 2597.63,0 2324.89,0 c -307.25,43.3516 -182.76,107.5 -179.44,203.352 5.36,155.418 -249.83,207.367 -77.21,253.328 425.73,113.332 40.13,293.34 -92.32,486.672 -132.43,193.328 386.71,173.338 116.55,339.998 -270.17,166.66 -116.55,388.59 -116.55,388.59 l -1372.02,0 c 0,0 87.46,-379.29 -119.14,-399.29 C 2875.8,1252.65 3327.64,710 3120.43,710 2661.2,710 3024.08,407.281 2621.48,387.27 2361.61,374.352 2994.94,56.6719 2597.63,0 z"
         id="path12656" />
    </clipPath>
    <clipPath
       clipPathUnits="userSpaceOnUse"
       id="clipPath13132">
      <path
         inkscape:connector-curvature="0"
         d="m 1682.43,387.27 c 366.37,20.011 36.14,322.73 454.04,322.73 188.56,0 -222.61,542.65 -34.61,562.65 188.01,20 108.42,399.29 108.42,399.29 L 0,1671.94 0,0 1660.72,0 c 361.56,56.6719 -214.77,374.352 21.71,387.27 z"
         id="path13134" />
    </clipPath>
    <clipPath
       clipPathUnits="userSpaceOnUse"
       id="clipPath13640">
      <path
         inkscape:connector-curvature="0"
         d="m 5570.42,1671.94 c 0,0 -144.83,-221.93 109.85,-388.59 254.69,-166.66 -234.7,-146.67 -109.85,-339.998 124.84,-193.332 488.35,-373.34 87.01,-486.672 -162.72,-45.961 77.85,-97.91 72.78,-253.328 C 5727.09,107.5 5609.75,43.3516 5899.38,0 L 7920,0 l 0,1671.94 -2349.58,0 z"
         id="path13642" />
    </clipPath>
    <clipPath
       clipPathUnits="userSpaceOnUse"
       id="clipPath14162">
      <path
         inkscape:connector-curvature="0"
         d="m 2884.23,0 1731.08,0 c -228.77,43.3516 -136.08,107.5 -133.61,203.352 3.99,155.418 -186.01,207.367 -57.49,253.328 317.01,113.332 29.88,293.34 -68.73,486.672 -98.61,193.328 287.94,173.338 86.78,339.998 -201.18,166.66 -86.78,388.59 -86.78,388.59 l -1021.59,0 c 0,0 65.11,-379.29 -88.71,-399.29 C 3091.34,1252.65 3427.78,710 3273.5,710 2931.56,710 3201.76,407.281 2901.99,387.27 2708.49,374.352 3180.06,56.6719 2884.23,0 z"
         id="path14164" />
    </clipPath>
    <clipPath
       clipPathUnits="userSpaceOnUse"
       id="clipPath14536">
      <path
         inkscape:connector-curvature="0"
         d="m 6145.38,1671.94 c 0,0 -109.38,-221.93 82.98,-388.59 192.36,-166.66 -177.28,-146.67 -82.98,-339.998 94.3,-193.332 368.85,-373.34 65.72,-486.672 -122.9,-45.961 58.8,-97.91 54.97,-253.328 C 6263.71,107.5 6175.09,43.3516 6393.84,0 L 7920,0 l 0,1671.94 -1774.62,0 z"
         id="path14538" />
    </clipPath>
    <clipPath
       clipPathUnits="userSpaceOnUse"
       id="clipPath15058">
      <path
         inkscape:connector-curvature="0"
         d="m 4784.85,1671.94 -2249.24,0 c 0,0 -183.12,0 -53.44,111.74 53.36,45.97 184.6,-48.57 252.08,4.86 146.87,116.32 -127.35,289.74 -298.31,319.14 -672.61,115.65 -1177.34,-201.01 -1139.12,132.65 25.01,218.26 465.23,-14.92 466.37,194.32 1.14,209.24 -447.35,93.77 -825.85,102.01 -223.473,4.86 -368.317,47.71 -369.215,155.46 -1.516,184.6 213.473,295 456.655,281.76 534.38,-29.15 947.79,-517.63 1054.18,-262.33 97.15,233.18 -785.02,214.33 -927.88,563.53 -218.603,534.37 466.37,699.54 759.14,397.78 184.03,-189.73 436.11,-914.97 934.71,-818.8 205.62,39.62 155.41,129.49 -110.15,310.92 -265.55,181.33 242.15,310.75 471.23,104.06 359.48,-324.31 -31.62,-599.72 551.34,-774.62 582.94,-174.89 901.19,17.96 1341.66,-132.63 179,-61.22 414.53,-330.35 51.82,-349.79 -324.99,-17.42 -638.03,126.31 -790.22,66.85 -165.59,-64.73 -155.49,-248.23 64.74,-189.92 220.26,58.29 377.11,20.45 408.08,-64.76 38.52,-106.07 -48.58,-152.23 -48.58,-152.23 z"
         id="path15060" />
    </clipPath>
    <clipPath
       clipPathUnits="userSpaceOnUse"
       id="clipPath15550">
      <path
         inkscape:connector-curvature="0"
         d="m 4789.36,1671.94 -2231.06,0 c -128.3,4.73 -123.65,78.85 -58.3,110.56 52.24,25.35 174.74,-50.49 241.67,2.5 145.69,115.39 -107.25,286.4 -279.17,332.5 -545.93,146.42 -1210.02,-175.83 -1141.25,113.75 50.38,212.01 469.76,-10.31 470.89,197.23 1.13,207.55 -421.7,132.44 -797.14,140.62 -221.664,4.83 -387.371,7.89 -388.262,114.77 -1.504,183.1 224.742,264.7 466.062,253.63 385.92,-17.71 1000.53,-564.17 1132.99,-223.65 90.83,233.51 -879.11,201.88 -1020.81,548.26 -216.839,530.05 432.69,643.61 723.1,344.29 182.54,-188.19 450.69,-897.79 945.25,-802.39 203.96,39.3 186.74,179.04 -76.66,358.99 -263.41,179.87 209.44,281.94 436.66,76.92 356.58,-321.7 -51.55,-588.87 526.69,-762.34 578.22,-173.48 924.03,28.01 1360.96,-121.37 177.54,-60.73 411.17,-327.68 51.39,-346.96 -322.36,-17.28 -632.87,125.29 -783.83,66.31 -164.25,-64.2 -154.23,-246.21 64.22,-188.39 218.47,57.82 374.06,20.29 404.78,-64.23 38.21,-105.22 -48.18,-151 -48.18,-151 z"
         id="path15552" />
    </clipPath>
    <clipPath
       clipPathUnits="userSpaceOnUse"
       id="clipPath16068">
      <path
         inkscape:connector-curvature="0"
         d="m 4795.49,1671.94 -1994.86,0 c 0,0 -87.48,46.11 -20,99.53 146.87,116.33 -112.38,332.55 -284.25,356.03 -675.95,92.32 -660.13,155.88 -658.99,365.12 1.14,209.24 380.38,-58.82 433.24,212.66 39.31,201.9 225.75,-15.28 636.66,72.82 276.99,59.38 268.81,-173.21 851.78,-348.1 582.94,-174.89 910.09,82.38 1350.58,-68.21 178.98,-61.22 414.53,-330.35 51.81,-349.79 -325,-17.42 -638.02,126.31 -790.23,66.85 -165.59,-64.73 -155.49,-248.23 64.75,-189.92 220.25,58.29 377.11,20.45 408.08,-64.76 38.52,-106.07 -48.57,-152.23 -48.57,-152.23 z"
         id="path16070" />
    </clipPath>
    <clipPath
       clipPathUnits="userSpaceOnUse"
       id="clipPath16592">
      <path
         inkscape:connector-curvature="0"
         d="m 5371.73,4430.52 c 0,0 -195.77,226.48 -43.52,516 74.65,141.95 203.28,182.43 297.86,133.98 115.64,-59.31 142.13,-201.61 -68.95,-301.69 -154.73,-73.49 -179.16,-305.48 -185.39,-348.29 z"
         id="path16594" />
    </clipPath>
    <clipPath
       clipPathUnits="userSpaceOnUse"
       id="clipPath17116">
      <path
         inkscape:connector-curvature="0"
         d="m 5351.28,4537.59 c 0,0 -138.45,174.81 -3.63,414.35 66.1,117.45 178.29,158.96 252.12,131.42 102.92,-38.36 186.27,-181.07 -49.9,-292.64 -118.67,-56.06 -198.59,-253.13 -198.59,-253.13 z"
         id="path17118" />
    </clipPath>
    <clipPath
       clipPathUnits="userSpaceOnUse"
       id="clipPath17490">
      <path
         inkscape:connector-curvature="0"
         d="m 5605.41,4832.05 c -107.65,-31.62 -113.97,70.96 -179.27,59.43 -64.31,-11.36 -104.41,-31.97 -103.67,-28.3 17.73,87.16 122.22,216.2 209.22,220.53 67.35,3.36 145.81,-40.05 156.5,-106.9 9.83,-61.5 -34.67,-130.62 -82.78,-144.76 z"
         id="path17492" />
    </clipPath>
    <clipPath
       clipPathUnits="userSpaceOnUse"
       id="clipPath17922">
      <path
         inkscape:connector-curvature="0"
         d="m 4134.1,4266.16 c 0,-104.01 -84.26,-188.33 -188.35,-188.33 -103.95,0 -188.33,84.32 -188.33,188.33 0,104.05 84.38,188.37 188.33,188.37 104.09,0 188.35,-84.32 188.35,-188.37 z"
         id="path17924" />
    </clipPath>
    <clipPath
       clipPathUnits="userSpaceOnUse"
       id="clipPath18446">
      <path
         inkscape:connector-curvature="0"
         d="m 4134.1,4266.16 c 0,-91.52 -74.14,-165.72 -165.74,-165.72 -91.47,0 -165.71,74.2 -165.71,165.72 0,91.55 74.24,165.75 165.71,165.75 91.6,0 165.74,-74.2 165.74,-165.75 z"
         id="path18448" />
    </clipPath>
    <clipPath
       clipPathUnits="userSpaceOnUse"
       id="clipPath18968">
      <path
         inkscape:connector-curvature="0"
         d="m 4088.27,4376.99 c 36.39,-43.67 39.22,-101.31 6.31,-128.75 -32.91,-27.44 -89.1,-14.28 -125.52,29.39 -36.38,43.66 -39.24,101.31 -6.33,128.75 32.94,27.44 89.13,14.28 125.54,-29.39 z"
         id="path18970" />
    </clipPath>
    <clipPath
       clipPathUnits="userSpaceOnUse"
       id="clipPath19496">
      <path
         inkscape:connector-curvature="0"
         d="m 1177.59,2846.66 c 0,0 -150.64,164.41 -408.528,69.29 -126.449,-46.64 -185.222,-150.82 -169.746,-228.09 21.563,-107.69 149.243,-212.63 296.86,2.85 74.168,108.28 281.414,155.95 281.414,155.95 z"
         id="path19498" />
    </clipPath>
    <clipPath
       clipPathUnits="userSpaceOnUse"
       id="clipPath19876">
      <path
         inkscape:connector-curvature="0"
         d="m 846.562,2642.43 c 48.282,101.28 -51.992,123.79 -30.253,186.43 21.421,61.7 48.125,98.02 44.382,97.87 -88.867,-3.67 -232.843,-86.38 -250.918,-171.59 -13.996,-65.97 16.418,-150.33 80.723,-171.48 59.172,-19.45 134.477,13.52 156.066,58.77 z"
         id="path19878" />
    </clipPath>
    <clipPath
       clipPathUnits="userSpaceOnUse"
       id="clipPath20248">
      <path
         inkscape:connector-curvature="0"
         d="m 1733.04,2203.97 c 0,0 -64.84,138.46 -253.08,129.1 -92.3,-4.59 -152.12,-60.71 -157.83,-114.43 -7.97,-74.88 54.06,-169.71 194.81,-59 70.73,55.63 216.1,44.33 216.1,44.33 z"
         id="path20250" />
    </clipPath>
    <clipPath
       clipPathUnits="userSpaceOnUse"
       id="clipPath20708">
      <path
         inkscape:connector-curvature="0"
         d="m 1474.58,2138.22 c 52.36,56.36 -8.63,91.65 18.43,128.19 26.67,35.96 51.59,54.26 49.11,54.93 -58.9,15.82 -170.06,-8.78 -199.36,-60.82 -22.68,-40.3 -20.07,-101.73 17.66,-128.75 34.73,-24.87 90.76,-18.72 114.16,6.45 z"
         id="path20710" />
    </clipPath>
    <clipPath
       clipPathUnits="userSpaceOnUse"
       id="clipPath21004">
      <path
         inkscape:connector-curvature="0"
         d="m 3065.6,4420.17 c 0,0 71.69,207.89 -80.2,349.79 -74.48,69.55 -160.67,56.34 -207.89,-4.35 -57.72,-74.26 -44.38,-175.18 104.01,-175.45 108.79,-0.29 171.47,-144.01 184.08,-169.99 z"
         id="path21006" />
    </clipPath>
    <clipPath
       clipPathUnits="userSpaceOnUse"
       id="clipPath21528">
      <path
         inkscape:connector-curvature="0"
         d="m 3055.86,4496.26 c 0,0 47.68,156.57 -83.34,271.24 -64.25,56.23 -140.7,48.75 -179.68,8.08 -54.35,-56.69 -75.32,-175.38 90.61,-175.43 83.37,-0.01 172.41,-103.89 172.41,-103.89 z"
         id="path21530" />
    </clipPath>
    <clipPath
       clipPathUnits="userSpaceOnUse"
       id="clipPath22010">
      <path
         inkscape:connector-curvature="0"
         d="m 2841.31,4610 c 71.66,12.53 54.31,81.35 96.19,93.92 41.26,12.39 69.78,11.3 68.57,13.46 -28.72,51.36 -118.58,103.34 -172.11,79.37 -41.45,-18.54 -79.96,-70.98 -72.63,-117.86 6.76,-43.12 47.95,-74.49 79.98,-68.89 z"
         id="path22012" />
    </clipPath>
    <clipPath
       clipPathUnits="userSpaceOnUse"
       id="clipPath22542">
      <path
         inkscape:connector-curvature="0"
         d="m 2240,3017.5 c 0,0 -87.25,372.28 -496.32,650.21 -200.58,136.25 -420.11,120.86 -522.54,25 -142.82,-133.62 -106.55,-518.26 168.13,-568.94 247.4,-45.65 447.9,250.01 850.73,-106.27 z"
         id="path22544" />
    </clipPath>
    <clipPath
       clipPathUnits="userSpaceOnUse"
       id="clipPath23012">
      <path
         inkscape:connector-curvature="0"
         d="m 1391.67,3151.67 c 204.33,27.62 160.57,351.22 278.63,379.93 116.34,28.26 199.22,24.74 195.16,29.95 -96.43,123.54 -370.11,250.45 -519.01,194.96 -115.26,-42.94 -239.78,-184.84 -176.45,-375.26 33.96,-102.12 130.34,-241.91 221.67,-229.58 z"
         id="path23014" />
    </clipPath>
    <clipPath
       clipPathUnits="userSpaceOnUse"
       id="clipPath23544">
      <path
         inkscape:connector-curvature="0"
         d="m 906.262,3334.84 c 0,0 -192.567,229.21 -502.574,124.79 -151.989,-51.19 -212.356,-171.77 -179.512,-272.84 40.219,-123.58 176.512,-172.3 308.804,20.24 97.098,141.11 330.028,128.44 373.282,127.81 z"
         id="path23546" />
    </clipPath>
    <clipPath
       clipPathUnits="userSpaceOnUse"
       id="clipPath24072">
      <path
         inkscape:connector-curvature="0"
         d="m 803.785,3372.01 c 0,0 -150.637,164.42 -408.527,69.29 -126.449,-46.64 -185.223,-150.82 -169.746,-228.08 21.562,-107.7 149.246,-212.63 296.859,2.85 74.168,108.28 281.414,155.94 281.414,155.94 z"
         id="path24074" />
    </clipPath>
    <clipPath
       clipPathUnits="userSpaceOnUse"
       id="clipPath24452">
      <path
         inkscape:connector-curvature="0"
         d="m 472.758,3167.79 c 48.281,101.27 -51.992,123.79 -30.254,186.42 21.422,61.7 48.125,98.03 44.387,97.87 -88.868,-3.67 -232.848,-86.38 -250.918,-171.59 -14,-65.97 16.414,-150.32 80.722,-171.48 59.168,-19.45 134.473,13.52 156.063,58.78 z"
         id="path24454" />
    </clipPath>
    <clipPath
       clipPathUnits="userSpaceOnUse"
       id="clipPath24828">
      <path
         inkscape:connector-curvature="0"
         d="m 5341.1,1158.33 c -29,-11.78 -49.58,-15.71 -83.97,-30.13 -18.11,-8.47 -76.5,-27.99 -121.94,-64.47 -22.93,-17.56 -38.41,-45.95 -36.92,-68.601 1.55,-22.059 9.44,-33.981 9.04,-33.938 -1.67,-1.132 27.07,-47.429 73.68,-79.75 44.62,-34.511 98.49,-63.101 116.22,-72.761 32.92,-17.7 53.32,-24.328 83.29,-33.68 -25.65,18.32 -43.41,29.672 -75.86,47.398 -17.44,9.633 -70.87,38.063 -114.13,71.524 -45.56,31.957 -70.83,73.598 -69.13,74.019 -0.87,-2.601 -25.24,49.249 23.92,83.779 41.52,33.55 99.89,53.71 117.77,62.06 33.98,14.47 53.87,24.02 78.03,44.55 z"
         id="path24830" />
    </clipPath>
    <clipPath
       clipPathUnits="userSpaceOnUse"
       id="clipPath25350">
      <path
         inkscape:connector-curvature="0"
         d="m 2245.23,1531.08 c 8.54,-34.9 15.57,-58.14 28.63,-98.09 4.27,-18.87 35.84,-94.18 -6.91,-140.46 -42.17,-42.88 -104.91,-48.62 -102.93,-50.34 0.64,-3.38 -56.07,-5.58 -119.3,-26.7 -15.08,-6.28 -32.06,-15.14 -40.93,-33.23 -7.95,-19.51 1.18,-38 9.1,-49.97 17.46,-24.58 36.36,-38.76 45.14,-46.5 33.56,-27.41 55.92,-37.31 86.5,-55.79 -24.61,26.45 -44.27,41.09 -76.55,67.8 -8.38,7.36 -26.85,21.71 -42.04,43.24 -19.69,22.55 -7.17,50.28 24.69,59.91 57.37,19.42 117.89,22.84 117,26.06 -1.73,2.41 61.67,5.93 111.11,55.15 50.1,57.8 13.38,136.93 9.98,155.56 -13.64,40.93 -25.71,62.18 -43.49,93.36 z"
         id="path25352" />
    </clipPath>
    <clipPath
       clipPathUnits="userSpaceOnUse"
       id="clipPath25878">
      <path
         inkscape:connector-curvature="0"
         d="m 6667.5,1477.5 c 9.67,-31.19 29.98,-46.84 61.36,-67.11 35.42,-22.68 218.98,-110.89 216.49,-114.65 -1.25,-0.88 46.45,-23.83 80.51,-65.53 41.55,-44.14 3.76,-102.78 -10.8,-113.72 -25.02,-26.41 -41.79,-39.54 -64.79,-61.61 28.46,13.79 49.15,22.83 76.28,51.06 6.46,8.24 22.26,23.64 30.46,49.95 10.31,26.22 -0.02,61.36 -18.72,83.91 -37.88,45.9 -85.89,68 -84.82,69.27 1.79,4.17 -183.04,93.34 -216.54,114.66 -30.91,20.08 -51.03,27.97 -69.43,53.77 z"
         id="path25880" />
    </clipPath>
    <clipPath
       clipPathUnits="userSpaceOnUse"
       id="clipPath26338">
      <path
         inkscape:connector-curvature="0"
         d="m 6551.6,682.5 c 18.78,-17.559 32.21,-28.219 57.26,-44.68 30.03,-14.3 157.39,-114.129 153.12,-118.289 -1.53,-0.371 30.99,-28.34 42.57,-68.922 13.39,-42.207 -20.87,-81.738 -31.71,-91.539 -20.93,-20.109 -33.39,-31.351 -51.67,-49.5 23.56,9.719 40.06,17.02 62.74,38.512 11.09,9.527 51.48,55.418 35.83,106.508 -13.88,47.031 -47.92,74.801 -46.35,75.601 3.67,4.93 -126.13,106.911 -156.1,120.77 -25.41,16.391 -41.76,22.531 -65.69,31.539 z"
         id="path26340" />
    </clipPath>
    <clipPath
       clipPathUnits="userSpaceOnUse"
       id="clipPath26858">
      <path
         inkscape:connector-curvature="0"
         d="m 2100,464.602 c -29.29,-8.36 -50.37,-14.153 -80.27,-36.793 -14.17,-9.661 -70.54,-56.887 -58.96,-119.887 11.62,-59.211 59.01,-89.481 56.72,-89.953 -0.76,-0.817 38.6,-33.34 88.44,-56.629 47.19,-19.012 105.88,-59.91 87.11,-67.3791 C 2169.1,77.3281 2143.8,75.25 2116.09,65 c 30.39,1.8008 52.09,-6.1992 88.3,18.2617 17.07,11.7969 -0.64,43.2973 -21.07,53.3793 -20.2,14.859 -46.45,26.89 -70.59,38.851 -48.44,22.656 -85.77,53.488 -84.92,54.168 2.01,0.07 -42.24,30.219 -51.55,80.82 -10.43,52.36 39,95.43 53.02,105 27.84,21.391 45.4,31.641 70.72,49.122 z"
         id="path26860" />
    </clipPath>
    <clipPath
       clipPathUnits="userSpaceOnUse"
       id="clipPath27206">
      <path
         inkscape:connector-curvature="0"
         d="m 1432.52,1666.11 c 59.56,-87.57 82.91,-203.36 -40.02,-270.35 -30.75,-19.19 -97.43,-48.45 -183.4,-73.96 -42.3,-14.3 -90.98,-25.66 -134.63,-56.65 -50.75,-33.74 -38.39,-107.53 -9.47,-147.38 58.78,-86.83 141.4,-141.25 195.21,-187.29 55.85,-44.289 89.56,-74.96 89.49,-75.031 -1.2,-0.629 37.67,-28.297 75.64,-86.058 18.29,-28.25 29.72,-71.262 4.5,-107.801 -23.8,-36.219 -67.54,-61.551 -110.42,-87.149 C 1143.67,476.281 933.148,404.949 868.301,369.02 807.113,339.172 760.074,311.531 722.988,275.629 c -36.547,-34.488 -62.816,-86.5 -45.05,-142.297 -12.274,57.289 16.519,102.469 52.867,133.949 37.242,32.489 83.675,58.27 144.246,87.68 64.004,35.437 274.009,106.41 452.219,205.891 43.07,25.937 88.49,51.308 115.79,92.32 29.49,42.199 15.51,94.93 -4.29,124.226 -40.69,61.684 -79.66,88.653 -78.56,89.582 0.08,0.059 -34.31,31.352 -90.21,75.7 -53.74,45.699 -136.35,101.22 -191.64,183.35 -26.74,39.59 -36.46,98.9 5.77,126.71 38.81,27.82 87.58,40.06 129.7,54.08 86.06,25.51 154.86,55.59 186.53,75.47 62.01,31.7 95.13,89.42 92.32,141.78 -2.92,52.28 -24.97,97.94 -60.16,142.04 z"
         id="path27208" />
    </clipPath>
    <clipPath
       clipPathUnits="userSpaceOnUse"
       id="clipPath27742">
      <path
         inkscape:connector-curvature="0"
         d="m 3056.67,1671.94 c -188.69,13.97 -335.8,61.65 -419.05,92.31 -184.6,67.98 -485.79,-291.49 -791.84,-124.46 -127.79,69.77 -179.74,347.92 170.03,439.06 276.33,71.99 763.18,-104.6 767.86,145.77 9.4,506.37 -639.43,315.84 -1020.48,506.37 -369.21,184.6 -213.75,699.54 142.51,592.66 278.81,-83.61 309.66,-537.44 620.19,-325.49 306.05,208.91 -584.01,321.28 -535.97,892.25 25.89,307.68 436.23,361.23 453.39,69.64 14.57,-247.76 -116.41,-486.14 160.31,-476.08 267.19,9.72 -87.86,305.71 196.52,403.17 255.28,87.48 678.02,-147.3 507.88,-553.77 -87.44,-208.89 155.47,-301.19 281.23,-211.81 121.91,86.68 44.26,265.25 262.86,260.38 254.9,-5.64 286.62,-340.06 -86.34,-565.46 -571.42,-345.36 1017.57,-1144.54 1017.57,-1144.54 0,0 -1674.79,-3.83 -1726.67,0 z"
         id="path27744" />
    </clipPath>
    <clipPath
       clipPathUnits="userSpaceOnUse"
       id="clipPath28210">
      <path
         inkscape:connector-curvature="0"
         d="m 3085.33,1670.66 c -185.56,13.74 -363.46,99.2 -445.33,129.34 -181.53,66.86 -486.67,-290 -745.47,-160.95 -128.13,63.89 -176.76,342.15 167.21,431.77 271.74,70.79 750.52,-102.86 755.12,143.35 9.24,497.96 -642.14,350.97 -1016.86,538.33 -363.08,181.54 -220.35,630.03 130,524.93 274.17,-82.22 327.97,-510.98 633.36,-302.56 300.97,205.45 -590.61,359.56 -543.36,921.05 25.46,302.58 389.79,303.78 406.67,17.03 14.33,-243.64 -59,-470.22 213.12,-460.33 262.76,9.56 -86.4,300.64 193.26,396.48 251.04,86.03 606.95,-125.77 420.66,-549.12 -89.7,-203.84 231.68,-291.65 355.36,-203.76 119.89,85.25 43.52,260.86 258.5,256.07 250.66,-5.55 209.19,-330.63 -157.57,-552.29 -561.94,-339.63 1073.34,-1129.34 1073.34,-1129.34 0,0 -1646.99,-3.77 -1698.01,0 z"
         id="path28212" />
    </clipPath>
    <clipPath
       clipPathUnits="userSpaceOnUse"
       id="clipPath28732">
      <path
         inkscape:connector-curvature="0"
         d="m 3208.23,1646.08 c -174.32,12.9 -397.15,58.82 -439.32,135.78 -112.24,204.8 113.44,182.77 117.76,414.06 8.69,467.79 -484.04,419.4 -533.34,521.53 -88.1,182.55 183.42,151.73 286.67,225.05 183.34,130.19 -186.66,364.95 -69.99,406.07 235.11,82.88 703.7,-36.54 670,-195.5 -30.32,-143.04 255.36,-175.82 383.33,-113.07 66.67,32.69 136.93,-85.4 -53.66,-440 -174.68,-325 1233.66,-953.92 1233.66,-953.92 0,0 -1547.19,-3.54 -1595.11,0 z"
         id="path28734" />
    </clipPath>
    <clipPath
       clipPathUnits="userSpaceOnUse"
       id="clipPath29186">
      <path
         inkscape:connector-curvature="0"
         d="m 6313.63,4290.28 c 0,0 -5.01,299.31 297.47,423.86 148.3,61.06 272.96,9.64 314.48,-88.18 50.7,-119.67 -20.21,-245.84 -246.36,-187.29 -165.86,42.81 -333.36,-119.54 -365.59,-148.39 z"
         id="path29188" />
    </clipPath>
    <clipPath
       clipPathUnits="userSpaceOnUse"
       id="clipPath29710">
      <path
         inkscape:connector-curvature="0"
         d="m 6366.59,4385.55 c 0,0 5.85,222.91 262.89,320.28 126.05,47.74 238.75,7.66 277.75,-60.81 54.37,-95.43 26.83,-258.39 -225.94,-192.56 -127,33.07 -314.7,-66.91 -314.7,-66.91 z"
         id="path29712" />
    </clipPath>
    <clipPath
       clipPathUnits="userSpaceOnUse"
       id="clipPath30232">
      <path
         inkscape:connector-curvature="0"
         d="m 6750.41,4448.55 c -102.88,44.77 -41.95,127.54 -99.45,160.56 -56.63,32.52 -100.63,42.41 -97.71,44.76 69.49,55.51 232.41,87.54 301.96,35.07 53.84,-40.61 86.22,-124.23 51.55,-182.38 -31.9,-53.5 -110.36,-78.01 -156.35,-58.01 z"
         id="path30234" />
    </clipPath>
    <clipPath
       clipPathUnits="userSpaceOnUse"
       id="clipPath30766">
      <path
         inkscape:connector-curvature="0"
         d="m 1072.8,2098.12 c 0,0 -312.921,122.05 -561.945,-147.57 -122.109,-132.18 -116.644,-283.39 -29.933,-365.23 106.094,-100.02 266.504,-74.67 293.148,186.1 19.664,191.19 255.81,304.06 298.73,326.7 z"
         id="path30768" />
    </clipPath>
    <clipPath
       clipPathUnits="userSpaceOnUse"
       id="clipPath31290">
      <path
         inkscape:connector-curvature="0"
         d="m 951.918,2079.58 c 0,0 -236.785,80.81 -439.5,-151.61 C 413.012,1814 411.211,1679.8 468.02,1612.07 c 79.183,-94.44 261.359,-129.04 290.734,162.55 14.762,146.5 193.164,304.96 193.164,304.96 z"
         id="path31292" />
    </clipPath>
    <clipPath
       clipPathUnits="userSpaceOnUse"
       id="clipPath31750">
      <path
         inkscape:connector-curvature="0"
         d="m 735.891,1700.38 c -6.953,125.7 -117.789,93.9 -130.106,167.28 -12.113,72.25 -5.355,122.4 -8.961,120.24 -85.515,-51.44 -182.769,-210.35 -154.707,-303.97 21.715,-72.49 97.047,-139.17 171.762,-125.39 68.719,12.68 125.121,85.67 122.012,141.84 z"
         id="path31752" />
    </clipPath>
    <clipPath
       clipPathUnits="userSpaceOnUse"
       id="clipPath32284">
      <path
         inkscape:connector-curvature="0"
         d="m 3238.45,3284.82 c 0,0 154,211.1 -50.28,462.85 -100.15,123.45 -249.22,156.8 -340.05,117.54 -126.63,-54.71 -214.38,-223.62 102.64,-320.84 159.28,-48.84 287.69,-259.55 287.69,-259.55 z"
         id="path32286" />
    </clipPath>
    <clipPath
       clipPathUnits="userSpaceOnUse"
       id="clipPath32684">
      <path
         inkscape:connector-curvature="0"
         d="m 2874.2,3584.08 c 141.96,-22.84 136.45,92.36 221.55,87.05 83.79,-5.24 137.85,-23.62 136.42,-19.61 -34.24,95.23 -185.06,227.17 -296.98,221.94 -86.65,-4.03 -181.3,-61.54 -186.12,-137.4 -4.42,-69.77 61.69,-141.77 125.13,-151.98 z"
         id="path32686" />
    </clipPath>
    <clipPath
       clipPathUnits="userSpaceOnUse"
       id="clipPath33216">
      <path
         inkscape:connector-curvature="0"
         d="m 2485.75,1964.61 c 0,0 -174,188.92 -477.6,84.71 -148.87,-51.1 -219.31,-168.54 -202.36,-256.49 23.62,-122.62 282.1,-256.61 384.21,-60.33 112.5,216.25 295.75,232.11 295.75,232.11 z"
         id="path33218" />
    </clipPath>
    <clipPath
       clipPathUnits="userSpaceOnUse"
       id="clipPath33598">
      <path
         inkscape:connector-curvature="0"
         d="m 2094.78,1737.6 c 58.13,114.29 -59.02,141.32 -32.6,212.14 26.02,69.73 57.88,110.59 53.5,110.48 -104.19,-2.88 -274.14,-94.66 -296.61,-191.16 -17.41,-74.71 16.94,-170.94 91.98,-195.92 69.02,-22.95 157.76,13.38 183.73,64.46 z"
         id="path33600" />
    </clipPath>
    <clipPath
       clipPathUnits="userSpaceOnUse"
       id="clipPath34038">
      <path
         inkscape:connector-curvature="0"
         d="m 2240.67,3442.75 c 0,0 -228.05,102.92 -217.07,411.13 5.38,151.13 95.82,250.29 183.59,260.89 122.36,14.78 278.95,-84.53 101.02,-317.41 -89.39,-117 -67.54,-354.61 -67.54,-354.61 z"
         id="path34040" />
    </clipPath>
    <clipPath
       clipPathUnits="userSpaceOnUse"
       id="clipPath34504">
      <path
         inkscape:connector-curvature="0"
         d="m 2342.29,3867.17 c -91.03,-86.97 -150.16,12.01 -209.32,-33.11 -58.24,-44.45 -87.59,-85.66 -88.75,-81.62 -27.23,96.01 10.44,278.46 94.94,327.6 65.41,38.05 165.97,35.2 211.07,-25.93 41.47,-56.24 32.73,-148.07 -7.94,-186.94 z"
         id="path34506" />
    </clipPath>
    <clipPath
       clipPathUnits="userSpaceOnUse"
       id="clipPath34918">
      <path
         inkscape:connector-curvature="0"
         d="m 2220.05,2687.3 c 0,0 -271.87,-115.29 -530.29,141.03 -126.72,125.7 -120.18,272.16 -79.17,368.1 64.41,150.67 446.91,210.26 446.91,-135.64 0,-235.92 162.55,-373.49 162.55,-373.49 z"
         id="path34920" />
    </clipPath>
    <clipPath
       clipPathUnits="userSpaceOnUse"
       id="clipPath35362">
      <path
         inkscape:connector-curvature="0"
         d="m 1998.75,3172.5 c 0.03,-117.5 -141.06,-134.57 -181.53,-233.75 -32.67,-80.05 33.18,-210.35 28.75,-208.12 -105.05,53.29 -277.17,264.97 -259.74,379.01 18.15,118.77 122.43,170.76 211.27,182.86 104.62,14.25 201.23,-53.6 201.25,-120 z"
         id="path35364" />
    </clipPath>
    <clipPath
       clipPathUnits="userSpaceOnUse"
       id="clipPath35894">
      <path
         inkscape:connector-curvature="0"
         d="m 3664.64,2842.84 c 0,0 235.3,7.27 335.45,241.15 49.15,114.68 5.66,216.48 -67.02,251.24 -101.33,48.47 -273.09,22.06 -201.01,-206.51 36.21,-114.83 -67.42,-285.88 -67.42,-285.88 z"
         id="path35896" />
    </clipPath>
    <clipPath
       clipPathUnits="userSpaceOnUse"
       id="clipPath36416">
      <path
         inkscape:connector-curvature="0"
         d="m 3727.24,3191.35 c 48.31,-92.88 135.06,-36.92 170.53,-88.76 34.91,-51.04 45.82,-90.85 48.25,-88.18 57.92,63.49 90.04,211.47 33.94,274.05 -43.43,48.46 -132.05,77.07 -193.09,45.13 -56.15,-29.38 -81.23,-100.73 -59.63,-142.24 z"
         id="path36418" />
    </clipPath>
    <clipPath
       clipPathUnits="userSpaceOnUse"
       id="clipPath36950">
      <path
         inkscape:connector-curvature="0"
         d="m 4111.09,4981.24 c 0,-89.79 -72.74,-162.59 -162.6,-162.59 -89.75,0 -162.59,72.8 -162.59,162.59 0,89.82 72.84,162.61 162.59,162.61 89.86,0 162.6,-72.79 162.6,-162.61 z"
         id="path36952" />
    </clipPath>
    <clipPath
       clipPathUnits="userSpaceOnUse"
       id="clipPath37474">
      <path
         inkscape:connector-curvature="0"
         d="m 4111.09,4981.24 c 0,-79.01 -64.01,-143.07 -143.08,-143.07 -78.97,0 -143.06,64.06 -143.06,143.07 0,79.03 64.09,143.08 143.06,143.08 79.07,0 143.08,-64.05 143.08,-143.08 z"
         id="path37476" />
    </clipPath>
    <clipPath
       clipPathUnits="userSpaceOnUse"
       id="clipPath37996">
      <path
         inkscape:connector-curvature="0"
         d="m 4071.52,5076.92 c 31.42,-37.7 33.86,-87.46 5.45,-111.15 -28.42,-23.69 -76.92,-12.33 -108.36,25.36 -31.41,37.7 -33.87,87.47 -5.46,111.16 28.43,23.69 76.94,12.32 108.37,-25.37 z"
         id="path37998" />
    </clipPath>
    <clipPath
       clipPathUnits="userSpaceOnUse"
       id="clipPath38500">
      <path
         inkscape:connector-curvature="0"
         d="m 4784.85,1671.94 c 68.34,-2.68 705.15,0 705.15,0 86.25,-5.69 165.78,42.26 185,69.31 48.05,67.63 -25.56,136.75 -6.01,207.6 38.87,140.89 216.19,-12.26 437.22,87.45 398.36,179.74 218.6,519.79 -19.43,408.07 -116.82,-54.85 -315.73,-300.44 -476.08,-121.45 -208.89,233.17 191.51,400.97 505.23,383.78 986.15,-54.09 1128.85,512.85 783.78,678.47 -448.58,215.39 -887.4,-265.55 -1282.52,-440.44 -395.12,-174.89 -576.51,-16.2 -278.54,106.88 297.97,123.07 572.44,59.55 694.69,281.76 149.8,272.27 -302.81,357.86 -568.38,150.6 -265.56,-207.26 -273.72,-362.87 -398.36,-500.38 -140.87,-155.45 -515.13,-11.58 -238.03,228.33 398.35,344.92 -293.82,763.42 -427.51,189.47 -82.58,-354.63 5.61,-1204.73 -634.39,-654.11 -530.81,456.66 -863.68,-259.57 -200,-493.95 C 4463.33,1936.66 4070,1700 4784.85,1671.94 z"
         id="path38502" />
    </clipPath>
    <clipPath
       clipPathUnits="userSpaceOnUse"
       id="clipPath39014">
      <path
         inkscape:connector-curvature="0"
         d="m 4775.21,1671.9 c 65.92,-2.58 680.15,0 680.15,0 83.19,-5.49 159.9,40.77 178.45,66.85 46.34,65.22 -27.23,132.66 -5.79,200.23 49.48,156.02 263.5,33.93 440.73,97.27 396.95,141.87 208.36,476.51 -21.25,368.75 -112.68,-52.91 -321.04,-277.85 -475.71,-105.2 -201.5,224.91 198.12,439.27 500.71,422.7 951.2,-52.18 1127.84,457.75 795,617.5 -432.67,207.76 -908.34,-271.75 -1289.45,-440.44 -381.12,-168.69 -542.95,41.72 -255.55,160.44 287.41,118.71 625,102.5 677.5,285 87.15,302.93 -312.64,274.59 -568.79,74.69 C 5175.07,3219.77 5167.2,3069.68 5046.97,2937.05 4911.1,2787.11 4537.72,2988.59 4805,3220 c 180.63,156.39 138.18,331.96 17.82,396.25 -150.94,80.62 -355.2,29.45 -417.78,-276.22 -70.43,-344.07 5.4,-1162.02 -611.91,-630.92 C 3281.14,3149.58 2974.85,2476.07 3615,2250 c 864.88,-305.44 470.71,-551.04 1160.21,-578.1 z"
         id="path39016" />
    </clipPath>
    <clipPath
       clipPathUnits="userSpaceOnUse"
       id="clipPath39454">
      <path
         inkscape:connector-curvature="0"
         d="m 4812.11,1671.85 c 63.01,-2.48 650.02,0 650.02,0 79.51,-5.25 163.63,50.39 165.37,103.15 2.52,76.43 -77.98,211.01 36.77,248.1 83.23,26.9 130.73,61.9 110.73,126.9 -27.67,89.92 -127.5,42.5 -201.6,121.92 -137.42,147.3 -70.2,289.09 79.1,380.04 62.48,38.07 87.5,123.04 62.5,163.04 -38.24,61.19 -119.29,62.42 -241.9,25.31 -170.6,-51.63 -285.86,-44.56 -308.1,32.19 -8.72,30.1 -7.63,107.33 -31.52,115 -21.81,6.99 -64.57,-59.39 -100.98,-87.5 -103.54,-79.94 -249.16,-67.5 -305,2.5 -79.45,99.6 -325,185 -360,-127.5 -37.36,-333.56 -100,-272.5 -252.5,-273.34 -210.94,-1.16 -498.33,-218.33 -171.67,-361.66 400.83,-175.87 209.81,-442.29 868.78,-468.15 z"
         id="path39456" />
    </clipPath>
    <clipPath
       clipPathUnits="userSpaceOnUse"
       id="clipPath39964">
      <path
         inkscape:connector-curvature="0"
         d="m 6714.28,2592.87 c 0,0 93.2,207.37 341.35,195.3 121.66,-5.91 190.75,-81.51 187.7,-162.16 -3.79,-98.64 -93.28,-162.47 -229.83,-49.19 -100.19,82.99 -267.77,25.47 -299.22,16.05 z"
         id="path39966" />
    </clipPath>
    <clipPath
       clipPathUnits="userSpaceOnUse"
       id="clipPath40486">
      <path
         inkscape:connector-curvature="0"
         d="m 5779.55,2082.93 c 0,0 187,-129.32 393.16,9.31 101.09,67.97 129.94,181.96 85.63,249.42 -54.24,82.47 -225.01,110.9 -283.33,-56.67 -40.06,-114.86 -195.46,-202.06 -195.46,-202.06 z"
         id="path40488" />
    </clipPath>
    <clipPath
       clipPathUnits="userSpaceOnUse"
       id="clipPath41010">
      <path
         inkscape:connector-curvature="0"
         d="m 7828.4,3134.19 c 0,-80.49 -65.21,-145.73 -145.74,-145.73 -80.44,0 -145.73,65.24 -145.73,145.73 0,80.5 65.29,145.75 145.73,145.75 80.53,0 145.74,-65.25 145.74,-145.75 z"
         id="path41012" />
    </clipPath>
    <clipPath
       clipPathUnits="userSpaceOnUse"
       id="clipPath41382">
      <path
         inkscape:connector-curvature="0"
         d="m 7828.4,3134.18 c 0,-70.81 -57.37,-128.22 -128.24,-128.22 -70.78,0 -128.23,57.41 -128.23,128.22 0,70.84 57.45,128.25 128.23,128.25 70.87,0 128.24,-57.41 128.24,-128.25 z"
         id="path41384" />
    </clipPath>
    <clipPath
       clipPathUnits="userSpaceOnUse"
       id="clipPath41904">
      <path
         inkscape:connector-curvature="0"
         d="m 6031.14,2332.49 c -25.83,-77.51 73.03,-101.84 72.18,-165.74 -0.84,-62.93 -14.18,-102.61 -10.81,-101.76 79.85,19.93 185.98,125.63 176.66,210.42 -7.22,65.66 -48.33,111.26 -113.34,119.59 -59.79,7.67 -109.97,-18.35 -124.69,-62.51 z"
         id="path41906" />
    </clipPath>
    <clipPath
       clipPathUnits="userSpaceOnUse"
       id="clipPath42372">
      <path
         inkscape:connector-curvature="0"
         d="m 5612.36,1774.37 c 4.48,-2.74 3.82,-13.58 -1.44,-24.17 -5.15,-10.57 -12.94,-16.95 -17.37,-14.19 -4.45,2.77 -3.83,13.61 1.38,24.09 5.22,10.67 13.04,16.97 17.43,14.27 z"
         id="path42374" />
    </clipPath>
    <clipPath
       clipPathUnits="userSpaceOnUse"
       id="clipPath42662">
      <path
         inkscape:connector-curvature="0"
         d="m 3855.31,2435.82 c 0,0 -225.7,-180.09 -460.75,-6.94 -115.25,84.91 -143.51,234.17 -88.24,325.51 67.66,111.67 269.37,157.59 329.59,-61.05 41.37,-149.87 219.4,-257.52 219.4,-257.52 z"
         id="path42664" />
    </clipPath>
    <clipPath
       clipPathUnits="userSpaceOnUse"
       id="clipPath43186">
      <path
         inkscape:connector-curvature="0"
         d="m 3557.64,2704.14 c 29.92,-89.78 -84.59,-117.97 -83.61,-192 0.98,-72.9 16.43,-118.86 12.53,-117.87 -92.51,23.09 -215.44,145.53 -204.65,243.75 8.36,76.06 55.99,128.88 131.29,138.53 69.27,8.88 127.4,-21.26 144.44,-72.41 z"
         id="path43188" />
    </clipPath>
    <clipPath
       clipPathUnits="userSpaceOnUse"
       id="clipPath43662">
      <path
         inkscape:connector-curvature="0"
         d="m 4407.5,2962.5 c 0,0 -46.85,244.41 55.83,501.94 C 4521.61,3610.62 4675,3680 4809.38,3610 4924.44,3550.06 4975,3321.06 4732.36,3231.01 4581.85,3175.15 4407.5,2962.5 4407.5,2962.5 z"
         id="path43664" />
    </clipPath>
    <clipPath
       clipPathUnits="userSpaceOnUse"
       id="clipPath44186">
      <path
         inkscape:connector-curvature="0"
         d="m 4791.59,3305.75 c -100.97,-37.94 -139.74,86.79 -224.35,81.63 -83.31,-5.09 -135,-24.66 -134.11,-20.3 21.14,103.29 154.16,245.6 267.08,239.11 87.47,-5.03 150.6,-54.65 165.94,-137.16 14.1,-75.91 -17.04,-141.66 -74.56,-163.28 z"
         id="path44188" />
    </clipPath>
    <clipPath
       clipPathUnits="userSpaceOnUse"
       id="clipPath44638">
      <path
         inkscape:connector-curvature="0"
         d="m 6781.44,2641.26 c 0,0 76,151.35 284.15,135.27 102.06,-7.89 166.59,-71.83 171.29,-131.49 6.55,-83.17 -65,-186.29 -217.5,-59.42 -76.64,63.75 -237.94,55.64 -237.94,55.64 z"
         id="path44640" />
    </clipPath>
    <clipPath
       clipPathUnits="userSpaceOnUse"
       id="clipPath45162">
      <path
         inkscape:connector-curvature="0"
         d="m 7065.63,2560.62 c -56.26,64 12.35,101.22 -16.52,142.49 -28.43,40.64 -55.47,61.65 -52.71,62.32 65.7,15.72 188.03,-14.88 218.89,-73.4 23.9,-45.31 19.15,-113.24 -23.45,-142.03 -39.2,-26.47 -101.07,-17.98 -126.21,10.62 z"
         id="path45164" />
    </clipPath>
    <clipPath
       clipPathUnits="userSpaceOnUse"
       id="clipPath45464">
      <path
         inkscape:connector-curvature="0"
         d="m 5779.55,2912.73 c 0,0 362.42,350.42 785.95,443.36 210.44,46.18 376.48,-41.16 426.61,-172.8 C 7060,3005 6824.8,2735.64 6533.33,2840.21 c -385.04,138.12 -753.78,72.52 -753.78,72.52 z"
         id="path45466" />
    </clipPath>
    <clipPath
       clipPathUnits="userSpaceOnUse"
       id="clipPath45988">
      <path
         inkscape:connector-curvature="0"
         d="m 6719.87,2894.49 c -131.67,54.75 -50.51,212.81 -135.67,284.86 -83.86,70.96 -277.61,60.65 -272.53,63.98 191.09,125.24 504.54,139.44 605.57,30.08 78.23,-84.69 91.22,-191.06 27.74,-286.24 -58.36,-87.54 -150.08,-123.85 -225.11,-92.68 z"
         id="path45990" />
    </clipPath>
    <clipPath
       clipPathUnits="userSpaceOnUse"
       id="clipPath46432">
      <path
         inkscape:connector-curvature="0"
         d="m 5160.01,3051.67 c 0,0 116.67,269.16 414.17,440 122.59,70.39 302.87,102.18 375,32.5 90.02,-86.98 70.82,-279.17 -193.97,-331.32 -263.33,-51.87 -595.2,-141.18 -595.2,-141.18 z"
         id="path46434" />
    </clipPath>
    <clipPath
       clipPathUnits="userSpaceOnUse"
       id="clipPath46954">
      <path
         inkscape:connector-curvature="0"
         d="m 5852.91,3274.74 c -92.86,11.42 -98.09,112.84 -169.78,127.53 -126.25,25.85 -265.29,-56.44 -263.12,-53.1 81.68,125.71 305.88,231.17 444.17,201.66 89.86,-19.16 128.8,-95.02 115.82,-168.96 -11.91,-67.99 -47.88,-116.87 -127.09,-107.13 z"
         id="path46956" />
    </clipPath>
    <clipPath
       clipPathUnits="userSpaceOnUse"
       id="clipPath47458">
      <path
         inkscape:connector-curvature="0"
         d="m 7792.93,3219.94 c 28.15,-33.79 30.35,-78.39 4.88,-99.62 -25.47,-21.23 -68.94,-11.05 -97.12,22.74 -28.15,33.79 -30.36,78.39 -4.89,99.62 25.48,21.24 68.96,11.05 97.13,-22.74 z"
         id="path47460" />
    </clipPath>
    <clipPath
       clipPathUnits="userSpaceOnUse"
       id="clipPath47962">
      <path
         inkscape:connector-curvature="0"
         d="m 4085.71,5403.89 c 0,-75.13 -60.86,-136.04 -136.06,-136.04 -75.08,0 -136.03,60.91 -136.03,136.04 0,75.16 60.95,136.07 136.03,136.07 75.2,0 136.06,-60.91 136.06,-136.07 z"
         id="path47964" />
    </clipPath>
    <clipPath
       clipPathUnits="userSpaceOnUse"
       id="clipPath48336">
      <path
         inkscape:connector-curvature="0"
         d="m 4085.71,5403.89 c 0,-66.11 -53.56,-119.7 -119.71,-119.7 -66.08,0 -119.7,53.59 -119.7,119.7 0,66.13 53.62,119.72 119.7,119.72 66.15,0 119.71,-53.59 119.71,-119.72 z"
         id="path48338" />
    </clipPath>
    <clipPath
       clipPathUnits="userSpaceOnUse"
       id="clipPath48858">
      <path
         inkscape:connector-curvature="0"
         d="m 4052.61,5483.95 c 26.28,-31.54 28.33,-73.17 4.56,-93 -23.78,-19.83 -64.37,-10.32 -90.67,21.22 -26.29,31.54 -28.35,73.18 -4.57,93.01 23.79,19.82 64.37,10.31 90.68,-21.23 z"
         id="path48860" />
    </clipPath>
    <clipPath
       clipPathUnits="userSpaceOnUse"
       id="clipPath49362">
      <path
         inkscape:connector-curvature="0"
         d="m 1792.9,4330.46 c 0,0 123.07,240.48 -72.45,461.63 -95.87,108.45 -217.29,116.35 -289.82,53.61 -88.66,-76.78 -81.38,-207.19 125.11,-249.68 151.39,-31.25 222.53,-229.39 237.16,-265.56 z"
         id="path49364" />
    </clipPath>
    <clipPath
       clipPathUnits="userSpaceOnUse"
       id="clipPath49886">
      <path
         inkscape:connector-curvature="0"
         d="m 1787.89,4428.69 c 0,0 83.89,182.91 -85.63,364 -83.13,88.78 -190.38,101.13 -249.19,61.17 -82,-55.7 -124.48,-198.66 106.47,-245.84 116.05,-23.71 228.35,-179.33 228.35,-179.33 z"
         id="path49888" />
    </clipPath>
    <clipPath
       clipPathUnits="userSpaceOnUse"
       id="clipPath50410">
      <path
         inkscape:connector-curvature="0"
         d="m 1502,4632.34 c 101.14,-4.64 84.68,86.64 144.4,90.53 58.81,3.82 98.38,-5.65 96.96,-2.6 -34.23,72.62 -153.49,163.33 -230.67,148.48 -59.78,-11.49 -119.25,-66.36 -114.3,-127.26 4.57,-56.02 58.4,-107.08 103.61,-109.15 z"
         id="path50412" />
    </clipPath>
    <clipPath
       clipPathUnits="userSpaceOnUse"
       id="clipPath50940">
      <path
         inkscape:connector-curvature="0"
         d="m 3276.57,4925.3 c 0,0 73.68,259.91 -161.31,438.57 -115.22,87.6 -235.85,71.61 -294.71,-4.1 -71.93,-92.63 -39.3,-219.11 171.52,-220.41 154.58,-1.04 263.09,-181.44 284.5,-214.06 z"
         id="path50942" />
    </clipPath>
    <clipPath
       clipPathUnits="userSpaceOnUse"
       id="clipPath51464">
      <path
         inkscape:connector-curvature="0"
         d="m 3252.45,5020.66 c 0,0 46.51,195.79 -155.15,340.23 -98.89,70.82 -206.47,61.96 -256.33,11.27 -69.53,-70.66 -83.24,-219.17 152.48,-220.28 118.44,-0.56 259,-131.22 259,-131.22 z"
         id="path51466" />
    </clipPath>
    <clipPath
       clipPathUnits="userSpaceOnUse"
       id="clipPath51988">
      <path
         inkscape:connector-curvature="0"
         d="m 2932.26,5164.48 c 100.1,15.23 66.11,101.53 123.92,117.01 56.92,15.25 97.57,13.7 95.59,16.42 -47.77,64.52 -182.46,130.16 -255.25,100.51 -56.38,-22.96 -103.97,-88.4 -87.21,-147.15 15.44,-54.05 78.21,-93.6 122.95,-86.79 z"
         id="path51990" />
    </clipPath>
    <clipPath
       clipPathUnits="userSpaceOnUse"
       id="clipPath52518">
      <path
         inkscape:connector-curvature="0"
         d="m 6452.56,1906.01 c 0,0 -23.81,170.36 139.97,262.56 80.31,45.21 155.01,24.62 185.54,-28.28 37.29,-64.68 5.69,-141.61 -127.41,-124.06 -97.58,12.81 -181.74,-91.52 -198.1,-110.22 z"
         id="path52520" />
    </clipPath>
    <clipPath
       clipPathUnits="userSpaceOnUse"
       id="clipPath53042">
      <path
         inkscape:connector-curvature="0"
         d="m 6476.08,1964.06 c 0,0 -12.25,127.54 127.52,201.07 68.55,36.05 135.63,21.08 162.67,-15.23 37.69,-50.62 33.39,-145.5 -115.38,-125.65 -74.75,9.96 -174.81,-60.19 -174.81,-60.19 z"
         id="path53044" />
    </clipPath>
    <clipPath
       clipPathUnits="userSpaceOnUse"
       id="clipPath53566">
      <path
         inkscape:connector-curvature="0"
         d="m 6690.59,2026.86 c -61.82,18.33 -32.86,69.8 -67.97,84.6 -34.57,14.58 -60.35,17.14 -58.86,18.7 35.75,36.52 126.43,66.19 169.76,41.14 33.55,-19.4 57.87,-64.82 42.18,-100.41 -14.45,-32.75 -57.49,-52.23 -85.11,-44.03 z"
         id="path53568" />
    </clipPath>
  </defs>
  <sodipodi:namedview
     inkscape:document-units="in"
     pagecolor="#ffffff"
     bordercolor="#666666"
     borderopacity="1.0"
     inkscape:pageopacity="0.0"
     inkscape:pageshadow="2"
     inkscape:zoom="5.76"
     inkscape:cx="72.729167"
     inkscape:cy="45.869321"
     inkscape:current-layer="layer1"
     id="namedview3771"
     showgrid="false"
     units="px"
     inkscape:window-width="1280"
     inkscape:window-height="749"
     inkscape:window-x="0"
     inkscape:window-y="25"
     inkscape:window-maximized="1"
     showguides="true"
     inkscape:guide-bbox="true" />
  <metadata
     id="metadata3773">
    <rdf:RDF>
      <cc:Work
         rdf:about="">
        <dc:format>image/svg+xml</dc:format>
        <dc:type
           rdf:resource="http://purl.org/dc/dcmitype/StillImage" />
        <dc:title />
      </cc:Work>
    </rdf:RDF>
  </metadata>
  <g
     inkscape:label="Layer 1"
     inkscape:groupmode="layer"
     id="layer1"
     transform="translate(0,-894)">
    <g
       id="g3089"
       transform="translate(-0.43163446,892.29227)">
      <g
         style="display:inline"
         id="layer3">
        <path
           style="opacity:0.07999998;fill:url(#linearGradient4031-0);fill-opacity:1;fill-rule:nonzero;stroke:none"
           id="path4029"
           d="m 12,4.03125 c -6.0701637,-0.1617408 -10.6911509,5.6895113 -9.96875,11.5 7.16e-5,0.04167 -7.01e-5,0.08333 0,0.125 0.030431,18.086218 -0.077787,36.153437 0.03125,54.25 a 0.93232674,0.93232674 0 0 0 0,0.0625 c 0.4297709,5.831518 6.2168912,9.674679 11.71875,9 0.0418,-0.0051 0.08323,0.0056 0.125,0 l 5.3125,0 c -0.679778,4.428501 -1.596836,8.895227 -2.0625,13.40625 a 0.93232674,0.93232674 0 0 0 0.03125,0.28125 c 0.279995,1.294203 1.371731,2.108795 2.46875,2.25 1.023884,0.131791 2.065552,-0.225148 2.84375,-1 l 0,0.03125 22.84375,-14.96875 c 13.185056,-0.02898 26.362788,0.07707 39.5625,-0.03125 a 0.93232674,0.93232674 0 0 0 0.0625,0 c 5.831518,-0.429771 9.674679,-6.216892 9,-11.71875 -0.0051,-0.0418 0.0056,-0.08323 0,-0.125 -0.03043,-18.00176 0.07779,-35.987855 -0.03125,-54 a 0.93232674,0.93232674 0 0 0 0,-0.0625 c -0.429771,-5.8315178 -6.216892,-9.6746792 -11.71875,-9 l -0.125,0 -70.0625,0 -0.03125,0 z"
           inkscape:connector-curvature="0" />
        <path
           style="opacity:0.1;fill:url(#linearGradient4023-9);fill-opacity:1;fill-rule:nonzero;stroke:none"
           id="path4015"
           inkscape:connector-curvature="0"
           d="M 12,4.96875 C 6.498217,4.8031106 2.2406967,10.230306 2.96875,15.520213 c 0.031153,18.132768 -0.06237,36.268711 0.046873,54.39949 0.3891125,5.279828 5.7301904,8.791471 10.757959,8.111547 2.17964,0 4.359279,0 6.538918,0 -0.693629,4.811167 -1.723208,9.637038 -2.21875,14.4375 0.399566,1.846889 2.79006,1.976363 3.910163,0.694482 C 29.700525,88.119238 37.397138,83.075244 45.09375,78.03125 58.368678,78.00033 71.646761,78.0933 84.919703,77.98438 90.199531,77.595267 93.711174,72.254189 93.03125,67.226421 93.000098,49.178106 93.093619,31.12662 92.984377,13.080297 92.595264,7.8004692 87.254186,4.2888256 82.226418,4.96875 c -23.408806,0 -46.817612,0 -70.226418,0 z" />
        <path
           style="opacity:0.15;fill:url(#linearGradient4009-4);fill-opacity:1;fill-rule:nonzero;stroke:none"
           id="path4007"
           d="M 12,6 C 7.5921478,6 4,9.5921478 4,14 l 0,55 c 0,4.407852 3.5921478,8 8,8 l 9.5,0 -2.40625,14.90625 a 0.98733463,0.98733463 0 0 0 1.5,0.96875 L 44.8125,77 84,77 c 4.407852,0 8,-3.592148 8,-8 L 92,14 C 92,9.5921478 88.407852,6 84,6 L 12,6 z"
           inkscape:connector-curvature="0" />
        <path
           style="opacity:0.3;fill:url(#linearGradient4001-3);fill-opacity:1;fill-rule:nonzero;stroke:none"
           id="rect3991"
           inkscape:connector-curvature="0"
           d="M 12,7 C 8.122,7 5,10.122 5,14 l 0,55 c 0,3.878 3.122,7 7,7 L 22.65625,76 20.0625,92.0625 44.5625,76 84,76 c 3.878,0 7,-3.122 7,-7 L 91,14 C 91,10.122 87.878,7 84,7 L 12,7 z" />
        <path
           style="opacity:0.45;fill:url(#linearGradient3989-5);fill-opacity:1;fill-rule:nonzero;stroke:none"
           id="path3984"
           inkscape:connector-curvature="0"
           d="M 12,7 C 8.676,7 6,9.676 6,13 l 0,56 c 0,3.324 2.676,6 6,6 l 12,0 -3,16 23,-16 40,0 c 3.324,0 6,-2.676 6,-6 L 90,13 C 90,9.676 87.324,7 84,7 L 12,7 z" />
      </g>
      <path
         d="M 12,6 C 8.676,6 6,8.676 6,12 l 0,56 c 0,3.324 2.676,6 6,6 l 12,0 -3,16 23,-16 40,0 c 3.324,0 6,-2.676 6,-6 L 90,12 C 90,8.676 87.324,6 84,6 L 12,6 z"
         inkscape:connector-curvature="0"
         id="rect2419"
         style="fill:url(#linearGradient3087-1);fill-opacity:1;fill-rule:nonzero;stroke:none" />
      <path
         d="M 12,6 C 8.676,6 6,8.676 6,12 l 0,52 c 0,3.324 2.676,6 6,6 l 12,0 -3,16 23,-16 40,0 c 3.324,0 6,-2.676 6,-6 L 90,12 C 90,8.676 87.324,6 84,6 z"
         inkscape:connector-curvature="0"
         id="path4061"
         style="fill:url(#linearGradient3075-4);fill-opacity:1;fill-rule:nonzero;stroke:none" />
      <path
         d="m 6,62 0,2 c 0,3.324 2.676,6 6,6 L 23.625,70 24,68 12,68 C 8.676,68 6,65.324 6,62 z m 84,0 c 0,3.324 -2.676,6 -6,6 L 44,68 21.4375,83.6875 21,86 44,70 84,70 c 3.324,0 6,-2.676 6,-6 l 0,-2 z"
         inkscape:connector-curvature="0"
         id="path4074"
         style="opacity:0.2;fill:#ffffff;fill-opacity:1;fill-rule:nonzero;stroke:none" />
      <path
         d="M 12,6 C 8.676,6 6,8.676 6,12 l 0,52 c 0,3.324 2.676,6 6,6 l 12,0 -3,16 23,-16 40,0 c 3.324,0 6,-2.676 6,-6 L 90,12 C 90,8.676 87.324,6 84,6 L 12,6 z m 0,1 72,0 c 2.789532,0 5,2.2104676 5,5 l 0,52 c 0,2.789532 -2.210468,5 -5,5 l -40,0 a 0.99593489,0.99593489 0 0 0 -0.5625,0.1875 l -21.03125,14.625 2.5625,-13.625 A 0.99593489,0.99593489 0 0 0 24,69 L 12,69 C 9.2104676,69 7,66.789532 7,64 L 7,12 C 7,9.2104676 9.2104676,7 12,7 z"
         inkscape:connector-curvature="0"
         id="path4083"
         style="opacity:0.45;fill:url(#linearGradient3071-2);fill-opacity:1;fill-rule:nonzero;stroke:none" />
      <g
         id="layer6">
        <path
           style="opacity:0.8;fill:#d4e0ef;fill-opacity:1;fill-rule:nonzero;stroke:none;display:inline"
           id="path4254"
           inkscape:connector-curvature="0"
           d="M 44,70 21,86 21,90 44,74 z" />
        <path
           style="opacity:0.7;fill:url(#linearGradient4197-2);fill-opacity:1;fill-rule:nonzero;stroke:none;display:inline"
           id="path4065"
           inkscape:connector-curvature="0"
           d="m 6,64 0,4 c 0,3.324 2.676,6 6,6 L 23.25,74 24,70 12,70 C 8.676,70 6,67.324 6,64 z m 84,0 c 0,3.324 -2.676,6 -6,6 l -40,0 -23,16 0,4 23,-16 40,0 c 3.324,0 6,-2.676 6,-6 z" />
        <path
           style="opacity:0.1;fill:url(#linearGradient4148-8-8);fill-opacity:1;fill-rule:nonzero;stroke:none;display:inline"
           id="path4142"
           inkscape:connector-curvature="0"
           d="m 6,66 0,2 c 0,3.324 2.676,6 6,6 L 23.25,74 24,70 23.625,70 23.25,72 12,72 C 8.676,72 6,69.324 6,66 z m 84,0 c 0,3.324 -2.676,6 -6,6 l -40,0 -23,16 0,2 23,-16 40,0 c 3.324,0 6,-2.676 6,-6 l 0,-2 z" />
        <path
           style="opacity:0.15;fill:#000000;fill-opacity:1;fill-rule:nonzero;stroke:none;display:inline"
           id="path4133"
           inkscape:connector-curvature="0"
           d="m 6,67 0,1 c 0,3.324 2.676,6 6,6 L 23.25,74 24,70 23.8125,70 23.25,73 12,73 C 8.676,73 6,70.324 6,67 z m 84,0 c 0,3.324 -2.676,6 -6,6 l -40,0 -23,16 0,1 23,-16 40,0 c 3.324,0 6,-2.676 6,-6 l 0,-1 z" />
        <path
           style="opacity:0.8;fill:url(#linearGradient4199-8);fill-opacity:1;fill-rule:nonzero;stroke:none;display:inline"
           id="path4151"
           inkscape:connector-curvature="0"
           d="M 44,70 21,86 21,90 44,74 z" />
      </g>
    </g>
  </g>
</svg>
