<?xml version="1.0" encoding="UTF-8" standalone="no"?>
<!-- Created with Inkscape (http://www.inkscape.org/) -->

<svg
   xmlns:dc="http://purl.org/dc/elements/1.1/"
   xmlns:cc="http://creativecommons.org/ns#"
   xmlns:rdf="http://www.w3.org/1999/02/22-rdf-syntax-ns#"
   xmlns:svg="http://www.w3.org/2000/svg"
   xmlns="http://www.w3.org/2000/svg"
   xmlns:xlink="http://www.w3.org/1999/xlink"
   xmlns:sodipodi="http://sodipodi.sourceforge.net/DTD/sodipodi-0.dtd"
   xmlns:inkscape="http://www.inkscape.org/namespaces/inkscape"
   version="1.0"
   width="96"
   height="96"
   id="svg2408"
   inkscape:version="0.48.2 r9819"
   sodipodi:docname="manager.svg"
   inkscape:export-filename="/home/yy/linnya/src/plugin/Lrc/logo.png"
   inkscape:export-xdpi="240"
   inkscape:export-ydpi="240">
  <sodipodi:namedview
     pagecolor="#ffffff"
     bordercolor="#666666"
     borderopacity="1"
     objecttolerance="10"
     gridtolerance="10"
     guidetolerance="10"
     inkscape:pageopacity="0"
     inkscape:pageshadow="2"
     inkscape:window-width="1278"
     inkscape:window-height="753"
     id="namedview5334"
     showgrid="false"
     inkscape:zoom="5.1041667"
     inkscape:cx="24.225201"
     inkscape:cy="47.970488"
     inkscape:window-x="0"
     inkscape:window-y="25"
     inkscape:window-maximized="1"
     inkscape:current-layer="svg2408" />
  <defs
     id="defs2410">
    <linearGradient
       inkscape:collect="always"
       id="linearGradient6266">
      <stop
         style="stop-color:#000000;stop-opacity:1;"
         offset="0"
         id="stop6268" />
      <stop
         style="stop-color:#000000;stop-opacity:0;"
         offset="1"
         id="stop6270" />
    </linearGradient>
    <linearGradient
       id="linearGradient4384">
      <stop
         id="stop4386"
         style="stop-color:#ffffff;stop-opacity:1"
         offset="0" />
      <stop
         id="stop4388"
         style="stop-color:#ffffff;stop-opacity:0"
         offset="1" />
    </linearGradient>
    <linearGradient
       id="linearGradient4367">
      <stop
         id="stop4369"
         style="stop-color:#ffffff;stop-opacity:0.71755725"
         offset="0" />
      <stop
         id="stop4371"
         style="stop-color:#ffffff;stop-opacity:1"
         offset="1" />
    </linearGradient>
    <linearGradient
       x1="45.447727"
       y1="92.539597"
       x2="45.447727"
       y2="7.0165396"
       id="ButtonShadow"
       gradientUnits="userSpaceOnUse"
       gradientTransform="scale(1.0058652,0.994169)">
      <stop
         id="stop3750"
         style="stop-color:#000000;stop-opacity:1"
         offset="0" />
      <stop
         id="stop3752"
         style="stop-color:#000000;stop-opacity:0.58823532"
         offset="1" />
    </linearGradient>
    <linearGradient
       id="linearGradient3737">
      <stop
         id="stop3739"
         style="stop-color:#ffffff;stop-opacity:1"
         offset="0" />
      <stop
         id="stop3741"
         style="stop-color:#ffffff;stop-opacity:0"
         offset="1" />
    </linearGradient>
    <filter
       color-interpolation-filters="sRGB"
       id="filter3174">
      <feGaussianBlur
         id="feGaussianBlur3176"
         stdDeviation="1.71" />
    </filter>
    <filter
       x="-0.192"
       y="-0.192"
       width="1.3839999"
       height="1.3839999"
       color-interpolation-filters="sRGB"
       id="filter3794">
      <feGaussianBlur
         id="feGaussianBlur3796"
         stdDeviation="5.28" />
    </filter>
    <linearGradient
       x1="48"
       y1="20.220806"
       x2="48"
       y2="138.66119"
       id="linearGradient3613"
       xlink:href="#linearGradient3737"
       gradientUnits="userSpaceOnUse" />
    <linearGradient
       x1="48"
       y1="90"
       x2="48"
       y2="5.9877172"
       id="linearGradient3617"
       xlink:href="#linearGradient4068"
       gradientUnits="userSpaceOnUse" />
    <linearGradient
       x1="45.447727"
       y1="92.539597"
       x2="45.447727"
       y2="7.0165396"
       id="ButtonShadow-0"
       gradientUnits="userSpaceOnUse"
       gradientTransform="matrix(1.0058652,0,0,0.994169,100,0)">
      <stop
         id="stop3750-8"
         style="stop-color:#000000;stop-opacity:1"
         offset="0" />
      <stop
         id="stop3752-5"
         style="stop-color:#000000;stop-opacity:0.58823532"
         offset="1" />
    </linearGradient>
    <linearGradient
       x1="32.251034"
       y1="6.1317081"
       x2="32.251034"
       y2="90.238609"
       id="linearGradient3780"
       xlink:href="#ButtonShadow-0"
       gradientUnits="userSpaceOnUse"
       gradientTransform="matrix(1.0238095,0,0,1.0119048,-1.1428571,-98.071429)" />
    <linearGradient
       x1="32.251034"
       y1="6.1317081"
       x2="32.251034"
       y2="90.238609"
       id="linearGradient3772"
       xlink:href="#ButtonShadow-0"
       gradientUnits="userSpaceOnUse"
       gradientTransform="matrix(1.0238095,0,0,1.0119048,-1.1428571,-98.071429)" />
    <linearGradient
       x1="32.251034"
       y1="6.1317081"
       x2="32.251034"
       y2="90.238609"
       id="linearGradient3725"
       xlink:href="#ButtonShadow-0"
       gradientUnits="userSpaceOnUse"
       gradientTransform="matrix(1.0238095,0,0,1.0119048,-1.1428571,-98.071429)" />
    <linearGradient
       x1="32.251034"
       y1="6.1317081"
       x2="32.251034"
       y2="90.238609"
       id="linearGradient3721"
       xlink:href="#ButtonShadow-0"
       gradientUnits="userSpaceOnUse"
       gradientTransform="translate(0,-97)" />
    <linearGradient
       x1="32.251034"
       y1="6.1317081"
       x2="32.251034"
       y2="90.238609"
       id="linearGradient3026"
       xlink:href="#ButtonShadow-0"
       gradientUnits="userSpaceOnUse"
       gradientTransform="matrix(1.0238095,0,0,1.0119048,-1.1428571,-98.071429)" />
    <clipPath
       id="clipPath4355">
      <rect
         width="84"
         height="80"
         rx="6"
         ry="6"
         x="6"
         y="6"
         id="rect4357"
         style="fill:#ffffff;fill-opacity:1;fill-rule:nonzero;stroke:none" />
    </clipPath>
    <radialGradient
       cx="48"
       cy="87.792389"
       r="42"
       fx="48"
       fy="87.792389"
       id="radialGradient4375"
       xlink:href="#linearGradient4367"
       gradientUnits="userSpaceOnUse"
       gradientTransform="matrix(1,-6.7114942e-8,8.4282233e-8,1.2557894,109.99999,-24.505592)" />
    <linearGradient
       x1="48"
       y1="88"
       x2="48"
       y2="-40"
       id="linearGradient4390"
       xlink:href="#linearGradient4384"
       gradientUnits="userSpaceOnUse"
       gradientTransform="matrix(1,0,0,-1,0,92)" />
    <linearGradient
       x1="48"
       y1="82"
       x2="112.12357"
       y2="82.454597"
       id="linearGradient4429"
       xlink:href="#linearGradient4384"
       gradientUnits="userSpaceOnUse"
       spreadMethod="reflect" />
    <linearGradient
       id="linearGradient3843">
      <stop
         id="stop3845"
         style="stop-color:#523823;stop-opacity:1"
         offset="0" />
      <stop
         id="stop3847"
         style="stop-color:#79563a;stop-opacity:1"
         offset="0.11780351" />
      <stop
         id="stop3849"
         style="stop-color:#875c38;stop-opacity:1"
         offset="0.23809524" />
      <stop
         id="stop3851"
         style="stop-color:#a66e40;stop-opacity:1"
         offset="1" />
    </linearGradient>
    <linearGradient
       x1="8"
       y1="1033.3622"
       x2="50"
       y2="1033.3622"
       id="linearGradient3870"
       xlink:href="#linearGradient3843"
       gradientUnits="userSpaceOnUse"
       gradientTransform="translate(-2,-956.3622)"
       spreadMethod="reflect" />
    <linearGradient
       id="linearGradient4068">
      <stop
         id="stop4070"
         style="stop-color:#45a4d4;stop-opacity:1"
         offset="0" />
      <stop
         id="stop4072"
         style="stop-color:#94c8e0;stop-opacity:1"
         offset="1" />
    </linearGradient>
    <radialGradient
       cx="353.6283"
       cy="241.04938"
       r="220.11942"
       fx="353.6283"
       fy="241.04938"
       id="radialGradient4075-0"
       xlink:href="#linearGradient6793-3"
       gradientUnits="userSpaceOnUse"
       gradientTransform="matrix(-0.14010564,0,0,0.13702439,96.633969,18.542549)" />
    <linearGradient
       id="linearGradient6793-3">
      <stop
         id="stop6795-4"
         style="stop-color:#44b5e8;stop-opacity:1"
         offset="0" />
      <stop
         id="stop6797-6"
         style="stop-color:#116b98;stop-opacity:1"
         offset="1" />
    </linearGradient>
    <radialGradient
       cx="353.6283"
       cy="241.04938"
       r="220.11942"
       fx="353.6283"
       fy="241.04938"
       id="radialGradient4078-3"
       xlink:href="#linearGradient6793-3"
       gradientUnits="userSpaceOnUse"
       gradientTransform="matrix(-0.14010564,0,0,0.13702439,96.633969,18.542549)" />
    <radialGradient
       cx="353.6283"
       cy="241.04938"
       r="220.11942"
       fx="353.6283"
       fy="241.04938"
       id="radialGradient4081-6"
       xlink:href="#linearGradient6793-3"
       gradientUnits="userSpaceOnUse"
       gradientTransform="matrix(-0.14010564,0,0,0.13702439,96.633969,18.542549)" />
    <radialGradient
       cx="353.6283"
       cy="241.04938"
       r="220.11942"
       fx="353.6283"
       fy="241.04938"
       id="radialGradient4086-3"
       xlink:href="#linearGradient6793-3"
       gradientUnits="userSpaceOnUse"
       gradientTransform="matrix(-0.13999019,-0.00562986,-0.00561708,0.1369115,97.441273,18.740641)" />
    <radialGradient
       cx="353.6283"
       cy="241.04938"
       r="220.11942"
       fx="353.6283"
       fy="241.04938"
       id="radialGradient3952"
       xlink:href="#linearGradient6793-3"
       gradientUnits="userSpaceOnUse"
       gradientTransform="matrix(-0.14010564,0,0,0.13702439,96.633969,18.542549)" />
    <linearGradient
       inkscape:collect="always"
       xlink:href="#linearGradient6266"
       id="linearGradient6274"
       x1="36.502377"
       y1="25.079082"
       x2="85.264091"
       y2="25.079082"
       gradientUnits="userSpaceOnUse" />
  </defs>
  <metadata
     id="metadata2413">
    <rdf:RDF>
      <cc:Work
         rdf:about="">
        <dc:format>image/svg+xml</dc:format>
        <dc:type
           rdf:resource="http://purl.org/dc/dcmitype/StillImage" />
        <dc:title></dc:title>
      </cc:Work>
    </rdf:RDF>
  </metadata>
  <g
     id="layer2"
     style="display:none">
    <rect
       width="86"
       height="85"
       rx="6"
       ry="6"
       x="5"
       y="7"
       id="rect3745"
       style="opacity:0.9;fill:url(#ButtonShadow);fill-opacity:1;fill-rule:nonzero;stroke:none;filter:url(#filter3174)" />
  </g>
  <g
     id="layer3"
     style="display:inline">
    <path
       d="m 12,-95.03125 c -5.5110903,0 -10.03125,4.52016 -10.03125,10.03125 l 0,71 c 0,5.5110902 4.5201598,10.03125 10.03125,10.03125 l 72,0 c 5.51109,0 10.03125,-4.5201597 10.03125,-10.03125 l 0,-71 c 0,-5.51109 -4.52016,-10.03125 -10.03125,-10.03125 l -72,0 z"
       transform="scale(1,-1)"
       id="path3786"
       style="opacity:0.07999998;fill:url(#linearGradient3026);fill-opacity:1;fill-rule:nonzero;stroke:none;display:inline" />
    <path
       d="m 12,-94.03125 c -4.971633,0 -9.03125,4.059617 -9.03125,9.03125 l 0,71 c 0,4.9716329 4.0596171,9.03125 9.03125,9.03125 l 72,0 c 4.971633,0 9.03125,-4.059617 9.03125,-9.03125 l 0,-71 c 0,-4.971633 -4.059617,-9.03125 -9.03125,-9.03125 l -72,0 z"
       transform="scale(1,-1)"
       id="path3778"
       style="opacity:0.1;fill:url(#linearGradient3780);fill-opacity:1;fill-rule:nonzero;stroke:none;display:inline" />
    <path
       d="m 12,-93 c -4.4091333,0 -8,3.590867 -8,8 l 0,71 c 0,4.4091333 3.5908667,8 8,8 l 72,0 c 4.409133,0 8,-3.5908667 8,-8 l 0,-71 c 0,-4.409133 -3.590867,-8 -8,-8 l -72,0 z"
       transform="scale(1,-1)"
       id="path3770"
       style="opacity:0.2;fill:url(#linearGradient3772);fill-opacity:1;fill-rule:nonzero;stroke:none;display:inline" />
    <rect
       width="86"
       height="85"
       rx="7"
       ry="7"
       x="5"
       y="-92"
       transform="scale(1,-1)"
       id="rect3723"
       style="opacity:0.3;fill:url(#linearGradient3725);fill-opacity:1;fill-rule:nonzero;stroke:none;display:inline" />
    <rect
       width="84"
       height="84"
       rx="6"
       ry="6"
       x="6"
       y="-91"
       transform="scale(1,-1)"
       id="rect3716"
       style="opacity:0.45;fill:url(#linearGradient3721);fill-opacity:1;fill-rule:nonzero;stroke:none;display:inline" />
  </g>
  <g
     id="layer4">
    <rect
       width="84"
       height="26.000017"
       rx="6"
       ry="6"
       x="6"
       y="64"
       id="rect2841"
       style="color:#000000;fill:url(#linearGradient3870);fill-opacity:1;fill-rule:nonzero;stroke:none;stroke-width:1.5;marker:none;visibility:visible;display:inline;overflow:visible;enable-background:accumulate" />
    <path
       d="m 6,82 0,2 c 0,3.324 2.676,6 6,6 l 72,0 c 3.324,0 6,-2.676 6,-6 l 0,-2 c 0,3.324 -2.676,6 -6,6 L 12,88 C 8.676,88 6,85.324 6,82 z"
       inkscape:connector-curvature="0"
       id="rect4345"
       style="opacity:0.1;color:#000000;fill:#000000;fill-opacity:1;fill-rule:nonzero;stroke:none;stroke-width:1.5;marker:none;visibility:visible;display:inline;overflow:visible;enable-background:accumulate" />
    <path
       d="m 6,83 0,1 c 0,3.324 2.676,6 6,6 l 72,0 c 3.324,0 6,-2.676 6,-6 l 0,-1 c 0,3.324 -2.676,6 -6,6 L 12,89 C 8.676,89 6,86.324 6,83 z"
       inkscape:connector-curvature="0"
       id="rect4336"
       style="opacity:0.1;color:#000000;fill:#000000;fill-opacity:1;fill-rule:nonzero;stroke:none;stroke-width:1.5;marker:none;visibility:visible;display:inline;overflow:visible;enable-background:accumulate" />
    <path
       d="m 6,80 0,1 c 0,3.324 2.676,6 6,6 l 72,0 c 3.324,0 6,-2.676 6,-6 l 0,-1 c 0,3.324 -2.676,6 -6,6 L 12,86 C 8.676,86 6,83.324 6,80 z"
       inkscape:connector-curvature="0"
       id="path4412"
       style="opacity:0.2;fill:#000000;fill-opacity:1;fill-rule:nonzero;stroke:none" />
  </g>
  <g
     id="layer1"
     style="fill:#ff5555">
    <rect
       width="84"
       height="80"
       rx="6"
       ry="6"
       x="6"
       y="6"
       id="rect2419"
       style="fill:#ff5555;fill-opacity:1;fill-rule:nonzero;stroke:none" />
    <path
       d="M 120.78125,6.125 C 118.04223,6.6826484 116,9.0915 116,12 l 0,68 c 0,3.324 2.676,6 6,6 l 72,0 c 3.324,0 6,-2.676 6,-6 l 0,-68 c 0,-2.9085 -2.04223,-5.3173516 -4.78125,-5.875 2.20512,0.5362071 3.8125,2.4908437 3.8125,4.875 l 0,68 c 0,2.80489 -2.22636,5.03125 -5.03125,5.03125 l -72,0 c -2.80489,0 -5.03125,-2.22636 -5.03125,-5.03125 l 0,-68 c 0,-2.3841563 1.60738,-4.3387929 3.8125,-4.875 z"
       inkscape:connector-curvature="0"
       id="rect4359"
       style="opacity:0.20000000000000001;fill:#ff5555;fill-opacity:1;fill-rule:nonzero;stroke:none" />
    <path
       d="M 12,86 C 8.676,86 6,83.324 6,80 L 6,12 C 6,8.676 8.676,6 12,6 l 72,0 c 3.324,0 6,2.676 6,6 l 0,68 c 0,3.324 -2.676,6 -6,6 z m 0,-0.96875 72,0 c 2.80489,0 5.03125,-2.22636 5.03125,-5.03125 l 0,-68 C 89.03125,9.19511 86.80489,6.96875 84,6.96875 l -72,0 C 9.1951102,6.96875 6.96875,9.19511 6.96875,12 l 0,68 c 0,2.80489 2.2263602,5.03125 5.03125,5.03125 z"
       inkscape:connector-curvature="0"
       id="rect4377"
       style="opacity:0.40000000000000002;fill:#ff5555;fill-opacity:1;fill-rule:nonzero;stroke:none" />
    <path
       d="m 6,78 0,2 c 0,3.324 2.676,6 6,6 l 72,0 c 3.324,0 6,-2.676 6,-6 l 0,-2 c 0,3.324 -2.676,6 -6,6 L 12,84 C 8.676,84 6,81.324 6,78 z"
       inkscape:connector-curvature="0"
       id="rect4414"
       style="opacity:0.10000000000000001;fill:#ff5555;fill-opacity:1;fill-rule:nonzero;stroke:none" />
  </g>
  <g
     id="layer5"
     style="display:inline">
    <rect
       width="66"
       height="62"
       rx="12"
       ry="12"
       x="15"
       y="15"
       clip-path="url(#clipPath4355)"
       id="rect3171"
       style="opacity:0.1;fill:url(#linearGradient3613);fill-opacity:1;fill-rule:nonzero;stroke:#ffffff;stroke-width:0.5;stroke-linecap:round;stroke-linejoin:miter;stroke-miterlimit:4;stroke-opacity:1;stroke-dasharray:none;stroke-dashoffset:0;filter:url(#filter3794)" />
  </g>
  <path
     sodipodi:type="arc"
     style="fill:#ffffff;fill-opacity:1;fill-rule:evenodd;stroke:none"
     id="path4009"
     sodipodi:cx="32.424488"
     sodipodi:cy="48.097958"
     sodipodi:rx="14.987755"
     sodipodi:ry="15.771428"
     d="m 47.412243,48.097958 a 14.987755,15.771428 0 1 1 -29.97551,0 14.987755,15.771428 0 1 1 29.97551,0 z"
     transform="matrix(1.000817,0,0,0.95108698,-5.1081244,3.907718)" />
  <path
     sodipodi:type="arc"
     style="fill:#ffff00;fill-opacity:1;fill-rule:evenodd;stroke:none"
     id="path4011"
     sodipodi:cx="63.379593"
     sodipodi:cy="49.371429"
     sodipodi:rx="13.812244"
     sodipodi:ry="12.930613"
     d="m 77.191837,49.371429 a 13.812244,12.930613 0 1 1 -27.624489,0 13.812244,12.930613 0 1 1 27.624489,0 z"
     transform="matrix(1.0859929,0,0,1.1600379,2.0069451,-20.15844)" />
  <path
     sodipodi:type="arc"
     style="fill:#00aad4;fill-opacity:1;fill-rule:evenodd;stroke:none"
     id="path4051"
     sodipodi:cx="51.330612"
     sodipodi:cy="73.763268"
     sodipodi:rx="10.579592"
     sodipodi:ry="5.1918368"
     d="m 61.910204,73.763268 a 10.579592,5.1918368 0 1 1 -21.159184,-10e-7 l 10.579592,10e-7 z"
     sodipodi:start="0"
     sodipodi:end="3.1415927"
     transform="matrix(1,0,0,0.509434,-23.902041,21.491874)" />
  <path
     sodipodi:type="arc"
     style="fill:#00aad4;fill-opacity:1;fill-rule:evenodd;stroke:none"
     id="path4057"
     sodipodi:cx="55.836735"
     sodipodi:cy="66.808167"
     sodipodi:rx="2.5469387"
     sodipodi:ry="9.4040813"
     d="m 55.836735,57.404085 a 2.5469387,9.4040813 0 0 1 0,18.808163 l 0,-9.404081 z"
     sodipodi:start="4.712389"
     sodipodi:end="7.8539816"
     transform="matrix(2.3076924,0,0,0.70833333,-101.81727,4.9877565)" />
  <path
     style="fill:#ffffff;fill-opacity:1;fill-rule:evenodd;stroke:none"
     id="path4069"
     d="m 24.393349,76.291775 c 1.059151,-0.01707 2.108078,-0.118982 3.154926,-0.276279 2.6658,-0.572724 5.136111,-1.761695 7.527917,-3.034272 -0.225127,0.116212 -0.87528,0.504288 -0.67538,0.348637 0.443498,-0.345326 0.949048,-0.603044 1.411828,-0.922066 0.45666,-0.314802 0.903021,-0.64452 1.34562,-0.978802 1.421071,-1.073294 2.633536,-2.198565 3.907914,-3.437383 2.59872,-2.657048 4.897904,-5.586913 7.114066,-8.564703 0.641388,-0.845592 1.217852,-1.739776 1.866652,-2.57993 0.02967,-0.03841 0.355358,-0.4601 0.482979,-0.52718 0.877797,-0.461385 1.774696,-0.885476 2.662045,-1.328214 0.05045,0.08886 0.112447,0.172098 0.151365,0.266583 0.06748,0.163812 0.100398,0.443726 0.126725,0.611404 0.05491,0.349739 0.110909,0.695732 0.186413,1.041665 0.120596,0.521741 0.268341,1.043571 0.586285,1.480211 0.458126,0.614457 0.972244,0.813473 1.698161,0.976934 1.101822,0.204157 2.208972,0.161641 3.305852,-0.03516 1.624107,-0.282979 3.1015,-1.034135 4.525604,-1.831555 -0.560444,0.318239 -1.110658,0.65521 -1.681332,0.954718 -0.18053,0.09475 0.340491,-0.224397 0.508864,-0.33937 0.03958,-0.02703 0.615454,-0.436554 0.712518,-0.492937 2.690524,-1.562894 1.65858,-1.66024 2.880077,-1.494 0.06179,0.05744 0.134218,0.105245 0.185384,0.17233 0.2714,0.355835 0.462568,1.331685 0.5897,1.780179 0.05313,0.168298 0.101249,0.338259 0.159382,0.504895 0.06381,0.18291 0.137537,0.362211 0.206306,0.543316 0.07614,0.208333 0.155682,0.415457 0.228434,0.624999 0.180693,0.520431 0.373908,1.166518 0.569772,1.673016 0.139938,0.361874 0.300562,0.715405 0.450843,1.073108 1.251445,2.492661 2.924934,4.819444 5.017446,6.679974 0.460465,0.409416 0.963537,0.768242 1.445306,1.152363 0.522305,0.311795 1.04461,0.62359 1.566916,0.935385 0,0 -2.02483,1.309187 -2.02483,1.309187 l 0,0 c -0.526227,-0.32188 -1.052455,-0.64376 -1.578682,-0.96564 -0.485555,-0.391455 -0.990959,-0.759494 -1.456666,-1.174365 -2.116687,-1.885632 -3.834755,-4.207714 -5.236834,-6.658094 -0.169682,-0.35308 -0.349083,-0.70165 -0.509045,-1.059238 -0.481435,-1.076228 -0.855148,-2.201962 -1.300855,-3.29266 -0.08929,-0.283482 -0.365256,-1.390542 -0.568083,-1.57359 -0.01878,-0.01695 -0.04992,-0.0083 -0.07488,-0.01239 -0.903043,0.361051 -0.207808,0.08977 2.086091,-1.244878 0.115772,-0.06736 -0.230897,0.136033 -0.34286,0.20955 -0.148315,0.09739 -0.291469,0.202417 -0.437665,0.302955 -1.426392,0.980926 -0.617873,0.414037 -3.497804,2.086618 -1.458185,0.788311 -2.971144,1.51279 -4.620955,1.788831 -1.137359,0.173835 -2.291221,0.212408 -3.425935,-0.01694 -0.795547,-0.209022 -1.331394,-0.456147 -1.844518,-1.1206 -0.341288,-0.473002 -0.509599,-1.025065 -0.623929,-1.593945 -0.115753,-0.531467 -0.169479,-1.080339 -0.333805,-1.598749 0.791406,-0.458606 1.587293,-0.909564 2.374217,-1.37582 0.08599,-0.05095 -0.191086,0.06867 -0.270499,0.129358 -0.140885,0.107665 -0.263155,0.238532 -0.382503,0.369666 -0.764808,0.840334 -1.397492,1.794122 -2.107869,2.677801 -2.268676,2.95533 -4.538993,5.923083 -7.128,8.609546 -0.967367,0.959265 -1.51144,1.537007 -2.546415,2.414631 -2.327736,1.973842 -4.940653,3.569101 -7.603823,5.043609 -2.472777,1.298356 -5.022357,2.52138 -7.76963,3.113184 -1.100021,0.175004 -2.208178,0.248312 -3.30842,0.407358 0,0 2.315611,-1.753253 2.315611,-1.753253 z"
     inkscape:connector-curvature="0" />
  <path
     sodipodi:type="arc"
     style="fill:#ff5599;fill-opacity:1;fill-rule:evenodd;stroke:none"
     id="path4051-6"
     sodipodi:cx="51.330612"
     sodipodi:cy="73.763268"
     sodipodi:rx="10.579592"
     sodipodi:ry="5.1918368"
     d="m 61.910204,73.763268 a 10.579592,5.1918368 0 1 1 -21.159184,-10e-7 l 10.579592,10e-7 z"
     sodipodi:start="0"
     sodipodi:end="3.1415927"
     transform="matrix(1,0,0,0.509434,19.591836,7.9735042)" />
  <path
     sodipodi:type="arc"
     style="fill:#ff5599;fill-opacity:1;fill-rule:evenodd;stroke:none"
     id="path4057-1"
     sodipodi:cx="55.836735"
     sodipodi:cy="66.808167"
     sodipodi:rx="2.5469387"
     sodipodi:ry="9.4040813"
     d="m 55.836735,57.404085 a 2.5469387,9.4040813 0 0 1 0,18.808163 l 0,-9.404081 z"
     sodipodi:start="4.712389"
     sodipodi:end="7.8539816"
     transform="matrix(2.3076924,0,0,0.70833333,-58.323394,-8.5306138)" />
</svg>
