<?xml version="1.0" encoding="UTF-8" standalone="no"?>
<!-- Created with Inkscape (http://www.inkscape.org/) -->

<svg
   xmlns:dc="http://purl.org/dc/elements/1.1/"
   xmlns:cc="http://creativecommons.org/ns#"
   xmlns:rdf="http://www.w3.org/1999/02/22-rdf-syntax-ns#"
   xmlns:svg="http://www.w3.org/2000/svg"
   xmlns="http://www.w3.org/2000/svg"
   xmlns:xlink="http://www.w3.org/1999/xlink"
   xmlns:sodipodi="http://sodipodi.sourceforge.net/DTD/sodipodi-0.dtd"
   xmlns:inkscape="http://www.inkscape.org/namespaces/inkscape"
   width="48px"
   height="48px"
   id="svg3090"
   version="1.1"
   inkscape:version="0.48.0 r9654"
   sodipodi:docname="新建文档 2">
  <defs
     id="defs3092">
    <radialGradient
       r="77.5"
       fy="-493"
       fx="-136.5"
       cy="-493"
       cx="-136.5"
       gradientTransform="matrix(0.39073504,0.00401181,-0.00436626,0.42525754,85.328378,241.02631)"
       gradientUnits="userSpaceOnUse"
       id="radialGradient4791-5-2-0-8"
       xlink:href="#linearGradient4627-0-7-3-03-3"
       inkscape:collect="always" />
    <linearGradient
       id="linearGradient4627-0-7-3-03-3"
       inkscape:collect="always">
      <stop
         id="stop4629-1-1-2-7-0"
         offset="0"
         style="stop-color:#eeeeec;stop-opacity:0.4" />
      <stop
         id="stop4631-7-2-0-0-17"
         offset="1"
         style="stop-color:#eeeeec;stop-opacity:0" />
    </linearGradient>
    <linearGradient
       inkscape:collect="always"
       xlink:href="#linearGradient4188-8-4-7-3-2-0"
       id="linearGradient3741"
       gradientUnits="userSpaceOnUse"
       gradientTransform="matrix(0.29690265,0,0,0.29690265,63.434019,161.67975)"
       x1="-158.8125"
       y1="-439.51562"
       x2="-57.5"
       y2="-539.01562" />
    <linearGradient
       id="linearGradient4188-8-4-7-3-2-0"
       inkscape:collect="always">
      <stop
         id="stop4190-28-3-0-0-3-4"
         offset="0"
         style="stop-color:#eeeeec;stop-opacity:0.102" />
      <stop
         id="stop4192-4-5-5-1-7-87"
         offset="1"
         style="stop-color:#eeeeec;stop-opacity:0" />
    </linearGradient>
    <linearGradient
       gradientTransform="matrix(0.29690265,0,0,0.29690265,63.056367,161.46723)"
       inkscape:collect="always"
       xlink:href="#linearGradient4176-7-4-7-1-7-6"
       id="linearGradient4186-22-6-7-8-4-2"
       x1="-68.25"
       y1="-400.85938"
       x2="-48.65625"
       y2="-438.85938"
       gradientUnits="userSpaceOnUse" />
    <linearGradient
       inkscape:collect="always"
       id="linearGradient4176-7-4-7-1-7-6">
      <stop
         style="stop-color:#eeeeec;stop-opacity:0.1"
         offset="0"
         id="stop4178-4-7-8-0-3-5" />
      <stop
         style="stop-color:#eeeeec;stop-opacity:0"
         offset="1"
         id="stop4180-4-4-5-0-3-2" />
    </linearGradient>
    <linearGradient
       gradientTransform="matrix(0.29690265,0,0,0.29690265,63.185427,161.59628)"
       inkscape:collect="always"
       xlink:href="#linearGradient4464-5-4-5-6-4-5"
       id="linearGradient4462-3-1-2-7-5-6"
       x1="-43.853851"
       y1="-432"
       x2="-86.146149"
       y2="-385"
       gradientUnits="userSpaceOnUse" />
    <linearGradient
       id="linearGradient4464-5-4-5-6-4-5"
       inkscape:collect="always">
      <stop
         id="stop4466-4-2-2-8-1-8"
         offset="0"
         style="stop-color:#fcaf3e;stop-opacity:1" />
      <stop
         id="stop4468-6-4-9-4-6-7"
         offset="1"
         style="stop-color:#ce5c00;stop-opacity:1" />
    </linearGradient>
    <linearGradient
       gradientTransform="matrix(0.29690265,0,0,0.29690265,64.502102,162.48275)"
       inkscape:collect="always"
       xlink:href="#linearGradient4194-9-4-6-9-0-6"
       id="linearGradient4182-9-4-7-2-8-9"
       x1="-208.1875"
       y1="-521.26562"
       x2="-164.53125"
       y2="-542.76562"
       gradientUnits="userSpaceOnUse" />
    <linearGradient
       id="linearGradient4194-9-4-6-9-0-6"
       inkscape:collect="always">
      <stop
         id="stop4196-10-3-7-9-1-0"
         offset="0"
         style="stop-color:#eeeeec;stop-opacity:0.102" />
      <stop
         id="stop4198-8-5-6-8-7-4"
         offset="1"
         style="stop-color:#eeeeec;stop-opacity:0" />
    </linearGradient>
    <linearGradient
       gradientTransform="matrix(0.29690265,0,0,0.29690265,64.502102,162.48275)"
       inkscape:collect="always"
       xlink:href="#linearGradient4884-9-4-7-86"
       id="linearGradient4454-0-6-9-1-1-0"
       x1="-186.25"
       y1="-533.9668"
       x2="-215.5423"
       y2="-495.9668"
       gradientUnits="userSpaceOnUse" />
    <linearGradient
       id="linearGradient4884-9-4-7-86"
       inkscape:collect="always">
      <stop
         id="stop4886-6-2-7-24"
         offset="0"
         style="stop-color:#fcaf3e;stop-opacity:1" />
      <stop
         id="stop4888-2-2-1-7"
         offset="1"
         style="stop-color:#ce5c00;stop-opacity:1" />
    </linearGradient>
    <radialGradient
       r="77.5"
       fy="-493"
       fx="-136.5"
       cy="-493"
       cx="-136.5"
       gradientTransform="matrix(0.39073504,0.00401181,-0.00436626,0.42525754,85.54924,241.00606)"
       gradientUnits="userSpaceOnUse"
       id="radialGradient3646"
       xlink:href="#linearGradient4627-0-7-3-03-3"
       inkscape:collect="always" />
    <radialGradient
       r="77.5"
       fy="-493"
       fx="-136.5"
       cy="-493"
       cx="-136.5"
       gradientTransform="matrix(1.3160377,0.01351224,-0.01470608,1.4323135,365.6836,865.81211)"
       gradientUnits="userSpaceOnUse"
       id="radialGradient3704"
       xlink:href="#linearGradient4627-0-7"
       inkscape:collect="always" />
    <linearGradient
       id="linearGradient4627-0-7"
       inkscape:collect="always">
      <stop
         id="stop4629-1-1"
         offset="0"
         style="stop-color:#eeeeec;stop-opacity:0.4" />
      <stop
         id="stop4631-7-2"
         offset="1"
         style="stop-color:#eeeeec;stop-opacity:0" />
    </linearGradient>
    <radialGradient
       r="77.5"
       fy="-493"
       fx="-136.5"
       cy="-493"
       cx="-136.5"
       gradientTransform="matrix(0.39073504,0.00401181,-0.00436626,0.42525754,85.571501,240.96888)"
       gradientUnits="userSpaceOnUse"
       id="radialGradient3088"
       xlink:href="#linearGradient4627-0-7"
       inkscape:collect="always" />
  </defs>
  <sodipodi:namedview
     id="base"
     pagecolor="#ffffff"
     bordercolor="#666666"
     borderopacity="1.0"
     inkscape:pageopacity="0.0"
     inkscape:pageshadow="2"
     inkscape:zoom="7"
     inkscape:cx="2.6716685"
     inkscape:cy="24"
     inkscape:current-layer="layer1"
     showgrid="true"
     inkscape:grid-bbox="true"
     inkscape:document-units="px"
     inkscape:window-width="1280"
     inkscape:window-height="738"
     inkscape:window-x="-4"
     inkscape:window-y="-3"
     inkscape:window-maximized="1" />
  <metadata
     id="metadata3095">
    <rdf:RDF>
      <cc:Work
         rdf:about="">
        <dc:format>image/svg+xml</dc:format>
        <dc:type
           rdf:resource="http://purl.org/dc/dcmitype/StillImage" />
        <dc:title></dc:title>
      </cc:Work>
    </rdf:RDF>
  </metadata>
  <g
     id="layer1"
     inkscape:label="Layer 1"
     inkscape:groupmode="layer">
    <path
       style="fill:url(#radialGradient3088);fill-opacity:1;fill-rule:nonzero;stroke:#000000;stroke-width:0;stroke-linecap:butt;stroke-linejoin:miter;stroke-miterlimit:4;stroke-opacity:1;stroke-dashoffset:0"
       d="m 47.00709,24.83119 c 0,12.708049 -10.30191,23.009957 -23.00996,23.009957 -12.70805,0 -23.00996,-10.301908 -23.00996,-23.009957 0,-12.708045 10.30191,-23.0099504 23.00996,-23.0099504 12.70805,0 23.00996,10.3019054 23.00996,23.0099504 z"
       id="path4650-9-1"
       inkscape:connector-curvature="0"
       inkscape:export-filename="/home/yy/Desktop/hhh.png"
       inkscape:export-xdpi="39.105446"
       inkscape:export-ydpi="39.105446" />
    <path
       style="fill:url(#radialGradient3646);fill-opacity:1;fill-rule:nonzero;stroke:#000000;stroke-width:0;stroke-linecap:butt;stroke-linejoin:miter;stroke-miterlimit:4;stroke-opacity:1;stroke-dashoffset:0"
       d="m 46.984847,24.868362 c 0,12.708048 -10.301909,23.009958 -23.009957,23.009958 -12.70805,0 -23.00994,-10.30191 -23.00994,-23.009958 0,-12.708044 10.30189,-23.0099514 23.00994,-23.0099514 12.708048,0 23.009957,10.3019074 23.009957,23.0099514 z"
       id="path4650-9-1-4-1-1"
       inkscape:connector-curvature="0"
       inkscape:export-filename="/home/yy/Desktop/hhh.png"
       inkscape:export-xdpi="39.105446"
       inkscape:export-ydpi="39.105446" />
    <path
       style="fill:#0055d4;fill-opacity:1;fill-rule:nonzero;stroke:#000000;stroke-width:0;stroke-linecap:butt;stroke-linejoin:miter;stroke-miterlimit:4;stroke-opacity:1;stroke-dashoffset:0"
       d="M 46.863165,24.990044 C 46.863165,37.69809 36.561258,48 23.85321,48 11.14516,48 0.84325,37.69809 0.84325,24.990044 0.84325,12.282 11.14516,1.9800896 23.85321,1.9800896 c 12.708048,0 23.009955,10.3019104 23.009955,23.0099544 z"
       id="path3324-4-5-0-1-1-4"
       inkscape:connector-curvature="0"
       inkscape:export-filename="/home/yy/Desktop/hhh.png"
       inkscape:export-xdpi="39.105446"
       inkscape:export-ydpi="39.105446" />
    <path
       style="fill:url(#linearGradient4454-0-6-9-1-1-0);fill-opacity:1;fill-rule:nonzero;stroke:#000000;stroke-width:0;stroke-linecap:butt;stroke-linejoin:miter;stroke-miterlimit:4;stroke-opacity:1;stroke-dasharray:none;stroke-dashoffset:0"
       d="M 1.90785,18.653107 C 3.82781,11.788012 8.83271,6.2246826 15.35215,3.5606646 13.87711,2.7570406 12.18958,2.3037476 10.39159,2.3037476 4.65247,2.3037476 0,6.9562186 0,12.695339 c 0,2.222698 0.7193,4.268193 1.90785,5.957768 z"
       id="path3324-5-4-8-5-3-9-4-25"
       inkscape:connector-curvature="0"
       sodipodi:nodetypes="ccssc"
       inkscape:export-filename="/home/yy/Desktop/hhh.png"
       inkscape:export-xdpi="39.105446"
       inkscape:export-ydpi="39.105446" />
    <path
       inkscape:connector-curvature="0"
       style="fill:url(#linearGradient4182-9-4-7-2-8-9);fill-opacity:1;fill-rule:nonzero;stroke:#000000;stroke-width:0;stroke-linecap:butt;stroke-linejoin:miter;stroke-miterlimit:4;stroke-opacity:1;stroke-dasharray:none;stroke-dashoffset:0"
       d="m 10.39159,2.3037476 c -3.05359,0 -5.79967,1.317295 -7.70091,3.414377 C 2.97645,8.2629526 3.508,10.74038 4.26799,13.131416 6.80692,8.8498596 10.69685,5.4599246 15.35544,3.5563026 13.88039,2.7526796 12.18958,2.3037476 10.39159,2.3037476 z"
       id="path4168-1-4-7-4-7-4"
       inkscape:export-filename="/home/yy/Desktop/hhh.png"
       inkscape:export-xdpi="39.105446"
       inkscape:export-ydpi="39.105446" />
    <path
       style="fill:url(#linearGradient4462-3-1-2-7-5-6);fill-opacity:1;fill-rule:nonzero;stroke:#000000;stroke-width:0;stroke-linecap:butt;stroke-linejoin:miter;stroke-miterlimit:4;stroke-opacity:1;stroke-dasharray:none;stroke-dashoffset:0"
       d="m 46.09217,31.097685 c -1.919963,6.865099 -6.924875,12.428429 -13.44432,15.092447 1.475043,0.803623 3.162566,1.256917 4.960558,1.256917 C 43.347527,47.447049 48,42.794576 48,37.055456 48,34.83276 47.280705,32.787262 46.09217,31.097685 z"
       id="path3324-5-4-0-35-5-5-1-3-9"
       inkscape:connector-curvature="0"
       sodipodi:nodetypes="ccssc"
       inkscape:export-filename="/home/yy/Desktop/hhh.png"
       inkscape:export-xdpi="39.105446"
       inkscape:export-ydpi="39.105446" />
    <path
       inkscape:connector-curvature="0"
       style="fill:url(#linearGradient4186-22-6-7-8-4-2);fill-opacity:1;fill-rule:nonzero;stroke:#000000;stroke-width:0;stroke-linecap:butt;stroke-linejoin:miter;stroke-miterlimit:4;stroke-opacity:1;stroke-dasharray:none;stroke-dashoffset:0"
       d="m 45.965907,30.969203 c -1.205505,4.310447 -3.635281,8.106063 -6.884429,10.994677 2.301687,0.385697 4.663092,0.62046 7.069994,0.686587 1.086117,-1.641817 1.716469,-3.608719 1.716469,-5.724655 0,-2.222695 -0.713499,-4.267031 -1.902034,-5.956609 z"
       id="path4159-5-1-9-8-6-9"
       inkscape:export-filename="/home/yy/Desktop/hhh.png"
       inkscape:export-xdpi="39.105446"
       inkscape:export-ydpi="39.105446" />
    <g
       transform="matrix(0.30761337,0,0,0.28656486,-23.00094,-16.093028)"
       style="font-size:90px;font-style:normal;font-variant:normal;font-weight:normal;font-stretch:normal;line-height:125%;letter-spacing:0px;word-spacing:0px;fill:#ffffff;fill-opacity:1;stroke:none;font-family:Tengwar Quenya-1;-inkscape-font-specification:Tengwar Quenya-1"
       id="text3041">
      <path
         inkscape:connector-curvature="0"
         d="m 147.99744,114.46065 c -1.66996,0.29302 -3.47171,0.9522 -5.40527,1.97754 -1.90433,1.02544 -3.73538,2.22661 -5.49316,3.60351 -1.72855,1.34771 -2.95902,2.51958 -3.69141,3.51563 -2.05081,2.49028 -3.63284,5.44926 -4.74609,8.87695 -1.08401,3.39847 -1.626,7.10452 -1.62598,11.11816 -2e-5,4.86331 0.58592,9.41897 1.75781,13.667 1.20115,4.24805 3.04685,7.96875 5.53711,11.16211 1.6113,2.13867 3.74997,4.01367 6.41602,5.625 2.66598,1.61132 5.56636,2.85644 8.70117,3.73535 3.13472,0.8789 6.16694,1.31835 9.09668,1.31836 5.33197,-1e-5 10.16595,-1.34767 14.50195,-4.04297 1.17181,-0.76172 2.32903,-1.74317 3.47168,-2.94434 1.14251,-1.20117 2.25579,-2.59277 3.33985,-4.1748 1.08391,-1.58203 2.08,-3.22265 2.98828,-4.92188 0.90812,-1.69921 1.71379,-3.32518 2.41699,-4.87793 l 1.53809,0.35157 c -0.7911,3.25196 -1.7579,6.19629 -2.9004,8.833 -1.14265,2.63672 -2.5196,5.03906 -4.13085,7.20703 -2.02156,2.66601 -3.82332,4.70214 -5.40528,6.1084 -1.61139,1.46484 -3.22272,2.70995 -4.83398,3.73535 -1.5821,1.02538 -3.38385,1.88964 -5.40528,2.59278 -2.3145,0.7617 -4.43853,1.31834 -6.37207,1.66992 -1.90434,0.38084 -3.86723,0.57127 -5.88867,0.57129 -5.27348,-2e-5 -9.97562,-0.87892 -14.10644,-2.63672 -4.27737,-1.78712 -8.14456,-4.48243 -11.60157,-8.08594 -7.14845,-7.4414 -10.72266,-17.09471 -10.72265,-28.95996 -1e-5,-11.60153 4.07225,-21.07906 12.21679,-28.43262 1.02537,-0.90815 2.79783,-2.08002 5.31739,-3.51562 2.57809,-1.46479 4.71676,-2.66596 6.41601,-3.60352 -1.08401,-0.11713 -2.76858,-0.17572 -5.05371,-0.17578 -8.584,6e-5 -17.59278,1.9776 -27.02637,5.93262 0.87891,-1.93354 1.91895,-3.63276 3.12012,-5.09766 1.23047,-1.49408 2.60742,-2.78314 4.13086,-3.86718 1.52343,-1.11322 3.39843,-2.24115 5.625,-3.38379 5.94725,-2.75384 12.4072,-4.13079 19.37988,-4.13086 3.4863,7e-5 7.1484,0.45417 10.98633,1.3623 7.49995,1.66999 13.19819,2.50495 17.09473,2.50489 3.45697,6e-5 6.81145,-0.39545 10.06348,-1.18653 0.90813,-0.23431 1.78703,-0.57122 2.63671,-1.01074 0.84954,-0.46868 1.96282,-1.05462 3.33985,-1.75781 1.40617,-0.73236 2.56339,-1.27435 3.47168,-1.62598 -1.87508,4.95124 -3.70613,8.43756 -5.49317,10.45898 -0.6739,0.82038 -1.28913,1.42096 -1.8457,1.80176 -0.52742,0.35162 -1.128,0.64459 -1.80176,0.87891 -0.6739,0.23443 -1.5235,0.51275 -2.54883,0.83496 -2.81256,1.17193 -6.02057,1.75787 -9.62402,1.75781 -4.10162,6e-5 -10.04888,-0.92279 -17.8418,-2.76855"
         id="path3033" />
    </g>
    <path
       inkscape:connector-curvature="0"
       style="fill:url(#linearGradient3741);fill-opacity:1;fill-rule:nonzero;stroke:#000000;stroke-width:0;stroke-linecap:butt;stroke-linejoin:miter;stroke-miterlimit:4;stroke-opacity:1;stroke-dasharray:none;stroke-dashoffset:0"
       d="m 23.50061,1.6492626 c -8.5575,0 -16.02093,4.675097 -19.98524,11.6070394 5.02047,14.530699 18.43087,25.676929 35.080886,28.762445 4.846088,-4.218486 7.914312,-10.430021 7.914312,-17.359529 0,-12.708048 -10.301908,-23.0099554 -23.009958,-23.0099554 z"
       id="path4163-6-7-4-2-6-7"
       inkscape:export-filename="/home/yy/Desktop/hhh.png"
       inkscape:export-xdpi="39.105446"
       inkscape:export-ydpi="39.105446" />
    <path
       style="fill:url(#radialGradient4791-5-2-0-8);fill-opacity:1;fill-rule:nonzero;stroke:#000000;stroke-width:0;stroke-linecap:butt;stroke-linejoin:miter;stroke-miterlimit:4;stroke-opacity:1;stroke-dashoffset:0"
       d="m 46.763971,24.888614 c 0,12.708048 -10.301906,23.009956 -23.009951,23.009956 -12.70805,0 -23.00995,-10.301908 -23.00995,-23.009956 0,-12.708047 10.3019,-23.0099544 23.00995,-23.0099544 12.708045,0 23.009951,10.3019074 23.009951,23.0099544 z"
       id="path4621-4-7-2-9-5"
       inkscape:connector-curvature="0"
       inkscape:export-filename="/home/yy/Desktop/hhh.png"
       inkscape:export-xdpi="39.105446"
       inkscape:export-ydpi="39.105446" />
  </g>
</svg>
