<?xml version="1.0" encoding="UTF-8" standalone="no"?>
<!-- Created with Inkscape (http://www.inkscape.org/) -->

<svg
   xmlns:dc="http://purl.org/dc/elements/1.1/"
   xmlns:cc="http://creativecommons.org/ns#"
   xmlns:rdf="http://www.w3.org/1999/02/22-rdf-syntax-ns#"
   xmlns:svg="http://www.w3.org/2000/svg"
   xmlns="http://www.w3.org/2000/svg"
   xmlns:xlink="http://www.w3.org/1999/xlink"
   xmlns:sodipodi="http://sodipodi.sourceforge.net/DTD/sodipodi-0.dtd"
   xmlns:inkscape="http://www.inkscape.org/namespaces/inkscape"
   width="54"
   height="16"
   id="svg3706"
   version="1.1"
   inkscape:version="0.48.0 r9654"
   sodipodi:docname="icon.svg">
  <defs
     id="defs3708">
    <radialGradient
       r="77.5"
       fy="-493"
       fx="-136.5"
       cy="-493"
       cx="-136.5"
       gradientTransform="matrix(1.3160377,0.01351224,-0.01470608,1.4323135,364.86476,866.00555)"
       gradientUnits="userSpaceOnUse"
       id="radialGradient4791-5-2-0-8"
       xlink:href="#linearGradient4627-0-7-3-03-3"
       inkscape:collect="always" />
    <linearGradient
       id="linearGradient4627-0-7-3-03-3"
       inkscape:collect="always">
      <stop
         id="stop4629-1-1-2-7-0"
         offset="0"
         style="stop-color:#eeeeec;stop-opacity:0.4" />
      <stop
         id="stop4631-7-2-0-0-17"
         offset="1"
         style="stop-color:#eeeeec;stop-opacity:0" />
    </linearGradient>
    <linearGradient
       inkscape:collect="always"
       xlink:href="#linearGradient4188-8-4-7-3-2-0"
       id="linearGradient3741"
       gradientUnits="userSpaceOnUse"
       gradientTransform="translate(291.12221,598.75783)"
       x1="-158.8125"
       y1="-439.51562"
       x2="-57.5"
       y2="-539.01562" />
    <linearGradient
       id="linearGradient4188-8-4-7-3-2-0"
       inkscape:collect="always">
      <stop
         id="stop4190-28-3-0-0-3-4"
         offset="0"
         style="stop-color:#eeeeec;stop-opacity:0.102" />
      <stop
         id="stop4192-4-5-5-1-7-87"
         offset="1"
         style="stop-color:#eeeeec;stop-opacity:0" />
    </linearGradient>
    <linearGradient
       gradientTransform="translate(289.85024,598.04198)"
       inkscape:collect="always"
       xlink:href="#linearGradient4176-7-4-7-1-7-6"
       id="linearGradient4186-22-6-7-8-4-2"
       x1="-68.25"
       y1="-400.85938"
       x2="-48.65625"
       y2="-438.85938"
       gradientUnits="userSpaceOnUse" />
    <linearGradient
       inkscape:collect="always"
       id="linearGradient4176-7-4-7-1-7-6">
      <stop
         style="stop-color:#eeeeec;stop-opacity:0.1"
         offset="0"
         id="stop4178-4-7-8-0-3-5" />
      <stop
         style="stop-color:#eeeeec;stop-opacity:0"
         offset="1"
         id="stop4180-4-4-5-0-3-2" />
    </linearGradient>
    <linearGradient
       gradientTransform="translate(290.28493,598.47668)"
       inkscape:collect="always"
       xlink:href="#linearGradient4464-5-4-5-6-4-5"
       id="linearGradient4462-3-1-2-7-5-6"
       x1="-43.853851"
       y1="-432"
       x2="-86.146149"
       y2="-385"
       gradientUnits="userSpaceOnUse" />
    <linearGradient
       id="linearGradient4464-5-4-5-6-4-5"
       inkscape:collect="always">
      <stop
         id="stop4466-4-2-2-8-1-8"
         offset="0"
         style="stop-color:#fcaf3e;stop-opacity:1" />
      <stop
         id="stop4468-6-4-9-4-6-7"
         offset="1"
         style="stop-color:#ce5c00;stop-opacity:1" />
    </linearGradient>
    <linearGradient
       gradientTransform="translate(294.71963,601.46238)"
       inkscape:collect="always"
       xlink:href="#linearGradient4194-9-4-6-9-0-6"
       id="linearGradient4182-9-4-7-2-8-9"
       x1="-208.1875"
       y1="-521.26562"
       x2="-164.53125"
       y2="-542.76562"
       gradientUnits="userSpaceOnUse" />
    <linearGradient
       id="linearGradient4194-9-4-6-9-0-6"
       inkscape:collect="always">
      <stop
         id="stop4196-10-3-7-9-1-0"
         offset="0"
         style="stop-color:#eeeeec;stop-opacity:0.102" />
      <stop
         id="stop4198-8-5-6-8-7-4"
         offset="1"
         style="stop-color:#eeeeec;stop-opacity:0" />
    </linearGradient>
    <linearGradient
       gradientTransform="translate(294.71963,601.46238)"
       inkscape:collect="always"
       xlink:href="#linearGradient4884-9-4-7-86"
       id="linearGradient4454-0-6-9-1-1-0"
       x1="-186.25"
       y1="-533.9668"
       x2="-215.5423"
       y2="-495.9668"
       gradientUnits="userSpaceOnUse" />
    <linearGradient
       id="linearGradient4884-9-4-7-86"
       inkscape:collect="always">
      <stop
         id="stop4886-6-2-7-24"
         offset="0"
         style="stop-color:#fcaf3e;stop-opacity:1" />
      <stop
         id="stop4888-2-2-1-7"
         offset="1"
         style="stop-color:#ce5c00;stop-opacity:1" />
    </linearGradient>
    <radialGradient
       r="77.5"
       fy="-493"
       fx="-136.5"
       cy="-493"
       cx="-136.5"
       gradientTransform="matrix(1.3160377,0.01351224,-0.01470608,1.4323135,365.60868,865.93731)"
       gradientUnits="userSpaceOnUse"
       id="radialGradient3646"
       xlink:href="#linearGradient4627-0-7-3-03-3"
       inkscape:collect="always" />
    <radialGradient
       inkscape:collect="always"
       xlink:href="#linearGradient4627-0-7"
       id="radialGradient4625-0-7"
       cx="-136.5"
       cy="-493"
       fx="-136.5"
       fy="-493"
       r="77.5"
       gradientTransform="matrix(1.3160377,0.01351224,-0.01470608,1.4323135,421.49742,1411.8377)"
       gradientUnits="userSpaceOnUse" />
    <linearGradient
       id="linearGradient4627-0-7"
       inkscape:collect="always">
      <stop
         id="stop4629-1-1"
         offset="0"
         style="stop-color:#eeeeec;stop-opacity:0.4" />
      <stop
         id="stop4631-7-2"
         offset="1"
         style="stop-color:#eeeeec;stop-opacity:0" />
    </linearGradient>
    <radialGradient
       r="77.5"
       fy="-493"
       fx="-136.5"
       cy="-493"
       cx="-136.5"
       gradientTransform="matrix(1.3160377,0.01351224,-0.01470608,1.4323135,365.6836,865.81211)"
       gradientUnits="userSpaceOnUse"
       id="radialGradient3704"
       xlink:href="#linearGradient4627-0-7"
       inkscape:collect="always" />
  </defs>
  <sodipodi:namedview
     id="base"
     pagecolor="#ffffff"
     bordercolor="#666666"
     borderopacity="1.0"
     inkscape:pageopacity="0.0"
     inkscape:pageshadow="2"
     inkscape:zoom="16"
     inkscape:cx="29.886809"
     inkscape:cy="9.6778997"
     inkscape:document-units="px"
     inkscape:current-layer="layer1"
     showgrid="false"
     inkscape:window-width="1280"
     inkscape:window-height="736"
     inkscape:window-x="-4"
     inkscape:window-y="0"
     inkscape:window-maximized="1" />
  <metadata
     id="metadata3711">
    <rdf:RDF>
      <cc:Work
         rdf:about="">
        <dc:format>image/svg+xml</dc:format>
        <dc:type
           rdf:resource="http://purl.org/dc/dcmitype/StillImage" />
        <dc:title />
      </cc:Work>
    </rdf:RDF>
  </metadata>
  <g
     inkscape:label="Layer 1"
     inkscape:groupmode="layer"
     id="layer1"
     transform="translate(0,-1036.3622)">
    <g
       style="font-size:144px;font-style:normal;font-variant:normal;font-weight:bold;font-stretch:normal;line-height:124.00000095%;letter-spacing:0px;word-spacing:0px;opacity:0.8;fill:#888a85;fill-opacity:1;stroke:none;font-family:Ringbearer;-inkscape-font-specification:Ringbearer Bold"
       id="text5482-4"
       transform="matrix(0.12636301,0,0,0.12800831,-22.810727,954.13897)"
       inkscape:export-filename="/home/yy/temp/linnya/icon.png"
       inkscape:export-xdpi="12.282485"
       inkscape:export-ydpi="12.282485">
      <path
         d="m 257.50961,737.51422 c -0.98445,3.46877 -1.96883,6.91408 -2.95312,10.33594 -1.21883,4.07813 -2.9532,7.94531 -5.20313,11.60156 l -62.4375,-0.5625 c -0.60938,-0.1875 -1.68751,-0.42187 -3.23437,-0.70312 -1.54688,-0.23438 -2.60157,-0.44532 -3.16406,-0.63282 -1e-5,-1.21875 0.46874,-2.13281 1.40625,-2.74218 1.92186,0.0469 3.86717,-0.39844 5.83593,-1.33594 2.57811,-1.21875 4.17186,-3.02343 4.78125,-5.41406 0.28124,-0.98437 0.32811,-2.71874 0.14063,-5.20313 -0.18752,-2.85936 -0.23439,-4.80467 -0.14063,-5.83594 0.0469,-0.56248 0.30467,-2.48435 0.77344,-5.76562 0.32811,-2.53122 0.49217,-4.52341 0.49219,-5.97656 -2e-5,-16.87495 -0.28127,-28.19526 -0.84375,-33.96094 0.14061,-0.18743 0.42185,-0.58587 0.84375,-1.19531 -0.37502,-4.73431 -0.98439,-8.60149 -1.82813,-11.60157 -0.42189,-1.40617 -1.85157,-2.71866 -4.28906,-3.9375 -2.39063,-1.26554 -4.14845,-1.73429 -5.27344,-1.40625 0,-1.92179 1.24218,-2.88272 3.72657,-2.88281 0.70311,9e-5 1.66405,0.0938 2.88281,0.28125 1.21873,0.14071 1.99217,0.21103 2.32031,0.21094 l 35.22656,0 c 0.0937,1.12508 -1.07817,1.99227 -3.51562,2.60156 -1.73442,0.42196 -3.44536,0.84383 -5.13281,1.26563 -2.10942,0.98445 -3.23442,1.52351 -3.375,1.61718 -1.35942,0.84383 -2.20317,1.80477 -2.53125,2.88282 -0.98442,3.28132 -1.6641,7.64069 -2.03907,13.07812 -0.60941,8.25006 -0.93753,12.67974 -0.98437,13.28906 0.93746,2.67193 1.40621,5.08599 1.40625,7.24219 -4e-5,1.07817 -0.1641,2.55473 -0.49219,4.42969 -0.32816,1.82816 -0.49222,3.28129 -0.49219,4.35937 l 0,19.125 c 0.74997,2.25002 1.82809,5.50783 3.23438,9.77344 0.28121,0.79688 1.17183,1.31251 2.67187,1.54688 1.87496,0.23438 4.54683,0.63281 8.01563,1.19531 0.60932,0.14063 1.19526,0.14063 1.75781,0 3.37495,-0.46875 6.74994,-0.96093 10.125,-1.47656 4.12494,-0.70312 7.289,-1.82812 9.49219,-3.375 0.7968,-0.60937 1.78118,-2.24999 2.95312,-4.92188 1.21868,-2.90623 2.27337,-4.8281 3.16407,-5.76562 0.70304,-0.74998 1.64054,-1.12498 2.8125,-1.125 0.60929,2e-5 1.89835,0.32814 3.86718,0.98437"
         style="fill:#888a85;font-family:Ringbearer;-inkscape-font-specification:Ringbearer Bold"
         id="path3825"
         inkscape:connector-curvature="0" />
      <path
         d="m 272.77975,651.03121 c -0.18754,0.70321 -0.49223,1.68758 -0.91407,2.95313 -4e-5,8e-5 -1.40628,0.30476 -4.21875,0.91406 -1.78128,0.42195 -2.90628,1.21883 -3.375,2.39063 -0.37503,0.56257 -0.84378,1.35944 -1.40625,2.39062 -0.0938,0.3282 -0.70315,3.04694 -1.82812,8.15625 l -0.28125,29.53125 c -0.32815,1.21878 -0.49222,1.87503 -0.49219,1.96875 -3e-5,3e-5 0.16404,0.49222 0.49219,1.47656 l -0.14063,10.89844 c -0.32815,1.50002 -0.32815,3.56252 0,6.1875 0.3281,3.04689 0.98435,5.53126 1.96875,7.45313 0.3281,0.65625 1.14841,1.38281 2.46094,2.17968 2.43747,1.40626 4.87496,2.08594 7.3125,2.03907 -0.0469,0.60937 -0.30473,1.5 -0.77344,2.67187 l -8.15625,0 c -0.14065,0 -0.96096,-0.0469 -2.46093,-0.14062 -1.45316,-0.0937 -2.22659,-0.14063 -2.32032,-0.14063 -0.14065,0 -0.77346,0.0469 -1.89843,0.14063 -1.12503,0.0937 -1.7344,0.14062 -1.82813,0.14062 -0.0938,0 -0.53908,-0.0469 -1.33594,-0.14062 -0.75002,-0.0937 -1.19533,-0.14063 -1.33593,-0.14063 -0.14065,0 -0.46877,0.0469 -0.98438,0.14063 -0.46877,0.0937 -0.77345,0.14062 -0.91406,0.14062 l -14.69531,0.35156 c -1.26563,0 -1.89844,-0.46875 -1.89844,-1.40625 0,-1.07812 0.32812,-1.71093 0.98437,-1.89843 1.5,-0.28125 3,-0.53906 4.5,-0.77344 1.73437,-0.375 2.85937,-1.00781 3.375,-1.89844 0.18749,-0.56249 0.46874,-1.42968 0.84375,-2.60156 0.65624,0.0469 1.66405,0.18751 3.02344,0.42187 0.46874,-1.92186 0.70311,-3.16405 0.70313,-3.72656 -2e-5,-0.51561 -0.23439,-1.21874 -0.70313,-2.10937 0.37499,-0.93749 0.4453,-1.73436 0.21094,-2.39063 -0.18752,-0.46873 -0.63283,-1.26561 -1.33594,-2.39062 -0.60939,-0.98436 -0.91407,-1.54686 -0.91406,-1.6875 -1e-5,0.32814 0.39842,-1.07811 1.19531,-4.21875 0.0937,-0.37498 -0.0469,-0.91404 -0.42187,-1.61719 0.79686,-1.31247 1.19529,-2.2031 1.19531,-2.67188 -2e-5,-0.0937 -0.1172,-1.61715 -0.35156,-4.57031 -2e-5,-0.23434 -0.16408,-0.67965 -0.49219,-1.33594 -0.32814,-0.65621 -0.4922,-1.05465 -0.49219,-1.19531 -1e-5,-0.18746 0.18749,-0.51559 0.5625,-0.98437 -0.0938,0.18753 -0.14064,-0.0703 -0.14062,-0.77344 l 0,-8.50781 c -2e-5,-0.14058 0.0937,-0.56246 0.28125,-1.26563 0.23436,-0.70308 0.35154,-1.12495 0.35156,-1.26562 -2e-5,-0.0937 -0.0703,-0.25777 -0.21094,-0.49219 -0.14064,-0.2812 -0.21095,-0.49214 -0.21094,-0.63281 -1e-5,0.18754 0.0703,-0.86714 0.21094,-3.16407 -1e-5,-0.46869 -0.0469,-1.24213 -0.14062,-2.32031 -0.0938,-1.07807 -0.14064,-1.61713 -0.14063,-1.61719 l 0,-5.55468 c -1e-5,-0.51557 -0.32814,-1.26557 -0.98437,-2.25 0.18748,-0.51556 0.0469,-1.4765 -0.42188,-2.88282 -0.0469,-0.65618 -0.23439,-1.64055 -0.5625,-2.95312 -0.37501,-0.42181 -0.84376,-1.03118 -1.40625,-1.82813 -0.18751,-0.46867 -0.51563,-1.1718 -0.98437,-2.10937 -0.93751,-1.45305 -1.82814,-2.39055 -2.67188,-2.8125 -1.07813,-0.28117 -2.69532,-0.7968 -4.85156,-1.54688 0.14062,-0.65617 0.39843,-1.49992 0.77344,-2.53125 l 0.63281,0 c 0.14062,8e-5 0.56249,0.047 1.26562,0.14063 0.75,0.0938 1.19531,0.1407 1.33594,0.14062 l 35.01563,-0.28125"
         style="fill:#888a85;font-family:Ringbearer;-inkscape-font-specification:Ringbearer Bold"
         id="path3827"
         inkscape:connector-curvature="0" />
      <path
         d="m 341.38671,726.81189 -0.63281,0.77343 -0.42188,-0.42187 0.35157,-1.47656 c 0.7968,0.75003 1.03117,1.12503 0.70312,1.125 m 26.08594,-53.71875 c -0.89073,0.14071 -2.17979,0.37508 -3.86719,0.70312 -1.78134,0.51571 -3.18759,1.64071 -4.21875,3.375 -1.45322,2.5782 -2.34384,5.10945 -2.67187,7.59375 -0.60947,4.31257 -0.91416,7.82819 -0.91407,10.54688 -9e-5,0.18756 0.0937,2.22662 0.28125,6.11718 0.18741,3.84381 0.28116,5.88287 0.28125,6.11719 l 0,11.17969 c -9e-5,0.14066 0.0702,0.60941 0.21094,1.40625 0.18741,0.79691 0.25772,1.40628 0.21094,1.82812 -0.28134,5.67191 -0.42197,8.85941 -0.42188,9.5625 -9e-5,0.37503 0.0937,1.14847 0.28125,2.32032 0.18741,1.12502 0.28116,1.78127 0.28125,1.96875 l 0,21.58593 c -9e-5,0.28125 0.0233,0.44532 0.0703,0.49219 0.0937,0 0.14053,0.0234 0.14062,0.0703 -3.28134,0.5625 -4.7579,0.84375 -4.42969,0.84375 -1.96883,0 -3.18758,-0.21093 -3.65625,-0.63281 -3.23445,-3 -8.0157,-8.24999 -14.34375,-15.75 -1.12506,-1.49998 -2.81256,-3.65623 -5.0625,-6.46875 -1.96881,-1.92185 -4.64068,-4.73435 -8.01562,-8.4375 -0.84381,-1.40622 -2.25005,-3.49215 -4.21875,-6.25781 -4.2188,-5.10933 -10.19535,-12.63276 -17.92969,-22.57031 -1.03128,-0.79682 -2.43753,-2.06244 -4.21875,-3.79688 -0.0469,-0.32806 -0.18753,-0.79681 -0.42187,-1.40625 -0.56253,-0.89056 -1.50003,-2.22649 -2.8125,-4.00781 -0.9844,0.46882 -1.47659,1.19538 -1.47657,2.17969 -2e-5,-0.0468 0.3281,2.34381 0.98438,7.17187 0.0469,0.28131 -3e-5,0.72662 -0.14063,1.33594 -0.14065,0.56256 -0.21096,0.93756 -0.21093,1.125 -3e-5,1.87505 0.0703,4.7813 0.21093,8.71875 0.18748,3.89067 0.28123,5.7891 0.28125,5.69531 l 0,9.84375 c -2e-5,0.28128 0.0234,2.67191 0.0703,7.17188 0.0937,4.50002 0.1406,6.8672 0.14062,7.10156 -2e-5,9.79688 3.49216,14.95313 10.47656,15.46875 0.14059,0 0.30466,0.21094 0.49219,0.63281 0.23434,0.375 0.3984,0.60938 0.49219,0.70313 0.0468,0.84375 -0.0703,1.54687 -0.35156,2.10937 l -24.53907,0 c -0.18751,0 -1.05469,0.11719 -2.60156,0.35156 -1.50001,0.28125 -2.36719,0.42188 -2.60156,0.42188 l -1.125,0 c -0.42188,-0.42188 -0.63282,-0.67969 -0.63281,-0.77344 -1e-5,-1.64062 0.51562,-2.74218 1.54687,-3.30469 1.21874,-0.37499 2.99999,-1.07812 5.34375,-2.10937 2.29686,-1.26562 3.67967,-3.28124 4.14844,-6.04688 1.21873,-6.79685 1.47654,-10.94529 0.77344,-12.44531 -0.32815,-0.65623 -0.37502,-1.21872 -0.14063,-1.6875 -2e-5,3e-5 0.18748,-0.23435 0.5625,-0.70312 -2e-5,2e-5 -0.14064,-0.21092 -0.42187,-0.63282 -0.0469,-0.51559 -0.0235,-1.40622 0.0703,-2.67187 0.0937,-1.31247 0.14061,-2.24997 0.14062,-2.8125 -1e-5,-0.65622 -0.14064,-1.78122 -0.42187,-3.375 -0.23439,-1.59371 -0.35158,-2.71871 -0.35156,-3.375 -2e-5,0.70316 0.0937,-0.74996 0.28125,-4.35938 -0.0469,-0.14058 -0.25783,-0.60933 -0.63282,-1.40625 l 0.35157,-0.35156 c 0.18748,-0.2812 0.30467,-0.79683 0.35156,-1.54687 0.0937,-0.14058 0.0937,-0.30465 0,-0.49219 -0.65627,-5.29682 -0.98439,-8.85932 -0.98438,-10.6875 l 0,-9.70313 c -1e-5,7e-5 -0.0938,-1.38274 -0.28125,-4.14843 -0.14064,-2.76556 -0.21095,-4.75774 -0.21093,-5.97657 -2e-5,-0.14054 0.0703,-0.44523 0.21093,-0.91406 0.18749,-0.46867 0.2578,-0.86711 0.21094,-1.19531 -3.56251,-3.74992 -8.03907,-5.43742 -13.42969,-5.0625 l -0.35156,-0.35156 0,-2.32032 c 0.51562,-0.60928 1.78125,-0.91397 3.79688,-0.91406 0.23437,9e-5 2.10936,0.0938 5.625,0.28125 3.56248,0.18759 5.46092,0.28134 5.69531,0.28125 0.18748,9e-5 1.92185,-0.0937 5.20312,-0.28125 3.3281,-0.18741 5.10935,-0.28116 5.34375,-0.28125 1.12498,9e-5 1.78122,0.047 1.96875,0.14063 0.65622,0.23446 2.0156,1.75789 4.07813,4.57031 3.89059,5.48445 9.74996,13.64069 17.57812,24.46875 1.5937,2.01568 3.98432,5.01568 7.17188,9 -0.56256,4.12504 0.0234,6.18754 1.75781,6.1875 0.18744,4e-5 0.56244,-0.14058 1.125,-0.42188 0.56244,-0.2812 0.96088,-0.42183 1.19531,-0.42187 0.60932,4e-5 1.42963,0.86723 2.46094,2.60156 0.51556,0.89067 1.00775,1.75785 1.47656,2.60156 3.42181,2.76566 5.55462,4.87504 6.39844,6.32813 0.18743,0.79691 0.51555,1.96878 0.98438,3.51562 0.37492,0.51566 0.67961,0.77347 0.91406,0.77344 0.2343,3e-5 0.46867,-0.0937 0.70312,-0.28125 0.2343,-0.18747 0.37493,-0.28122 0.42188,-0.28125 1.26555,1.3594 2.97648,3.35159 5.13281,5.97656 0.79679,-0.37497 1.19523,-0.72654 1.19531,-1.05468 -8e-5,-0.23435 -0.0938,-0.63279 -0.28125,-1.19532 -0.18758,-0.56247 -0.28133,-0.96091 -0.28125,-1.19531 l 0,-7.52344 c -8e-5,-0.23434 -0.0469,-0.56246 -0.14062,-0.98437 -0.047,-0.46872 -0.0704,-1.05465 -0.0703,-1.75781 0.18741,-0.89059 0.32804,-2.15622 0.42187,-3.79688 -0.23446,-1.35933 -0.53914,-3.35152 -0.91406,-5.97656 -0.0938,-0.37495 -0.047,-1.07808 0.14062,-2.10938 0.18742,-1.0312 0.28117,-1.61713 0.28125,-1.75781 -8e-5,-0.18745 -0.0704,-0.56245 -0.21093,-1.125 -0.14071,-0.60932 -0.21102,-1.0312 -0.21094,-1.26562 -0.0938,-0.8437 -0.0938,-1.99214 0,-3.44532 0.0937,-1.82806 0.14054,-3.04681 0.14062,-3.65625 -8e-5,-0.23431 -0.11726,-0.63275 -0.35156,-1.19531 -0.18758,-0.56244 -0.30477,-0.98431 -0.35156,-1.26562 -8e-5,6e-5 0.0937,-0.63275 0.28125,-1.89844 0.0468,-0.37494 -0.047,-1.1015 -0.28125,-2.17969 -0.18758,-1.07806 -0.28133,-1.89837 -0.28125,-2.46094 -8e-5,-0.18743 0.0937,-0.6093 0.28125,-1.26562 0.18742,-0.65618 0.25773,-1.12493 0.21094,-1.40625 -0.28133,-1.9218 -0.77352,-4.7343 -1.47657,-8.4375 -0.65632,-2.43742 -3.3282,-4.0546 -8.01562,-4.85156 0.0937,-0.79679 -7e-5,-1.64054 -0.28125,-2.53125 0.51555,-0.42179 2.17961,-0.63273 4.99219,-0.63282 l 12.79687,0.49219 c -0.28134,9e-5 1.82804,-0.14054 6.32813,-0.42187 2.67177,-0.18742 4.75771,-0.0233 6.25781,0.49218 l 0,2.60157"
         style="fill:#888a85;font-family:Ringbearer;-inkscape-font-specification:Ringbearer Bold"
         id="path3829"
         inkscape:connector-curvature="0" />
      <path
         d="m 437.1375,726.81189 -0.63282,0.77343 -0.42187,-0.42187 0.35156,-1.47656 c 0.7968,0.75003 1.03118,1.12503 0.70313,1.125 m 26.08593,-53.71875 c -0.89072,0.14071 -2.17978,0.37508 -3.86718,0.70312 -1.78135,0.51571 -3.1876,1.64071 -4.21875,3.375 -1.45322,2.5782 -2.34384,5.10945 -2.67188,7.59375 -0.60946,4.31257 -0.91415,7.82819 -0.91406,10.54688 -9e-5,0.18756 0.0937,2.22662 0.28125,6.11718 0.18741,3.84381 0.28116,5.88287 0.28125,6.11719 l 0,11.17969 c -9e-5,0.14066 0.0702,0.60941 0.21094,1.40625 0.18741,0.79691 0.25772,1.40629 0.21093,1.82812 -0.28134,5.67191 -0.42196,8.85941 -0.42187,9.5625 -9e-5,0.37503 0.0937,1.14847 0.28125,2.32032 0.18741,1.12502 0.28116,1.78127 0.28125,1.96875 l 0,21.58593 c -9e-5,0.28125 0.0233,0.44532 0.0703,0.49219 0.0937,0 0.14054,0.0234 0.14063,0.0703 -3.28134,0.5625 -4.7579,0.84375 -4.42969,0.84375 -1.96883,0 -3.18758,-0.21093 -3.65625,-0.63281 -3.23445,-3 -8.0157,-8.24999 -14.34375,-15.75 -1.12507,-1.49998 -2.81257,-3.65623 -5.0625,-6.46875 -1.96881,-1.92185 -4.64068,-4.73435 -8.01563,-8.4375 -0.8438,-1.40622 -2.25005,-3.49215 -4.21875,-6.25781 -4.21879,-5.10933 -10.19535,-12.63276 -17.92968,-22.57031 -1.03128,-0.79682 -2.43753,-2.06244 -4.21875,-3.79688 -0.0469,-0.32806 -0.18753,-0.79681 -0.42188,-1.40625 -0.56253,-0.89056 -1.50002,-2.22649 -2.8125,-4.00781 -0.9844,0.46882 -1.47658,1.19538 -1.47656,2.17969 -2e-5,-0.0468 0.3281,2.34381 0.98437,7.17187 0.0469,0.28131 -2e-5,0.72662 -0.14062,1.33594 -0.14065,0.56256 -0.21096,0.93756 -0.21094,1.125 -2e-5,1.87505 0.0703,4.7813 0.21094,8.71875 0.18747,3.89067 0.28122,5.7891 0.28125,5.69531 l 0,9.84375 c -3e-5,0.28128 0.0234,2.67191 0.0703,7.17188 0.0937,4.50002 0.1406,6.8672 0.14063,7.10156 -3e-5,9.79688 3.49216,14.95313 10.47656,15.46875 0.14059,0 0.30465,0.21094 0.49219,0.63281 0.23434,0.375 0.3984,0.60938 0.49218,0.70313 0.0468,0.84375 -0.0703,1.54687 -0.35156,2.10937 l -24.53906,0 c -0.18751,0 -1.0547,0.11719 -2.60156,0.35156 -1.50001,0.28125 -2.3672,0.42188 -2.60157,0.42188 l -1.125,0 c -0.42188,-0.42188 -0.63281,-0.67969 -0.63281,-0.77344 0,-1.64062 0.51562,-2.74218 1.54688,-3.30469 1.21874,-0.37499 2.99999,-1.07812 5.34375,-2.10937 2.29686,-1.26562 3.67967,-3.28124 4.14843,-6.04688 1.21874,-6.79685 1.47655,-10.94529 0.77344,-12.44531 -0.32814,-0.65622 -0.37501,-1.21872 -0.14062,-1.6875 -2e-5,3e-5 0.18748,-0.23435 0.5625,-0.70312 -2e-5,2e-5 -0.14064,-0.21092 -0.42188,-0.63282 -0.0469,-0.51559 -0.0235,-1.40622 0.0703,-2.67187 0.0937,-1.31247 0.14061,-2.24997 0.14063,-2.8125 -2e-5,-0.65622 -0.14064,-1.78122 -0.42188,-3.375 -0.23439,-1.59371 -0.35157,-2.71871 -0.35156,-3.375 -1e-5,0.70316 0.0937,-0.74996 0.28125,-4.35938 -0.0469,-0.14058 -0.25783,-0.60933 -0.63281,-1.40625 l 0.35156,-0.35156 c 0.18749,-0.2812 0.30467,-0.79683 0.35156,-1.54687 0.0937,-0.14058 0.0937,-0.30464 0,-0.49219 -0.65626,-5.29682 -0.98439,-8.85932 -0.98437,-10.6875 l 0,-9.70313 c -2e-5,7e-5 -0.0938,-1.38274 -0.28125,-4.14843 -0.14064,-2.76555 -0.21095,-4.75774 -0.21094,-5.97657 -1e-5,-0.14054 0.0703,-0.44523 0.21094,-0.91406 0.18748,-0.46867 0.2578,-0.86711 0.21094,-1.19531 -3.56251,-3.74992 -8.03907,-5.43742 -13.42969,-5.0625 l -0.35156,-0.35156 0,-2.32032 c 0.51562,-0.60928 1.78124,-0.91397 3.79687,-0.91406 0.23437,9e-5 2.10937,0.0938 5.625,0.28125 3.56249,0.18759 5.46092,0.28134 5.69531,0.28125 0.18749,9e-5 1.92186,-0.0937 5.20313,-0.28125 3.3281,-0.18741 5.10935,-0.28116 5.34375,-0.28125 1.12497,9e-5 1.78122,0.047 1.96875,0.14063 0.65622,0.23446 2.01559,1.75789 4.07812,4.57031 3.89059,5.48445 9.74996,13.64069 17.57813,24.46875 1.5937,2.01568 3.98432,5.01568 7.17187,9 -0.56255,4.12504 0.0234,6.18754 1.75782,6.1875 0.18744,4e-5 0.56244,-0.14058 1.125,-0.42188 0.56244,-0.2812 0.96087,-0.42183 1.19531,-0.42187 0.60931,4e-5 1.42962,0.86723 2.46094,2.60156 0.51556,0.89067 1.00774,1.75785 1.47656,2.60156 3.4218,2.76567 5.55462,4.87504 6.39844,6.32813 0.18742,0.79691 0.51555,1.96878 0.98437,3.51562 0.37493,0.51566 0.67962,0.77347 0.91406,0.77344 0.2343,3e-5 0.46868,-0.0937 0.70313,-0.28125 0.2343,-0.18747 0.37492,-0.28122 0.42187,-0.28125 1.26555,1.3594 2.97649,3.35159 5.13282,5.97656 0.79679,-0.37497 1.19523,-0.72653 1.19531,-1.05468 -8e-5,-0.23435 -0.0938,-0.63279 -0.28125,-1.19532 -0.18758,-0.56247 -0.28133,-0.96091 -0.28125,-1.19531 l 0,-7.52344 c -8e-5,-0.23434 -0.047,-0.56246 -0.14063,-0.98437 -0.0469,-0.46872 -0.0704,-1.05465 -0.0703,-1.75781 0.18742,-0.89059 0.32805,-2.15621 0.42188,-3.79688 -0.23446,-1.35933 -0.53915,-3.35152 -0.91407,-5.97656 -0.0938,-0.37495 -0.0469,-1.07808 0.14063,-2.10938 0.18742,-1.0312 0.28117,-1.61713 0.28125,-1.75781 -8e-5,-0.18745 -0.0704,-0.56245 -0.21094,-1.125 -0.1407,-0.60932 -0.21102,-1.0312 -0.21094,-1.26562 -0.0938,-0.8437 -0.0938,-1.99214 0,-3.44532 0.0937,-1.82806 0.14055,-3.04681 0.14063,-3.65625 -8e-5,-0.23431 -0.11727,-0.63275 -0.35156,-1.19531 -0.18758,-0.56244 -0.30477,-0.98431 -0.35157,-1.26562 -8e-5,6e-5 0.0937,-0.63275 0.28125,-1.89844 0.0468,-0.37494 -0.0469,-1.1015 -0.28125,-2.17969 -0.18758,-1.07806 -0.28133,-1.89837 -0.28125,-2.46094 -8e-5,-0.18743 0.0937,-0.6093 0.28125,-1.26562 0.18742,-0.65618 0.25774,-1.12493 0.21094,-1.40625 -0.28133,-1.9218 -0.77352,-4.7343 -1.47656,-8.4375 -0.65633,-2.43742 -3.3282,-4.0546 -8.01563,-4.85156 0.0937,-0.79679 -7e-5,-1.64054 -0.28125,-2.53125 0.51556,-0.42179 2.17962,-0.63273 4.99219,-0.63282 l 12.79688,0.49219 c -0.28134,9e-5 1.82803,-0.14054 6.32812,-0.42187 2.67178,-0.18742 4.75772,-0.0233 6.25781,0.49218 l 0,2.60157"
         style="fill:#888a85;font-family:Ringbearer;-inkscape-font-specification:Ringbearer Bold"
         id="path3831"
         inkscape:connector-curvature="0" />
      <path
         d="m 521.01004,642.3273 c -8e-5,0.28134 -0.047,0.75009 -0.14062,1.40625 -1.35946,0.32822 -3.30477,1.10165 -5.83594,2.32032 -1.40632,1.12508 -3.25788,3.28133 -5.55469,6.46875 -1.35944,2.5782 -3.44538,6.44538 -6.25781,11.60156 -0.32819,0.32819 -0.7735,0.82038 -1.33594,1.47656 -0.56256,0.79694 -1.68756,3.07038 -3.375,6.82031 -0.46881,1.12506 -1.28912,2.85944 -2.46094,5.20313 -0.93755,1.17193 -2.27349,2.97661 -4.00781,5.41406 -0.51567,0.79692 -1.00786,2.67192 -1.47656,5.625 -0.23443,1.59379 -0.2813,4.12504 -0.14063,7.59375 -0.0469,1.82816 -0.0469,4.85159 0,9.07031 0.0468,3.0469 0.0703,6.09377 0.0703,9.14063 0.0937,3.65626 0.53901,6.65626 1.33593,9 0.6562,2.0625 1.92183,3.65625 3.79688,4.78125 1.03119,0.28125 2.32025,0.89063 3.86719,1.82812 -6e-5,0.98438 -0.3985,1.5 -1.19532,1.54688 1.26557,-0.0937 0.58588,-0.14063 -2.03906,-0.14063 l -7.10156,-0.21093 c -2.9063,0 -4.47661,-0.0703 -4.71094,-0.21094 -1.17192,0.1875 -3.51566,0.25781 -7.03125,0.21094 l -10.40625,0.21093 c -0.18752,-0.28125 -0.46877,-0.63281 -0.84375,-1.05468 0.0469,-0.60938 1.71091,-1.33594 4.99219,-2.17969 1.59372,-0.42187 3.11715,-1.73437 4.57031,-3.9375 1.17184,-1.78124 1.94528,-3.4453 2.32031,-4.99219 0.51559,-2.10936 0.79684,-3.0703 0.84375,-2.88281 -0.46878,-0.42186 -1.00785,-1.17186 -1.61718,-2.25 0.18746,-1.64061 0.30465,-4.10154 0.35156,-7.38281 -0.23441,-0.3281 -0.51566,-0.82029 -0.84375,-1.47657 -0.14066,-1.40622 -0.21097,-4.35934 -0.21094,-8.85937 -3e-5,-2.81246 -0.21097,-5.34371 -0.63281,-7.59375 -0.46879,-0.74996 -1.14847,-1.87496 -2.03906,-3.375 -0.60941,-0.74995 -1.52347,-1.99214 -2.74219,-3.72656 -2.4844,-4.0312 -6.14065,-9.91401 -10.96875,-17.64844 -2.15627,-2.67181 -5.20314,-6.77336 -9.14063,-12.30469 -0.65626,-1.12492 -1.73438,-2.64835 -3.23437,-4.57031 -0.70313,-0.65617 -1.75782,-1.2421 -3.16406,-1.75781 -1.17188,-0.42179 -2.34376,-0.84367 -3.51563,-1.26563 -0.0937,-0.70304 0.1875,-1.07804 0.84375,-1.125 0.9375,-0.0468 8.46093,-0.28116 22.57031,-0.70312 1.4531,0.047 3.60935,0.0938 6.46875,0.14062 0.23435,0.18759 0.35154,0.39853 0.35157,0.63281 -3e-5,0.23447 -0.58597,0.86728 -1.75782,1.89844 -1.12502,0.98446 -1.68752,2.08602 -1.6875,3.30469 -2e-5,1.96883 0.67966,3.79695 2.03907,5.48437 0.28122,0.98446 0.84372,2.3907 1.6875,4.21875 3.89059,6.46882 7.40621,11.78913 10.54687,15.96094 1.40621,1.87506 2.50777,2.78912 3.30469,2.74219 0.79683,0.18755 1.64058,-0.30463 2.53125,-1.47656 0.74995,-1.07807 1.47651,-2.1562 2.17969,-3.23438 0.2812,-0.93744 0.82026,-2.32025 1.61718,-4.14844 0.42183,-0.51556 0.93745,-1.24212 1.54688,-2.17968 0.79682,-1.82806 1.54682,-3.32806 2.25,-4.5 0.18744,-0.65618 0.46869,-1.61712 0.84375,-2.88282 0.51557,-0.74992 1.12494,-1.80461 1.82812,-3.16406 0.74995,-3.37492 1.12494,-5.32023 1.125,-5.83594 -6e-5,-2.10929 -0.82037,-3.70304 -2.46093,-4.78125 -0.46881,-0.18741 -1.21881,-0.65616 -2.25,-1.40625 0.0937,-0.14053 0.28119,-0.32803 0.5625,-0.5625 2.67181,-0.14053 8.08587,0.14072 16.24218,0.84375 2.20306,-0.42178 5.36712,-0.79678 9.49219,-1.125"
         style="fill:#888a85;font-family:Ringbearer;-inkscape-font-specification:Ringbearer Bold"
         id="path3833"
         inkscape:connector-curvature="0" />
      <path
         d="m 576.20282,755.91031 c -0.84383,0.37499 -2.08602,0.49218 -3.72656,0.35156 -2.71883,-0.23438 -3.98446,-0.35156 -3.79688,-0.35156 l -5.625,0 c -6.79694,0 -12.09381,0.35156 -15.89062,1.05468 -2.10943,0.375 -3.51568,0.16406 -4.21875,-0.63281 -0.0938,-1.40625 -0.0235,-2.60156 0.21093,-3.58594 0.93745,-0.0937 2.24995,-0.42187 3.9375,-0.98437 0.70307,-0.42187 1.24213,-1.125 1.61719,-2.10938 0.37494,-0.98437 0.44526,-1.7578 0.21094,-2.32031 -0.60943,-2.71874 -1.54693,-6.79686 -2.8125,-12.23437 -0.0938,-0.32811 -0.60943,-1.66405 -1.54688,-4.00782 -0.75005,-1.87497 -1.12505,-3.30466 -1.125,-4.28906 -0.0469,-0.28122 -0.35161,-0.42185 -0.91406,-0.42187 -0.79692,2e-5 -4.64067,0.18752 -11.53125,0.5625 l -14.83594,0.21093 c -1.07814,-0.0468 -2.08596,0.93753 -3.02343,2.95313 -0.46877,1.03127 -1.12502,2.55471 -1.96875,4.57031 -1.07815,3.28127 -1.59377,5.22658 -1.54688,5.83594 -2e-5,-0.32811 -0.23439,1.07814 -0.70312,4.21875 -0.32815,2.20313 -0.32815,3.70313 0,4.5 0.18748,0.46875 0.8906,1.21875 2.10937,2.25 1.26561,1.03125 2.34373,1.71094 3.23438,2.03906 0.23435,0.0937 0.60935,0.21094 1.125,0.35156 0.37497,0.65625 0.67966,1.17188 0.91406,1.54688 -0.9844,0.28125 -2.34377,0.58593 -4.07813,0.91406 -2.71876,-0.23438 -6.63282,-0.42187 -11.74218,-0.5625 -1.07814,0.32812 -2.7422,0.65625 -4.99219,0.98438 -0.0937,-10e-6 -1.80469,-0.21094 -5.13281,-0.63282 -0.0937,-0.23437 -0.14063,-0.44531 -0.14063,-0.63281 0,-0.5625 0.70313,-1.35937 2.10938,-2.39062 0.51562,-0.70313 1.38281,-1.61719 2.60156,-2.74219 1.07812,-0.70312 2.01562,-1.89843 2.8125,-3.58594 0.79687,-1.73436 2.01562,-4.40624 3.65625,-8.01562 0.70311,-2.24999 1.7578,-5.64842 3.16406,-10.19532 0.93749,-2.15622 2.1328,-5.43746 3.58594,-9.84375 1.07811,-3.23433 2.64842,-8.03901 4.71094,-14.41406 0.18747,-0.18745 0.42185,-0.4687 0.70312,-0.84375 0.1406,0.75005 0.3281,1.12505 0.5625,1.125 0.3281,5e-5 0.74998,-1.00776 1.26563,-3.02344 0.46872,-1.82807 0.7031,-3.14056 0.70312,-3.9375 -2e-5,-0.14056 -0.0235,-0.21088 -0.0703,-0.21093 -0.0938,0.14068 -0.25784,0.56255 -0.49219,1.26562 -2e-5,-0.46869 0.0468,-1.12494 0.14063,-1.96875 0.74997,-1.96869 1.80466,-4.87494 3.16406,-8.71875 0.3281,-1.82806 1.33591,-4.5468 3.02344,-8.15625 0.23434,-0.7968 0.5859,-2.01555 1.05468,-3.65625 0.42185,-1.40617 1.24216,-3.51554 2.46094,-6.32812 0.14059,-0.60929 0.49215,-1.47648 1.05469,-2.60157 0.28121,-0.32803 1.38278,-0.42178 3.30469,-0.28125 1.82808,0.047 4.5937,0.21103 8.29687,0.49219 1.2187,3.51571 3.39839,9.11727 6.53906,16.80469 0.0937,0.89069 0.35151,2.20319 0.77344,3.9375 0.74995,2.20319 1.73432,4.24225 2.95313,6.11719 -0.23444,0.32818 -0.0469,1.54693 0.5625,3.65625 0.74994,1.68755 1.8515,4.17192 3.30468,7.45312 0.98432,3.23442 2.50775,7.73442 4.57032,13.5 0.14056,1.31254 0.58587,3.18753 1.33593,5.625 -6e-5,0.37503 0.11712,0.96097 0.35157,1.75781 0.56243,1.21878 1.57024,3.56253 3.02343,7.03125 0.51556,0.75002 1.21868,1.89846 2.10938,3.44532 -0.0469,0.37501 -7e-5,0.89064 0.14062,1.54687 0.65618,1.92189 1.66399,4.6172 3.02344,8.08594 0.46868,0.79688 1.26555,2.25 2.39063,4.35937 0.28117,0.56251 1.6171,1.28907 4.00781,2.17969 0.70304,0.23438 1.73429,0.58594 3.09375,1.05469 l 0,1.89844 M 540.0622,719.06656 c -0.0469,-0.0468 -1.75786,-4.7109 -5.13281,-13.99219 -0.56254,-1.87495 -1.42973,-4.66401 -2.60156,-8.36719 -0.56254,-1.12494 -1.31254,-2.74213 -2.25,-4.85156 -0.28129,-0.98431 -0.77348,-2.39056 -1.47656,-4.21875 -1.68754,3.84381 -3.56254,7.73443 -5.625,11.67187 -0.28128,0.28131 -0.60941,0.72662 -0.98438,1.33594 -0.14065,0.70318 -0.39847,1.7813 -0.77344,3.23438 -0.32815,0.6563 -0.72659,1.5938 -1.19531,2.8125 -0.0469,0.79692 -0.16409,1.82817 -0.35156,3.09375 -0.32815,0.46879 -0.70315,1.12504 -1.125,1.96875 -0.2344,1.07816 -0.58597,2.6016 -1.05469,4.57031 -0.2344,0.37504 -0.53909,0.89066 -0.91406,1.54687 0.0937,-0.51558 0.1406,-0.11715 0.14062,1.19532 l 23.34375,0"
         style="fill:#888a85;font-family:Ringbearer;-inkscape-font-specification:Ringbearer Bold"
         id="path3835"
         inkscape:connector-curvature="0" />
    </g>
    <text
       xml:space="preserve"
       style="font-size:40px;font-style:normal;font-variant:normal;font-weight:normal;font-stretch:normal;line-height:125%;letter-spacing:0px;word-spacing:0px;fill:#000000;fill-opacity:1;stroke:none;font-family:Tengwar Quenya-2;-inkscape-font-specification:Tengwar Quenya-2"
       x="219.20309"
       y="323.03204"
       id="text3037"
       sodipodi:linespacing="125%"><tspan
         sodipodi:role="line"
         id="tspan3039"
         x="219.20309"
         y="323.03204" /></text>
  </g>
</svg>
